<?xml version="1.0" encoding="UTF-8"?>
<svg id="Layer_1" xmlns="http://www.w3.org/2000/svg" version="1.1" viewBox="0 0 626.24 250.3">
  <!-- Generator: Adobe Illustrator 30.8.1, SVG Export Plug-In . SVG Version: 2.1.4 Build 1)  -->
  <path d="M272.68,196.9c.46.1.79.51.97,1.44l-143.13-28.23c-9.66-1.9-19-2.78-28.43-5.42,12.14.33,23.09,2.6,34.52,4.84l110.93,21.83,25.13,5.54Z"/>
  <path d="M124.64,118.78c-2.26,2.9-11.63.72-16.55-1.94-3.03-1.64-5.43-4.65-7.21-7.71-4.74-8.12-13-25.54-10.24-33.11,1.59-4.36,6.45-6.07,11.05-5.6,6.9.72,19.62,6.4,19.75,12.12.26,11.13,1.38,21.71,4.06,32.51.28,1.12-.26,2.96-.85,3.72ZM122.55,117.74c.68-.17.91-2.43.7-2.89-2.27-9.28-3.33-18.34-3.79-27.9l-.5-5.85c-4.33-5.01-14.49-9.34-20.66-8.48-3.45.48-6.21,2.77-6.15,6.45.14,8.56,6.51,22.64,11.4,30.35,2.59,4.09,6.22,6.55,10.96,7.67,2.35.56,5.55,1.29,8.05.65Z"/>
  <path d="M156.8,106.38c-6.79,2.25-12.44.9-18.08-2.54-2.29-1.4-4.61-2.45-4.08-5.86.33-2.13,2.09-2.21,3.68-2.84,5.98-2.37,11.72-1.54,16.92,2.2,1.78,1.28,5.48,2.92,4.67,7.17-.2,1.04-1.85,1.45-3.1,1.87ZM152.15,97.8c-3.12-2.54-6.16-2.49-9.11-2.15.93,1.2,2.19,1.89,3.42,1.94l5.69.21ZM157.79,103.34c.11-1.02-1.26-2.92-2.22-3.37-4.21-.09-8.59.28-12.52-1.12-1.28-.46-1.82-2.33-4.17-1.63-.58.17-1.86.54-2.13,1.07-.94,1.87,3.3,5.17,7.25,3.68l10.7,1.93c.88.16,2.92,1.02,3.08-.56Z"/>
  <path d="M76.45,181.32c-6.7,9.38-18.29,13.08-27.8,6.05-21.78-16.09-23.11-64.98-3.41-82.65,6.97-6.25,16.48-6.35,23.81-.68,19.65,15.21,22.6,56,7.4,77.28ZM50.28,185.44c6.99,4.96,15.25,3.58,21.1-2.29,4.71-4.72,7.76-10.65,9.64-17.31,4.06-14.4,3.31-29.73-2.09-43.67-2.44-6.29-5.99-11.83-11.05-15.86-6.84-5.45-15.47-5.11-21.53.96-3.57,3.58-6.26,7.57-8.15,12.35-6.26,15.82-5.7,36.67,1.49,52.17,2.49,5.38,5.64,10.13,10.59,13.64Z"/>
  <path d="M112.39,106.64c.18,1.75-.87,3.52-1.84,4.13-1.17.75-3.88,1.17-4.8.11-5.71-6.59-9.52-19.03-10.26-27.91-.27-3.33,2.14-6.15,5.59-6.01,5.15.21,10.34.76,14.89,3.23-3.12.35-5.6-.44-8.64-.82,2.33,9.19,4.05,17.84,5.05,27.27ZM107.12,109.3c.74.2,2.36.08,2.53-.52l.69-2.32c-1.24-9.17-2.78-17.68-5.12-26.66-2.01-1.32-5.44-1.06-6.75.35-2.99,3.24,3.34,23.21,8.64,29.15Z"/>
  <path d="M43.9,150.9l14.04-3.19c.86-.19,2.14.22,3.17.61l-.69-2.45c-5.59,1.41-10.94,2.78-16.65,3.36l-4.68-.89c-.88-.17-1.48-.35-2.19-.64l3.8-.44.58-12.48c-1.25-.38-2.5-.91-3.35-1.74l5.89.68,17,7.41,1.09-2.93-10.34-3.25c-3.34-1.05-6.07-2.65-9.28-4.36l-5.98-.31c1.31-1.78,3.92-1.73,5.98-1.48,1.45-4.16,2.97-7.98,4.84-11.95-.52-2.3-2.26-5.1-.43-7.76.71,4.18,2.28,7.15,4.2,10.42,2.95,5.03,5.71,9.58,10.35,13.31,1,.8,1.89,2.28,2.47,3.52,2.02-.94,4.38-.34,5.75,1.83,4.23,6.69.74,15.21-3.19,14.92-1.09-.08-2.64-.97-3.59-1.59-.3.69-.98,2.18-1.51,2.57-3.63,2.62-6.93,5.8-9.7,9.26l-4.26,5.32c-1.4,1.75-2.16,4.65-3.45,6.73-1.45-2.95.81-5.22,1.93-7.5-1.83-4.84-3.18-9.6-4.31-14.57-2.56.38-4.72,0-6.02-1.87,3.34.39,5.67.11,8.52-.54ZM60.76,135.4c-5.48-4.86-8.94-9.46-12.23-16.04-1.95,3.4-2.93,6.5-3.96,10.11,5.27,2.74,10.42,4.78,16.19,5.93ZM58.98,144.1c-.13-.98-.58-1.78-1.01-1.95-5.14-1.97-9.31-3.86-14.6-6.42-.36,4.04-.42,7.58-.22,11.52,5.9-.86,10.27-1.75,15.83-3.15ZM69.87,145.33c.9-4.25-2.48-8.62-4.46-8.19-.52.11-1.5.8-1.88,1.15,1.9.19,3.7.49,4.67,2.05s1.32,3.42,1.67,4.99ZM66.05,144.75c1.12-.76,1.69-1.1,2.02-1.44s-.39-1.88-.85-1.79l-1.89.35c-.12.08-.13-.65.02-.86l.65-.96c-.71-.37-2.66.16-3.1,1.14-1.23,2.67-1.09,5.22.34,7.66l3.51,1.14-1.57-2.47c1.35.24,2.4.6,2.72.12.26-.4.58-2.1.12-2.25l-1.97-.64ZM47.22,165.21c4.11-5.1,7.44-9.2,12.58-12.65l.12-2.11c.02-.42-1.45-.65-1.97-.53l-14.09,3.04c.4,4.32,1.49,8.18,3.36,12.25Z"/>
  <path d="M60.92,182.63c-1.14,1.32-2.74,3.65-4.91,2.7l3.41-3.59c.71-7.46,3.73-13.67,7.48-19.92.37-2.27.22-4.99,2.2-6.61-.91,4.8-.81,8.79-.22,13.31.43,3.37.59,6.81,2.37,9.7.37.6.81,1.46.91,1.93.41,2-6.25,2.57-11.25,2.47ZM69.57,179.86c-1.21-2.51-1.97-4.77-2.35-7.51l-.77-5.53c-2.57,4.59-3.81,8.57-4.77,13.43,2.74.54,5.3.32,7.88-.4Z"/>
  <path d="M55.07,179.98l-4.88-4.81c-.95.78-2.2,1.62-3.79,1.84l3.34-3.46c1.51-5.63,5.28-9.96,9.97-13.48l5-4.72c-.37,1.56-1.27,2.9-2.07,4.24l-5.71,19.28-2.07,4.74c-.88-.65-.36-2.26.21-3.63ZM55.37,176.85l3.84-13.5c-3.35,2.68-5.94,5.66-7.04,9.77-.17,1.44,2.03,3.37,3.2,3.72Z"/>
  <path d="M71.68,120.01c-1.1,4.48-1.55,8.85-2.27,13.73-1.31-1.93-.77-4.41-.4-6.78-2.76-4.04-5.34-8.5-5.8-13.57-.29-3.26-.61-5.94-3.84-8.56,2.49-.93,3.49,1.54,4.59,2.85.74-.02,2.49-.13,3.11.35,2.93,2.28,5.95,5.33,7.88,8.75l-3.26,3.24ZM72.5,116.28c-1.47-2.61-3.99-5.18-7.02-7.03-1.13,4.9,1.02,9.43,3.33,13.4.6-2.83,1.76-4.74,3.69-6.37Z"/>
  <path d="M62.66,127.54c-1.89-1.28-3.5-2.68-4.75-4.38-2.79-2.76-4.36-5.93-5.18-9.84l-.95-4.49,1.68,1c.5.3,3.86-1.2,3.66-5.05,1.8,2.79,2.4,5.81,3.12,9.07,1.05,4.76,2.24,9.49,3.97,14.01l1.98,5.17c-2.09-1.22-2.68-3.22-3.52-5.48ZM60.01,122.06l-2.77-11.64c-.54.22-1.51.69-1.95,1.13-1.47,1.47.72,7.63,4.72,10.51Z"/>
  <path d="M81.12,159.28c-1.01,2.21-4.84-2.8-3.28-10.46.96-4.72-2.02-8.95,3.88-10.5.67,6.73.5,13.16,0,19.67l-.59,1.29Z"/>
  <path d="M75.88,174.74c-5.21-2.2-3.43-10.69-1.88-16.59-1.2-1.85-2.39-3.44-2.44-5.96l3.58,5.45c4.78,7.28,6,8.2.74,17.1ZM75.44,162.07c-1.21,3.34-1.31,6.54-.13,9.54,2.85-3.78,2.86-5.84.13-9.54Z"/>
  <path d="M73.74,139.99c.77-1.51,2.03-2.5,3.82-3.75l-2.06-3.24c-2.47-3.89-1.35-9.99,1.31-10.58.45-.1,1.42.86,1.56,1.34l2.49,8.94c.57,2.05-.37,3.67-2.33,4.22-1.39,1.2-2.2,2.19-4.8,3.07ZM79.16,134.06c-.48-3.14-1.13-5.66-2.32-8.78-.94,3.47-.63,6.52,2.32,8.78Z"/>
  <path d="M104.54,196.49c-10.12,1.91-20.09,3.43-30.44,4.36-4.38.39-8.69.15-13.03-.03-19.07-.8-29.96-22.43-33.54-39.55-6.08-2.06-18.91-13-18.29-16.86.13-.82,1.49-2.1,1.82-2.91l2.08-5.19c1.09-4.39,1.92-7.8,4.03-11.8,1.09-2.07.26-5.67-.01-7.96l-.72-6.05c-1.45-.94-4.09-2.69-4.21-4.54-.29-4.39-.55-8.56.2-12.89.66-3.79,3.84-8.05,6.8-10.23l3.85-2.83c1.19-.87,1.85-1.29,2.39-2.7l2.05-5.44c1.36-3.61,5.58-5.21,8.55-7.41-1.71-3.33-3.22-6.67-3.65-10.37l-3.27-28.11c-2.05,2.1-2.14,5.01-4.24,5.79-5.8.5-11.52.16-17.27-.85-2.23-.39-3.45-2.86-4.4-4.57C.16,20.81-.76,15.22.64,8.96c.16-.69.51-1.82.9-2.24.45-.49,2.08-.78,2.72-.53l14.88,5.86,12.42-.46,10.72-.39,14.58-.51,17.5-.47,18.92-.51,22.4-.51,25.09-.51,27.62-.49,9.26-.29-.78-2.36c-2.08-6.26,10.28-1.29,17.64.55,14.25-2.13,27.9-4.15,42.15-4.95l20.91-.15,14.5-.56c8.86-.34,17.1-.74,26.04-.09,19.73,1.41,39.03,4.49,57.93,10.09,8.34,2.47,15.21,6.49,22.4,11.19,12.89,8.44,25.08,17.42,37.43,26.51,5.1-2.22,13.37,3.2,17.22,7.22,2.3,2.4,2.94,5.39,2.23,8.62l5.88,4.81,30.18,2.38c14.53,1.14,28.55,2.61,42.97,4.99,14.25,2.36,27.68,5.92,41.23,10.74,9.25,3.29,17.8,7.82,24.48,15.02,4.75,5.13,8.26,10.81,11.77,16.76,1.08,1.83,2.5,3.13,4.01,4.51l5.51,5.04,13.47,13.46c2.34,2.34,4.44,5.13,6,7.96,1.87,3.38.12,7.35-.17,10.69,1.18,2.1,1.89,4.14,1.5,6.68l-3.99,26.3c1.77,2.69,2.89,5.73,3.07,9,1.4,1.55,3.73,3.44,4.4,5.44,1.79,5.29-.59,15.09-5.91,17.92l-7.23-.3c-22.37,6.42-44.76,10.95-67.67,14.77-3.39.57-6.54,1.46-9.06,3.49s-4.98,2.42-8.2,2.56l-68.62,3.04-12.91.1-9.5-.38c-12.49-.5-24.56-2.29-36.93-3.98l-18.98-2.59c-10.45,4.17-20.97,6.91-32.11,7.93h-13.95c-20.12,0-39.47-15.83-47.59-34.25l-3.04.27-102.35-17.34-62.05-11.55c-3.86,4.72-8.87,7.92-15,9.08ZM569.34,227.5c16.16-3.07,31.27-6.69,46.42-12.21,1.16-3.42,2.6-6.86,2.21-10.32l-.62-5.54c-.17-1.48-1.5-3.99-2.44-5.23l-.62-.83c-.12-.16-.81.52-.8.74l.41,6.88c.14,2.37,1.36,4.28-.55,6.44-1.35-5.91-1.77-11.4-1.55-17.19l.29-7.81c0-.26-.07-1.1-.29-1.05l-1.09.24-2.28.86-.18,5.96c-.17,5.58-.56,16.27-3.36,16.47-.46.03-1.48-1-1.44-1.56l.45-7.41.32-5.45c.02-.42-.54-1.3-.84-1.17l-1.09.48-1.01,13.78c-.11,1.55-.85,4.36-2.5,5.03-10.72,4.33-21.37,7.55-32.82,9.24l-34.36,5.07-5.94.03c-.44,0-1.12-.98-1.36-1.61l13.47-26.29-5.11.53c-1.38.14-1.53,1.19-2.15,2.33l-11.41,21.05c-1.23,2.26-2.72,3.57-5.18,5.38l7.36,2.63.09,1.12-4.15-.85c-3-.61-6.06-1.99-8.61-3.82-1.73-1.24-1.96-4.08-.98-5.91l5.93-11.09c2.42-4.53,7.59-11.07,11.93-11.52l12.87-1.33,4.73-.67,4.27-.67.84-15.21c.06-1.11,1.73-1.54,2.84-1.68,18.31-2.35,36.03-5.72,53.96-10.04.51-.12,1.99.26,2.39.58s.74,1.37.74,1.99l.07,12.72,4.94-1.41v-10.23c0-3.19,1.17-5.5,2.99-8.05,1.71-2.4,2.94-6.79,1.6-9.66-1.83-3.9-5.03-6.93-7.96-9.94l-5.18-5.3-6.75-6.51c-.5-.52-.81-.59-.42.16l-.15,2.78c-.03.62-2.01.66-2.6.45-10.25-6.02-19.39-12.87-28.04-20.91l-7.98-7.58c-3.94-3.75-7.81-9.78-5.94-15.01l-26.89-7.64c-11.94-2.45-23.49-4.51-35.91-5.23,19.66,5.45,38.12,13.09,54.85,24.77l30.27,23.18c3.54,2.71,7.53,6.78,6.45,9.9s-10.02,6.36-14.37,7.08l-19.45,3.22-20.85,1.51-21.63.03c-9.52-.8-18.32-3.57-26.99-7.41l-39.71-17.56,6.33,6,3.04,2.96c4.98,4.86,11.45,14.36,7.89,19.88-8.58,13.31-64.49-8.48-65.53-34.99-.25-6.42,4.3-10.74,10.62-11.33-28.63-8.23-57.83-13.28-87.46-16.54l-18.67-2.05c-4.47-.49-8.47-1.02-13.15-.26-1.44.23-3.9-.01-5.21-.7l-14.55-23.99-19.01-29.55c-1.22-1.89-3.23-5.7-.79-7.29,3.84-2.5,8.71-3.31,13.34-4.24,19.07-3.83,38.07-5.29,57.51-5.98h31.42s11.04.53,11.04.53c-21.26-6.31-42.94-9.31-64.96-10.48l-13.8.26c-8.34.7-16.41,1.41-24.74.74l-7.37-.02c-12.83-.04-25.15,1.72-37.92,3.52-28.98,4.07-64.02,11.62-90.74,22.94-18.82,7.97-36.34,17.45-53.52,28.37-4.67,2.96-15.33,3.72-22.88,7.7-3.43,1.81-7.3,3.78-9.08,7.3-1.12,2.22.86,4.23,2.72,6.12l-6.01,6.29c-.53.55-2.3,1.28-3,.98-.77-.33-1.61-1.02-2.93-2.08-6.4,6.21-6.16,11.38-5.52,20.38,2.83,2,4.83,3.56,6.91,5.96l-2.49-.12.96,7.16c.29,2.18.4,5.38-.66,7.31-2.06,3.74-2.9,6.99-3.68,11.21-.32,1.73-2.64,4.12-1.53,6.24,2.98,3.44,6.78,6.14,11.13,8.28-.93-21.75-2.62-41.01,12.9-57.31,11.14-11.7,27.23-8.65,37.39,2.7,4.78,5.34,8.64,11.39,11.24,18.21,4.78,12.54,7.17,25.67,7.49,39.08l.44,18.29,18.27,1.97c17.96,1.94,35.26,4.94,53.05,8.45l62.15,12.28,43.02,8.5c3.46.68,6.73,2.61,10.09,2.89l-1.95-11.77c-3.14-.8-6.48-2.74-9.91-3.43l-66.13-13.27-31.74-6.78c-5.79-1.24-11.21-3.91-15.21-8.3-5.12-5.62-8.71-12.07-12.29-18.75-4.44-8.26-7.77-16.55-10.44-25.55-3.47-11.67-5.31-21.66-3.54-33.67-2.2-1.08-4.38-1.27-5.68-3.85l6.3,2.21c3.84-7.67,10.5-11.44,17.67-15.67l-28.76-6.96c-5.65-1.37-10.82-3.46-15.92-6.1-3.06-1.58-3.8-5.59-1.8-8.29s4.68-4.3,7.56-5.94c12.31-7.01,25.17-11.62,38.77-15.76,18.42-5.6,37.42-8.09,56.59-6.29,11.18,1.05,21.04,5.9,27.7,15.03,10.14,13.91,18.4,28.73,27.49,43.36l3.64,5.87c1.92-.07,4.09.14,5.26,1.3l-.08,9.27-.15,11.44c5.71,1.21,16.3,3.24,19,5.25.13.1-.49.6-.64.73l-18.68-4.18-.37,51.43.12,31.28,10.68,3.59-.89-12.79c-.8-11.45.96-22.75,4.95-33.53,3.57-9.66,10.01-17.52,18.95-22.58,14.39-8.14,32.41-4.68,45.01,5.64,4.84,3.97,9.07,7.75,12.65,12.98l34.56,2.81c-4.01,3.92-8.23,5.45-12.61,7.8l-5.28.72,6.89,18.5c3.28,11.92,5.02,23.83,6.45,36.06l1.41,12.08c.45,3.86,3.6,5.96,7.07,6.53l28.23,4.67c12.77,1.59,25.15,1.68,37.97,2.08l8.53.27,41.33-.07,15.06-.52c13.33-1.06,25.92-3.62,39.38-6.17ZM187.8,7.06c-3.43-1.22-5.11-1.58-8.49-2.19l2.07,3.68,6.42-1.49ZM24.25,29.38c2.19-3.57,2.64-7.21.51-10.64-2.33-1.75-4.88-3.76-7.58-4.81L3.43,8.6c-1.99,6.74-.51,12.99,3.49,18.78,1.52,2.2,11.71,2.03,17.33,2ZM63.1,18.88l22.24-1.17,13.95-.49,14.1-.51,19.89-.61c5.02-.15,10.27.42,15.22-.41,6.94-1.15,13.43-3.11,20.18-4.64-9.53-.26-18.46-.06-27.83.15l-35.76.78-27.78.73-18.04.48-16.84.5-19.57.83c3.59,2.32,5.61,4.99,5.32,9.5,9.55-2.47,18.71-3.95,28.39-4.66l6.52-.48ZM290.66,81.69l22.21-.99,29.51-1.45,45.4-3.08,51.06-4.31c-22.39-19.5-45.26-36.47-69.76-51.88-7.78-2.43-15.27-3.43-23.32-3.79-11.83-.52-23.44-.51-35.28,0l-12.21.53c-12.11.52-23.83,2.16-35.82,3.99-6.05,1.07-11.63,2.36-17.44,4.05l-1.18,1.14c-.24.23.12,1.1.32,1.42l11.69,17.88,22.45,36.72,12.36-.23ZM45.46,32.85l5.71,15.59,26.6-2.72c10.75-6.12,21.4-11.37,32.62-16.45,9.14-4.14,18.1-7.07,27.96-10.47-3.29-.46-6.42-.12-9.76-.01l-13.72.44-13.58.48-14.06.48c-13.15.45-26.08,1.13-39.2,2.55-.44,2.37-.71,4.73-1.69,6.46-.73,1.29-1.61,2.01-.87,3.66ZM244.39,78.34c.29.73,1.66,1.35,2.02,1.02l.53-11.4c.1-2.08.79-3.75,2.07-5.31-5.64-9.05-11.17-17.73-17.27-26.3-5.99-8.41-14.68-13.46-24.99-14.63-13.76-1.56-27.22-.52-40.99,2.02l-2.91,10.05c-2.37,10.84-3.83,21.43-4.98,32.88l38.48,6.15c5.12-10.36,16.54-14.26,27.78-13.06,9.37,2.83,16.63,9.27,20.26,18.58ZM35.82,51.74c-1.82-3.87-1.35-8.36-2.74-12.3l1.19,13.34c.62,3.81,1.83,7.38,3.88,10.73,4.75-2.14,9.28-3.48,14.59-4.61l-9.37-25.7c-1.46-3.99,2.7-4.69,2.24-10.09-.49-.04-1.28-.01-1.32.28l-.17,1.23c-.09.65-.71,1.96-1.27,2.31-.48.3-1.84.44-2.36.22l-4.7-1.98c-.94-.4-3.05.32-4.38.77l.81,7.64.8-3.9c.63-3.06,8.38,1.34,9.72,4.6,2.91,7.11,4.91,14.19,6.94,21.63.19.69.1,1.82-.15,2.34-1.05,2.25-10.59.12-13.71-6.51ZM155.77,66.29c.95-9.35,1.63-18.29,3.83-27.31l3.61-14.84-15.23,4.28c-13.36,3.76-25.97,9.02-38,15.88-2.43,1.39-4.29,3.16-5.62,5.69.63,1.14,1.65,2.21,2.65,3.08,15.37,6.56,31.99,9.54,48.76,13.21ZM45.78,49.39l-4.76-14.3c-1.75-1.86-3.42-3.33-6.2-4.31.32,7.17,1.25,13.67,2.82,20.28l8.14-1.66ZM64.24,53.92l7.67-5-19.71,1.99,2.49,7.28c3.47-1.08,6.48-2.26,9.55-4.27ZM418.57,50.22l14.33,11.61c1.11-4.85-9.4-11.53-14.33-11.61ZM47.68,56.99l-1.26-5.09-6.62,1.29c1.87,2.5,4.58,3.82,7.88,3.8ZM231.28,81.09c2.08.38,3.07.74,4.73,1.38,2.11.82,4.96.82,7.8.91-1.56-4.33-3.42-8.33-6.36-11.8-8.34-9.82-17.66-12.14-29.52-6.79-5.92,2.67-11.75,9.5-7.76,13.8l.89-1.91c.18-.39,1.53-.43,1.97-.39l17.97,1.31c3.53.26,6.77,2.85,10.27,3.5ZM259.86,81.1l-10.03-16.67c-1.18,5.76-1.29,10.33-1.3,15.42l11.33,1.25ZM233.33,93.62l-7.08-4.41c-2.2-1.37-4.73-3.96-7.34-4.41-10.18-1.75-20.66,1.36-22.62-9.08l-44.05-7.13-9.5,6.03c-3.7,2.34-6.82,5.32-8.86,9.48l133.52,20.35.26-19.32-21.28-2.6c.67,1.78,1.4,3.7,1.13,4.78-3.46,4.22-8.57,6.83-14.17,6.32ZM477.89,136.85c14.52,6.43,28.82,9.07,44.32,7.91l27.92-2.09c7.36-.55,25.8-3.8,29.79-8.96-.07-1.98-1.78-4.32-3.46-5.66l-21.99-17.52c-19.33-15.41-41.23-26.22-65.26-32.21-6.14-1.53-11.82-3.29-18.13-3.81l-25.52-2.1-1.63,1.96-57.12,4.83-21.99,1.5-47.72,2.79-14.14.67,6.61.99c28.99,2.66,57.37,7.63,85.52,15.18,12.95,3.47,24.76,8.42,35.89,15.74l46.9,20.78ZM245.34,85.35l-7.58-.64-2.24-.19c-.39-.03-.84.91-1.15,1.4-2.54.61-4.51-1.43-5.63-3.57-4.18-2.69-8.81-3.28-13.66-3.57l-12.63-.76c.81,2.56,3.11,3.3,5.6,3.43l10.58.56c4.14.22,10.11,6.94,15.19,8.6,4.14,1.35,9.21-1.32,11.51-5.27ZM25,85.21l5.04-4.83-1.28-1.88c-.27,3.87-2.8,3.13-5.26,5.81-.24.26,1.21,1.18,1.5.9ZM266.51,188.68l.37-6.86-.07-16.13-.1-49.73.31-9.87-133.88-20.36c-1.61,10.01-.24,19.44,2.34,28.79,2.76,10.02,6.18,19.28,11.08,28.43,6.15,11.48,12.38,23.49,25.62,26.34l30.54,6.57,63.8,12.8ZM115.07,187.14l-7.59-1.1c-3.58-.3-7.49-.46-10.73-2.39-2.29-1.36-3.84-5.14-3.92-7.9l-.5-17.5-.46-10.66c-.33-7.72-1.97-15.01-3.99-22.45-3.69-13.62-12.13-29.57-25.92-34.2-14.63.89-23.46,12.44-28.24,25.68-8.39,23.21-5.16,60.44,14.6,76.01,4.39,3.46,9.3,4.8,14.74,5.02,2.96.12,5.87.41,8.83.11,10.93-1.13,21.56-2.49,32.31-4.63,4.34-.86,8.07-2.89,10.86-5.98ZM593.88,129.34c-.85-2.89-2.43-5.2-4.05-7.62l-10.47-15.58c-6.1-7.13-13.91-12-22.76-15.25-3.74.17-.85,6.97,1.95,9.63l14.86,14.11c6.3,5.5,12.73,10.19,20.47,14.72ZM453.93,144.24c-1.2-3.67-3.16-7.19-5.82-9.83l-9.02-8.97c-9.76-8.22-35.26-25.28-44.24-16.42-1.58,1.56-2.5,4.49-2.18,6.85.98,7.2,4.97,12.58,10.24,17.31,21.8,19.59,55.24,23.96,51.02,11.06ZM320.4,122.52c-24.33.63-36.3,21.83-37.97,42.98,6.82-21,17.83-35.24,37.97-42.98ZM364.61,226.76c-17.67,19.01-44.52,17.26-61.45-2.52-13.25-15.49-17.38-37.19-11.66-56.8,5.65-19.37,21.86-34.52,42.43-33.33,8.26.48,15.12,3.67,22.24,8.1-6.86-8.4-15.94-15.81-26.13-18.28-16.86,2.32-30.55,13.31-38.41,28.14-8.5,16.02-10.28,34.26-5.49,51.8,3.14,11.5,9.03,21.75,17.6,29.82,10.39,9.78,23.11,13.7,37.27,13.53,11.71-.15,23.25-2.29,34.44-6.52l-.08-6.28.5-9.44.42-18.9c-3.05,7.73-5.93,14.5-11.68,20.68ZM369.1,215.97c9.57-18.16,7.36-33.01.33-51.86-4.6-12.35-14.6-21.8-27.15-25.83-19.97-6.42-38.85,5.84-46.55,24.89-7,17.33-5.16,37.06,4.63,52.95,3.99,6.48,8.99,11.69,15.38,15.67,19.51,12.18,42.81,4.21,53.36-15.82ZM390.31,146.73l-28.14-2.09,4.35,7,9.14.74c4.99.41,10.6-2.54,14.66-5.66ZM26.35,157.24l.14-3.2c-5.49-1.9-9.11-5.44-13.58-9.2,1.32,2.72,3.36,4.89,5.66,6.6l7.78,5.8ZM622.59,214.48c.59-3.01.56-6.24-2.2-8.36l-2.02,8.61c-.22.95-1.77,2.59-2.62,2.89-14.91,5.26-29.67,8.86-45.23,11.83-13.57,2.59-26.66,5.22-40.41,6.37l-10.21.38-54.98-.04-20.16-.48c-15.35-.37-30.1-3.46-45.14-6.05-6.13-1.05-9.83-4.18-10.34-10.61-.91-11.55-2.03-23.19-4.71-34.54l-2.69-11.4-6.96-18.43-7.02-.69c7.08,13.23,10.98,27.22,10.99,42.06l.02,27.88-.12,4.61-.25,10.1,13.07,1.87,39.16,4.73c11.05,1.33,21.89.87,32.99.55l19.05-.56,41.24-2.15c2.56-.13,5.82-.29,7.97-.96,4.36-3.68,8.74-4.73,14.21-5.63,21.38-3.53,42.27-7.79,63.09-13.73,2.37-.68,4.56-1.04,6.87-.43,3.81,1,5.5-3.2,6.41-7.82ZM615.27,190.06l3.55-23.41c.2-1.29.51-3.4-1.35-3.69-1.48.99-1.93,3.6-1.99,5.45l-.31,9.55.09,12.1ZM556.86,197.08l24.71-4.61,24.61-6.28-.19-18.95c-18.62,4.5-36.39,7.89-55.67,10.33l-.5,10.1c-.16,3.2-.69,5.66-2.07,9.02,2.8.89,5.88.99,9.1.38ZM283.14,212.77c.64-1.41.39-2.75-.2-3.65-4.35-.42-7.96-2.46-12.24-3.3l-85.18-16.74-31.7-6.35c-19.01-3.81-37.79-5.78-57.54-7.74.11,2.07.63,5.22,3.02,6.21,2.23.92,5.02,1.32,7.47,1.51,7.29.58,14.01,1.45,21.28,2.81l53.44,10,101.65,17.24ZM527.7,220.61c15.71-1.26,29.33-3.51,43.56-6.4,9.25-2.03,17.77-4.57,26.63-7.86.94-3.07,1.16-5.82,1.33-8.92l.38-6.92c-15.97,3.89-31.4,7.01-47.54,9.39l-5.62-1.28-1-3.27-5.26.61-12.48,24.64ZM516.33,218.69l11.75-21.59c-4.22.29-6.51,2.45-8.69,5.31-3.8,4.99-6.9,10.99-9.68,16.68-.24.49-.04,1.8.25,2.2,1.13,1.5,4.89.13,6.37-2.6Z"/>
  <path d="M488.69,216.6c-7.43,11.76-19.47,9.25-33.06,8.98l-6.75-.14-1.47,2.6-10.54-2.93c-2.47-.69-5.08-3.42-5.19-6.15-.21-4.92.92-9.69,2.67-14.18l5.66-14.46c1-2.56,2.98-4.97,5-6.95,2.42-2.38,6.35-3.98,9.85-4.09l16.98-.57,53.74-.28-.03.93-4.19.45-17.97.38c1.34,2.16,2.14,3.97,2.95,6.14l7.87,1.35c.54.09,1.38,1.07,1.37,1.54,0,.57-.97,1.69-1.56,1.75l-9.86,1.1-15.49,24.52ZM501.07,189.62c3.1.04,5.93.64,8.86-.47l-5.42-.96-1.07-3.88-1.45,2.17-40.86-.1-10.5-.82c3.74-1.17,7.25-.27,10.83-.72,1.69-2.05,4.04-3.26,6.96-3.28l29.19-.14-.24-.56-39.04.29c-12.81.1-15.83,7.51-20.11,18.98-1.88,5.04-3.42,9.97-4.36,15.24-.61,3.4.18,6.7,3.76,7.7l8.89,2.49c3.47-11.53,6.95-22.23,11.58-33,.75-1.74,3.25-3.47,4.91-3.45l11.8.17,26.28.33ZM500.53,184.74c-.65-.93-1.04-1.29-1.58-1.68l-21.76.23-9.17.1c-1.39.01-2.73.44-3.55,1.55l36.06-.2ZM478.26,222.52c2.69-1.51,4.67-3.13,6.84-5.16l16.01-25.23-37.01-.46c-1.71-.02-3.5,1.09-4.1,2.79l-10.01,28.38,8.47.34c6.65.27,12.92.29,19.8-.67Z"/>
  <path d="M507.14,150.6c-.15-1.31,1.12-1.33,2.12-1.33l17.82-.15c13.55-.12,26.73-1.9,39.95-4.65l10.52-3.03c2.95-.85,5.02-2.6,7.75-4.7l3.78,3.1c.34.28.77,1.46.68,1.87-.5,2.25-12.39,5.62-17.95,6.6-18.59,3.3-37.11,4.76-55.98,3.96-2.85-.12-5.84-.82-8.69-1.66ZM553.15,148.9l15.14-1.71c6.81-.77,13.1-2.67,19.44-5.74-.38-1.27-1.86-2.45-2.86-2.32-7.02,6.01-18.17,6.83-26.91,8.73l-4.8,1.04Z"/>
  <path d="M342.43,95.96c-1.87,7.23-2.87,14.77-9.84,14.61-13.08-.3-24.45.63-35.24,7.86l-1.21-.76c-.24-.15.25-.91.46-1.26,4.41-2.95,9.09-5.35,13.93-7.44,2.7-.82,3.29-2.74,4.04-5.06,1.56-4.79,3.86-9.26,6.23-13.73,2.86-.94,4.53,2.37,7.96.77l4.72,1.53c2-.73,3.42-.67,5,.52l3.95,2.96ZM329.21,108.79c-.92-2.03-.62-3.78-.34-5.49l3.97-9.08-4.86-1.53c-2.63,5.49-4.53,10.25-6.35,16.24-1.44-2.98-.15-5.85.96-8.4l3.17-7.25c-1.22-.63-2.68-1.19-3.96-1.43-2.23,4.66-4.25,8.5-5.71,13.11-.64,2.04-1.38,3.45-3.2,5.07,6.28-1.01,12.05-1.34,18.19-1.03,3.14.16,5.98-.94,6.98-4.1l2.71-8.58-5.37-2.92c-2.96,5.22-4.44,9.79-6.19,15.39Z"/>
  <path d="M451.93,175.29c-14.39-1.02-28-2.65-41.98-5.12-7.91-2.11-16.1-2.05-23.7-6.39,26.9,6.37,53.35,10.23,81.31,10.82-5.16,1.85-10.22.54-15.63.69Z"/>
  <path d="M437.38,109.94l-14.77-4-16.8-4.2c-.44-.11-1.15-.66-1.38-.98s.83-1.21,1.22-1.21l13.88-.05c2.84-.01,5.63,1.9,8.15,2.82l11.29,5.93-.05,1.25c-.01.32-1.23.54-1.56.45ZM430.25,105.82c-5.66-3.66-12.37-5.79-19.4-4.61l8.58,2.35,10.82,2.27Z"/>
  <path d="M524.15,100.8l-6.24-2.6-16.43-6.27-.55-1.17c-.13-.27.91-.73,1.23-.73l6.33-.17,15.43,8.74,1.18.7c.34.2-.49,1.69-.96,1.49Z"/>
  <path d="M540.42,129.11c4.43,1.83,7.89,6.12,6.45,7.44-2.39,2.19-12.91-3.79-12.7-5.86.17-1.68,4.82-2.18,6.25-1.59ZM545.06,134.93c-2.46-3.07-5.76-5.38-8.56-3.76,2.58,1.79,5.22,3.89,8.56,3.76Z"/>
  <path d="M352.82,226.52c-.56,1.77-1.2,4.18-3.13,4.05l1.47-4.56-6.25-23.98c-.58-2.23.17-4.55,1.43-6.21l-.07-2.19,12.9,9.26c3.12,2.34,6.49,3.62,10.48,3.86l.99.54c.28.15-.63.65-1.13.79-3.32,7.8-9.04,14.05-16.69,18.44ZM366.74,208.62c-3.72-.96-6.03-2.08-8.49-3.81l-10.56-7.44c-1.21,3.21-.67,5.36.04,7.95l5.13,18.66c6.39-3.85,11.17-9.02,13.88-15.35Z"/>
  <path d="M326.61,228.09c-6.63-2.5-11.82-6.54-16.24-11.68-2.16,1.33-4.64,2.51-6.66.55,3.95-.68,6.23-2.26,8.75-4.61l12.69-11.81c1.26-1.17,2.61-2.2,4.19-2.3,1.47-.09,3.8,1.22,4.32,2.72-2.35,8.27-4.12,16.12-4.95,24.6l-.07,8.35c-1.65-1.67-1.59-3.49-2.04-5.84ZM326.56,225.63c1.03-8.81,2.32-16.17,4.8-23.92.02-.68-1.87-1.68-2.59-1.15-6.07,4.51-11.19,9.34-16.39,14.89,4,4.48,8.5,8.31,14.18,10.18Z"/>
  <path d="M324.24,188.04l-22.42,3.81c-2.11.36-4.43,1.5-6.45,2.49l-.88-.86,5.5-3.24c-.37-7.1.42-14.5,3.04-21.35-1.66-1.8-3.04-3.68-4.17-5.97,2.83.35,3.15,3.1,4.97,4.26l11.63,7.39,8.92,4.62c.42,2.81.34,5.52-.13,8.85ZM322.31,180.27c-4.54-1.83-7.81-3.69-11.5-6.04l-5.9-3.92c-2.55,6.14-3.16,12.61-2.57,19.32l20.06-3.28c.32-2.14.34-4.3-.08-6.09Z"/>
  <path d="M342.79,193.87c-3.12,4.16-8.69,4.52-12.32,1.13-4.55-4.23-5.22-11.55-1.31-16.35,2.8-3.43,7.32-4.18,10.96-1.66,5.33,3.7,6.73,11.46,2.67,16.87ZM334.6,195.73c3.12.88,6.09-.81,7.74-3.57,2.84-4.76,1.45-11.12-3.23-14.17-2.62-1.71-6.34-1.71-8.13,1.08,4.39-2.06,8.77-.24,10.51,4.06,1.4,3.47,1.09,7.66-1.91,10.44-1.1,1.02-3.33,1.52-4.97,2.16ZM338.21,187.39l1.15-.17c.52-.08,1.42-.97,1.26-1.48-.13-.39-.78-.67-1.65-.95-.94.33-1.01-.03-.36-.57.37-.36,1.21-1.25.92-1.46l-1.22-.87-2.35,1.02.99-1.8c.12-.23-.26-.83-.47-1.07l-2.7,1.36-.46-1.39c-.08-.23-.59.87-.77,1.04l-2.24,2.16c-1.57,1.98-1.08,6.53.8,7.96l3.15,2.4.65-1.77,1.95,1.22c.33.21,1.23-.36,1.77-.74l-2.19-1.72c1.01-1.25,2.98.97,3.25.2l.55-1.61c.15-.44-3.22-1.57-2.03-1.75Z"/>
  <path d="M329.81,167.88c-4.21-5.65-7.17-11.63-10.53-17.7-1.07-1.93-3.4-3.38-5.28-5,1.94-.86,3.96.33,5.39,2.63,5.72-3.81,12.14-5.78,19.06-5.29,1.02-1.31,1.83-2.4,3.12-3.29-.78,3.65-2.76,6.16-3.23,9.49-1.05,7.35-.77,14.54-.87,22.02-2.78.69-5.8-.39-7.65-2.87ZM335.31,168.91l.5-17.1,1.36-7.32c-5.79.06-11.27,1.42-15.85,4.8l9.67,16.77c.83,1.43,2.75,2.39,4.31,2.85Z"/>
  <path d="M364.31,182.31l-16.18,1.75-.04-.87,4.85-1.08c-1.2-4.56-5.56-7.18-3.5-10.2l9.73-14.34c.61-.33,1.25-.61,1.31-1.04l.32-2.37,4.05,5.54c4.65,6.36,8.7,15.96,8.22,23.44-1.47-.86-2-1.1-3.02-1.06l-5.73.22ZM357.3,180.91l14.02-.98c-1.22-7.9-4.31-15.53-9.94-21.65-3.92,4.94-7.47,10.05-10.54,15.51l3.29,5.2c.09.71.31,1.89.84,1.98.42.08,1.6,0,2.33-.05Z"/>
  <path d="M304.34,213.03l2.51-1.55c-2.56-4.52-4.4-8.76-5.65-13.88l-2.95.44-.3-.76c2.66-1.17,5.49-3.18,8.34-4,5.02-1.45,10.03-1.8,15.31-2.45,1.18-.15,2.9.42,3.54,1.13s1.84,2.86,1.2,3.61l-4.26,4.92c-3.83,4.43-8.1,8.16-12.69,11.82l-4.09,1.18-.98-.45ZM308.7,210.16c5.6-4.39,9.84-8.84,14.24-13.82.54-.62,1.16-1.44,1.16-2.01s-1.46-1.56-2.15-1.45l-14.69,2.21c-1.39.21-2.99,1.35-3.88,2.32,1.27,4.65,2.61,8.73,5.31,12.77Z"/>
  <path d="M345.98,229.21c-5.32,1.54-10.04-.33-11.75,1.99-.63-3.24-1.5-6.78-1.48-10.19.03-4.25,1.96-8.17,3.11-12.17,1-3.47,2.05-6.54,4.24-9.61l7.22,23.5c.82,2.66.78,5.12-.27,7.93l-1.08-1.46ZM345.58,227.22l-.11-3.57-5.92-18.63-3.35,9.55c-1.51,4.3-1.66,8.65-.45,13.27,3.37.28,6.22-.03,9.83-.62Z"/>
  <path d="M327.69,173.58c-1.41,1.66-3.44,1.66-5.47.7-4.28-2.02-9.38-3.15-12.52-6.9l-5.48-8.4,2.7,1.59,7.34-8.8-2.9-3.74c1.42.53,2.07,1.44,3.48,2.29l2.45,1.48,8.86,15.59,3.67,7.14-2.13-.95ZM325.4,173.01c.94-1.39.18-2.24-.47-3.38l-9.24-16.2c-2.75,2.77-5,5.04-6.64,8.27.04,2.76,2.81,5.77,5.42,6.83l10.93,4.48Z"/>
  <path d="M343.86,175.33c-.47-1.82,1.07-2.86,2.09-4.46-2.83-.99-4.69-2.78-4.73-5.63l-.11-9.3c-.05-4.53,2.14-8.65,4.8-12.23l1.04,1.58c-.15-.22,5,.22,9.62,5.72,3.34,3.99-7.19,18.93-12.71,24.31ZM354.31,156.93c.7-1.11,1.21-4.21.32-4.95l-4.21-3.49c-.99-.82-3.84-1.71-4.67-.46-2.28,3.43-2.68,7.41-2.71,11.44-.03,4.78-.14,8.39,3.69,9.53l7.58-12.07Z"/>
  <path d="M356.26,196.52c-2.68-2.52-4.19-5.39-2.45-9.09l-3.32-.75,9.69-2.24c4.44-1.03,9.98-.38,13.11,3.29.05,4.65-.53,9.99-2.17,14.32-.79,2.08-4.48,1.63-6.11,1-3.53-1.37-5.94-3.88-8.75-6.53ZM369.73,200.7c1.29-3.84,1.62-7.56,1.91-11.7-4.42-3.79-9.79-2.83-15.48-1.64-1.79,3.04-.72,5.38,1.5,7.53,2.45,2.36,4.76,4.7,7.94,6.12.95.42,3.81.67,4.14-.31Z"/>
  <path d="M425.95,241.72c-10.09-.48-19.43-3.72-29.05-6.07-5.27-1.29-10.37-2.49-15.4-5.43,5,.38,9.38,1.98,14.04,3.29,10.07,2.84,20.12,4.42,30.42,8.21Z"/>
</svg>