<?xml version="1.0" encoding="UTF-8"?>
<svg id="Layer_1" xmlns="http://www.w3.org/2000/svg" version="1.1" viewBox="0 0 464.57 227.98">
  <!-- Generator: Adobe Illustrator 30.8.1, SVG Export Plug-In . SVG Version: 2.1.4 Build 1)  -->
  <path d="M447.69,152.76c.02,10.98-2.52,21.85-10.21,29.92l16.29,1.26,9.53,1.71c.45.08,1.17.93,1.26,1.28.11.44-.76,1.53-1.23,1.64l-17.62,3.94c-48.12,8.25-96.38,15.85-145.18,21.02l-143.39,12.73c-12,1.06-23.21,1.46-35.13,1.71-3.67.08-8.24-.36-11.52-2.35L0,158.49l9.13-.16c-4.92-19.92-4.81-39.23-2.74-59.16.97-9.39,2.36-18.48,6.81-26.69l-3.76-4.62c1.63-2.8,3.53-7.17,7.19-8.07,7.46-1.84,15.17-2,22.79-2.78l1.67,2.9c16.48-15.69,39.23-32.35,61.02-38.11,9.09-2.4,17.93-3.56,27.29-4.77,20.39-2.65,40.5-3.88,61.15-4.87,3.5-2.08,6.3-6.16,10.54-6.85,8.61-1.38,17.47-1,26.15-.23,5.97.53,11.23,3.48,16.67,5.43l9.29-2.64c14.48-2.02,28.55-3.32,43.2-4.39C327.95,1.16,359.17-.15,390.8.01c4.43.02,8.55,2.74,12.63,3.71l17.04,4.05,2.67-4.17,12.8-2.1c1.57-.26,3.14-.23,4.68-.07-.27,7.35-.83,13.83-2.02,20.74-.41,2.41-1.69,4.16-3.95,5.15-8.28,3.6-16.59,6.49-25.25,9.13l-15.29.1c-1.61-.52-2.93-1.7-3.19-3.2l18.52-7.89c1.41-.6,2.61-2.88,3.38-4.39l-25.24-.59-8.72-1.54-7.49.05-8.27,15.48,3.92,6.89c9.83,1.19,19.28,3.12,29.02,5.48l26.66,1.59c1.86.42,3.83,1.21,4.63,2.93l4.53,9.59c1.19,2.53,4.05,4.41,5.52,6.89l14.36,24.14c.96,1.62,1.51,3.7,1.54,5.65l.6,44.23c.02,1.12.6,3.58-.13,4.37l-6.06,6.54ZM306.03,7.36l54.99-1.81,23.07-.43,3.48-.43,7.45.03c-1.8,5.87-5.56,9.98-10.83,13.37,13.73.73,26.48.85,39.66.6l8.36-5.52-8.55-2.22-21.17-5.29c-3.76-.94-7.52-3.21-11.47-3.39-12.28-.54-24.14.07-36.46.39-12.29.32-23.94.56-36.16,1.76l-63.24,6.22c-3.5.34-6.28,2.32-9.7,3l-85.76,17.1-.66,5.9,40.03-4.52c12.96-1.47,25.32-3.88,37.96-6.3,3.78-3.22,6.11-6.85,7.74-11.46l15.54-2.49c15.32-1.92,30.2-4,45.72-4.51ZM434.3,23.14c.8-1.68,1.74-4.75,1.87-6.87l.8-12.69-12.46,1.93-2.54,4.25,12.24,2.94-8.1,5.57c-2.7,1.86-6.23,1.5-9.6,1.27l-3.47,5.53,6.49-.27,10.48-.27c1.12-.03,2.84-.51,3.77-.79.04-.04.49-.53.52-.6ZM376.03,11.18l15.29-.53,2.61-5.08-12.62.35-15.29.23-3.4,5.59,7.9-.26,5.51-.31ZM222.33,7.11v-.46s-17.85.03-17.85.03c1.23,1.47,2.69.61,4.16.59l13.69-.15ZM196.06,19.1l9.01-10.8c-1.07-1.12-3.5-1.68-5.26-.37l-7.98,5.93c-.48.35-.2,1.97.23,2.29l4,2.95ZM230.98,14.36l11.03-2.09c-3.84-1.67-7.24-3.65-10.97-4.01-8.21-.79-16.06-.41-24.28-.02-2.79,2.49-4.92,5.08-7.24,7.9l-4.41,5.36,35.87-7.13ZM275.74,14.47l84.98-3.96,1.78-2.78-60.91,2.04c-11.62.39-22.49,2.18-34.12,3.53,2.55,1.06,4.99,1.32,8.28,1.16ZM389.99,10.76l-144,6.95.09,1.83,144-6.95-.09-1.83ZM258.98,23.36l29.55-2.69,16.12-1.18,41.38-1.59,30.03-1.24,6.54.57c2.25.2,4.72-2.47,6.45-4.03l-10.21.21-12.62.44-42.31,2.09-62.82,3.33-6.04.38c-3.05.19-6.33.06-9.11.69l-3.92,4.78,16.97-1.75ZM251.8,16.84l14.8-.84c-4.59-.94-9.05-1.85-13.87-2.06-1.74-.08-4.1.76-6,.98-1.07.12-1.75.99-2.11,2.3l7.19-.39ZM167.69,21.44l4.87-.39,7.49-.55,6.52-.46,5.39-.53c-1.58-1.37-1.98-2.83-1.5-5.17-25.64,1.13-50.96,2.83-76.36,7.1l12.47,1.6,19.41,3.68,2.13-6.49,11.74-2.57c.73,1.28.74,2.89.65,4.37l7.18-.58ZM433.97,24.13l-5.45,2.96c2.34-.37,5.34-1.26,6.86-3.1s1.77-5.41,1.56-7.37c-.62,2.45-1.39,5.5-2.38,7.03-.05.07-.42.34-.59.48ZM245.54,18.93c.04-.39-1.14-.82-1.36-.56l-5.45,7.23c2.83.07,6.65-5.04,6.82-6.67ZM155.6,43.65l2.84-24.95-9.68,2.27-7.26,23.81,14.09-1.13ZM168.89,52.79l.03-1.21-11.32-7.79,2.19-24.9-.63-.29-3,25.19,12.72,8.99ZM304.2,40.81l-5.78,13.4,11.12-.97,5.99-.48,5.51-.44,7-.56,5.5-.44,7.5-.55,6-.44,8.44-.58,11.25-.78-1.3-2.52.34-.26,2.23,3.06.88-.48-7.69-13.08c-.22,2.31.56,3.39,1.35,5.38-1.91-1.44-2.9-4.6-1.61-7.05l7.83-14.82-3.29.23-7.09,13.38-1.75-4.37,4.8-8.84-2.68.21-9.59,17.99-4.36,9.43,10.84-.63-4.89-3.28,4.67-10.73,8.94,15.59-8.4-2.68,1.83,1.96-13.91.27,2.07-5.44-9.15-.3-5.27-.12-27.34-1.02ZM347.59,36.2l8.81-16.64-35.33,1.55c-4.02.07-7.61-.03-11.93.65l38.45,14.44ZM160.15,22.88l-.14,5.65,34.35-6.95c-3.3-1.77-6.6-.75-9.81-.52l-6.5.45-7,.51-6.48.51-4.42.35ZM303.17,21.87c-.47-.17-1.64-1.47-2.1-1.41l-4.14.56,49.41,20.34,1.34-2.81-44.51-16.68ZM282.8,23.76l16.21-.61c-3.19-2.52-6.21-2.1-9.6-1.77l-14.11,1.37c2.62,1.19,4.79,1.11,7.5,1.01ZM294.46,51.64l7.55-14.15-4.12-8.07-25.88-6.39c-1.37-.34-3.9.22-5.17.52l27.93,7.95,2.49,6.27-7.54,13.3,4.74.58ZM210.19,62.85l9.46-1.25c1.61-.21,3.6-.07,5.05-.63l-19.25-10.13c-.44-1-1.32-1.94-2.37-2.3l-33.3-11.61c-1.88-.66-4.44-.56-5.81.34l-4.93.15-.66,5.93,11.56,7.95c.39.76-.67,2.68-1.44,2.68l-11.46.07c-3.24.02-6.55-1.92-9.19-3.61l-7.47-4.78,3.68-12.59c.1-.35.34-.89.18-1.08l-.55-.65c.63.16,1.92-1.86,1.3-2.04-9.55-2.75-19.07-4.48-28.93-5.26l-7.02-.07c-4.15-.04-8.07-.22-11.68,1.59,5.13-.36,9.79-.89,14.72-.32l7.12.83c-10.89.06-23.11-2.38-32.2,4.01,13.06-4.01,27.22-2.94,39.65,2.76l.7,8.56c.32,3.84-.25,7.52.77,11.6-4.5,2.5-9.5,4.87-15.21,7.51,2.78.41,5.44.32,9.02.29l-2.39.55,34.29,5.8c1.34-.27,2.74-.43,3.77-.37l-2.6.67c5.63,1.1,10.71,2.18,16.18,3.74,11.13-3.04,22.27-5.36,33.52-7.28l-6.21-.53,11.72-.52ZM262.94,23.14l-.37,1.32,31.84,8.92.37-1.32-31.84-8.92ZM144.52,27.05c-6.21-1.2-11.62-2.42-17.49-2.9l17.8,4.1c1.17.27.96-1.45-.31-1.2ZM278.19,55.94l4.35-.39,6.98-.55-.91-3.71,7.56-13.21-1.42-4.19-35.13-9.8-22.81,2.54,24.15,21.51-4.34,1.62-28.61,6.9-2.68-1.46,2.16,5.66,43.56-4.28,7.15-.64ZM301.08,25.12l-.29-.79-19.32-.11c.95.51,2.43.97,3.52.96l16.1-.06ZM430.25,25.32l-7.91.12-8.9.29-17.16,7.83c13.28.8,22.62-3.62,33.96-8.25ZM298.55,27.56l7.66-.55c-2.22-1.1-4.4-1.22-6.93-1.12l-9.76.38c3.09,1.26,5.95,1.51,9.04,1.29ZM228.1,39.43l-2.9.43c-1.29.19-2.19.49-2.9,2.03l4.74-.2c-.1.61-.59,2.17-1.04,2.8-.39.55-2.06.61-3.22.67-.88-.16-.83,1.17-.01,1.11l13.35-2.44c3.43-.63,7.18-.27,10.66.19l-23.69,5.18,1.72,4.33,12.7-3.42,12.56-3.6-6.04-6.18.75-.14,6.19,6,8.17,1.29-23.09-20.46-5.01.71,3.41,3.96c-1.66-.9-2.72-2.08-3.87-3.19-.66-.64-3.18-.33-3.51.58l-2.57,7.15,6.29-1.12-2.41,3.71s-.07.15-.3.62ZM297.55,28.12v.53s12.5.04,12.5.04v-.53s-12.5-.04-12.5-.04ZM108.35,30.16c6.36.04,11.89,2.34,17.72,3.99-.57-.86-1.59-1.49-2.71-1.9-10.2-3.69-21.04-4.73-31.69-2.5-3.19.67-6.17,1.62-8.54,3.36,5.09-1.61,9.43-3.05,14.42-3.02l10.79.06ZM226.36,60.48l-6.11-16.84-.61,2.35,3.63,10.32-.53.43-4.03-11.45,6.31-16.21-2.23.38-4.81,12.36c-1.54-.77-2.33-.56-2.66.43-.16.5.25,1.24,1,1.73l4.68,13.79,2.3,1.55-.14-2.77c1.05,1.89.88,3.88,3.2,3.93ZM221.56,29.9c-.77-.03-1.44.31-1.6.74l-3.55,9.28c-.06.19,1.1.62,1.17.43l3.98-10.46ZM313.55,29.66h-12.75v.5h12.75v-.5ZM210.63,52.44l8.51-21.97c-.27-.16-1.65-.33-2.05-.05s-.79,1.07-1.06,1.72l-7.68,18.98c.67.5,1.53,1,2.28,1.33ZM297.66,54.19l7.06-16.64-4.86-7.45-.41.36,3.51,7.18-7.04,12.93c-.48.89-.71,1.79-.72,2.58s2.17,1.71,2.46,1.04ZM60.57,51.16c-4.54,7.31-8.02,14.75-11.2,23.22l42.71-8.64c1.33-.27,4.13-.82,4.36-1.99l.71-3.65-10.84.33c-5.67.17-11.26.24-16.79.2l.28-.43,14.53-.25,12.57-.54c2.7-7.75,5.43-15.17,8.62-22.5l-1.55-.49,2.1-.65,2.14-5.02c-17.8-.44-35,7.66-47.42,19.93l-.23.48ZM103.89,63.04c1.42-.36,3.53-2.81,4.89-2.96,3.49-.31,6.27-1.27,9.32-2.85l8.63-4.47c.51-1.35.06-3.69,0-5.09l-.62-12.64c-5.03-1.9-9.72-3.13-15.02-3.95l-2.94,1.8c-3.84,8.73-7.94,17.33-10.12,26.77,3.22-7.68,5.53-15.66,9.5-23.08l-7.35,19.65-2.67,8.43,6.38-1.62ZM317.14,32.56c-1.18-.98-2.39-1.43-3.52-1.42l-12.12.04.95.98,11.58.02,3.12.37ZM91.91,31.76c-4.43.11-8.15,1.81-11.24,3.88l11.24-3.88ZM186.62,38.43l27.06-5.17c.61-.12,1.32-.92,1.4-1.43l-20.01,3.35-12.07,2.21c.68.77,2.2,1.31,3.63,1.04ZM181.24,37.02l22.78-4.21-.86-.26-25.42,2.91c.91.72,2.44,1.37,3.5,1.57ZM322.05,33.16h-18.75v.5h18.75v-.5ZM211.61,36.68c1.46-.27,2.45-.76,2.41-2.7l-26.7,5.03,3.03,1.65,21.26-3.98ZM327.44,36.1c-3.09-1.71-5.55-1.64-8.38-1.61l-15.23.17,1.17,1.53,22.44-.09ZM180.64,39.91c1.89.68,4.01.74,5.75,1.07,5.2.99,9.37,4.45,14.83,5.03-8.87-4.11-17.66-7.58-27.28-10.67l.99,1.18c-1.22-.19-2.44-.3-4.01-.11l9.73,3.5ZM228.05,38.22l1.13-2.08-4.59.71-1.27,2.77,4.46-.91.26-.49ZM305.05,36.66v.5h25.25v-.5h-25.25ZM212.3,39.32l.68-2.25-20.74,3.98c1.12.71,2.22,1.17,3.26,1.54l16.8-3.27ZM336.15,40.08c-5.5-2.89-11.08-2.01-17.61-1.96l-13.95.1c2.7,2.11,5.28.39,7.83,1.07,1.8.48,3.77.16,5.63.22l18.11.58ZM362.6,46.68l-2.9-5.4-6.6-1.53-1.17,3.3,10.67,3.64ZM200.58,44.63l10.37-2.18.77-2.46-15.03,3c1.27.76,2.94,1.49,3.89,1.64ZM226.2,42.3l-4.1.65-.45,1.53c-.09.3,4.76.49,4.55-2.18ZM208.49,48.46l2.17-5.25-8.73,2.06,6.56,3.19ZM377.52,48.31l11.84-.75c-7.53-1.84-14.49-3.03-22.53-4.06l2.91,5.27,7.78-.47ZM155.34,53.23l12.48-.22-12.06-8.67-6.91.57-7.3.6c4.7,3.31,8.84,5.42,13.79,7.73ZM216.9,47.48l-1.92-3.9-1.78,4.6,3.69-.7ZM223.25,48.48l18.87-4.18-4.53-.16-15.05,2.91c.19.41.75,1.55.71,1.43ZM60.5,50.13l5.51-5.59c-7.33,5.09-13.8,10.7-19.98,17.2,3.55-2.18,11.27-9.74,11.66-9.39l.69.6,1.82-2.44.3-.37ZM229.52,55.43l28.7-6.98c-2.75-.97-6-1.77-8.88-.98l-23.38,6.39c.32,1.47,1.74,2.01,3.56,1.57ZM212.47,51.09l6.27,2.81-1.83-5.82-3.95.88-1.6,4.09,8.37,4.22c.19-3.27-4.41-3.25-7.27-6.18ZM247.18,61.36l44.84-4.7,24.55-2.39,6.46-.52,5.51-.44,7.51-.55,5.99-.43,9.49-.57,6.06-.41,16.46-.64,7.48-.4,10.36-.17-.16-1.93-10.66.64-6.53.33-15.49.96-5.49.4-6.01.45-7.99.57-5.51.43-7.49.57-5.51.44-6.99.56-5.49.45-6.55.53-56.49,5.13-.47,1.75c-.11.39,1.53.01,2.13-.05ZM414.48,50.06l-8.89-.87-12.85-.55-.04,1.57,21.79-.15ZM305.3,63.63l9.72-.91,5.07-.44,5.45-.47,7-.57,4.99-.42,8.99-.58,5.52-.41,9.48-.56,7.52-.45,9.78-.4,8.18-.31,4.68-6.98-15.93.22-10.91.57-9.74.42-6.59.43-8.48.55-5.99.45-7,.53-6.46.51-37.21,3.56-5.24.49-33.38,3.67-2.27,7.68,42.52-4.58,9.54-.96,10.75-1.02ZM431.39,77.6l2.8-3.38-6.41-16.68c-1.6-4.16-5.49-5.99-9.67-6.07l-25.45-.47-4.39,6.91,18.78-.4,13.22.35c2.69.07,4.44,1.68,5.58,4.05,2.42,5.07,4.04,10.11,5.55,15.68ZM294.93,54.61l-.51-1.95-4.85-.67.94,2.79,4.41-.17ZM44.52,69.11c.16,1.3.96,2.85,2.08,3.69l8.39-17.2-10.96,9.5.49,4.01ZM48.46,74.46l7.64-17.83c-3.85,5.1-5.77,10.76-8.52,16.14-.25.49.52,1.93.88,1.68ZM409.55,58.66h-21.75v.5h21.75v-.5ZM423.02,72.75l2.04,4.3-4.17.5c-.09.66,1.02,1.84,1.53,1.7l7.94-2.13c-1.35-5.21-2.95-9.89-5.08-14.66-1.42-3.17-4.25-4.41-7.9-3.65l-2.31,3.76,2.57-2.29,4.04.11-1.17,2.96,1.07.27,4.77,12.37-3.35-3.25ZM39.01,65.43l1.45-.6c.28-.12.06-1.3-.1-1.58l-2.08-3.96-6.17.49-5.6.68c2.42.27,4.53.05,7.17-.21,2.75,1.64,3.06,5.24,5,5.43l.33-.25ZM299.71,81.45l2.23-4.13,11.58-1.16,11.53-.97,10.89-.76c2.73-.19,5.68,1.46,8.39,1.95,3.38.61,6.78.14,10.18-.11l6.54-.48,6.5-.48,7.5-.55,6-.43,8.97-.6,5.53-.4,8.98-.58,6.06-.39,4.96-.32c-.79-2.13-2.26-2.83-4.19-2.8l-32.52.59,7.38-10.82-10.38.39-10.22.43-6.09.41-9.47.58-5.99.43-8.01.56-5.5.43-6.01.48-10.49.92-26.02,2.54-45.58,4.88,8.51,14.67,5.54-.74,6.58-.51,5-.42,6.99-.58,5.01-.42,6.99-.58,5.03-.41,7.63-.63ZM158.72,82.27c4.72-2.33,9.84-3.95,14.37-6.54,3.98-2.27,7.39-4.22,11.98-5.18,12.97-2.7,25.83-4.61,38.99-6.38l19.68-2.38.41-1.99-7.1.74-5.13.53c-20.5,2.1-40.62,5.24-60.62,10.81-6.18-1.75-12.3-3.05-18.88-4.18l-28.89-4.99-13.66-1.92-10.06,8.11-7.42,6.39-.45-.47,12.09-10.57-4.93,1.09-2.59.41-47.54,9.58c3,2.23.02,10.03-3.96,12.49l-6.62-8.31,1.54,11.87,14.91-2.96,28.13-6.28c1.25-1.36,2.61-2.73,4.74-2.83l-4.3,3.97c-.15.14-.68.87-.68.85s-.33-.61-.59-1.1l-27.58,6.18-15.14,2.99-1.62-12.95c-.19-1.55-1.46-3.15-3.02-4.56l-.26,4.95c.19,5.9-1.06,11.45-4.36,16.55l-.11,18.7-.47.46-.14-9.45-1.75,1.42c.82,9.73,1.26,19.22,1.54,29.01l.85,6.19,46.23-4.68c-.3-4.13-.21-8.01-.05-11.88l.31-7.55.4-.27-.12,9.53c-.04,3.43-.42,7.09.19,10.18l5.82-.16c2.76,4.36,4.87,8.36,7.02,12.72l.22-4.74c-1.14-13.69-1.84-29.83,2.43-42.44l-12.71,1.86c4.43-7.28,8.53-14.26,14.23-20.5l-12.96,19.62,11.86-1.72c3.77-9.92,13.87-18.32,24.24-17.05,5.51.67,10.99,1.62,15.31,4.54l-5.37-1.11c-4.28-.88-8.54-2.98-13.11-2.67-12.03.82-20.31,11.85-22.57,23.47-1.54,7.92-2.02,15.87-1.48,23.97l.35,5.33,1.11-8.33c.74-9.82,1.85-26.71,9.27-31.71,6.59-4.45,12.75,6.37,15.58,13.62l1.02-.28c.12-.03.04.21-.04.31l-.59.68,4.1,11.68,14.47-6.1c.43,1.52.31,3.63-.35,5.19l-12.63,6.28c3.55,12.93,5.98,25.91,7.81,39.19.59,4.23,1.25,8.03,2.56,11.91l6.81-3.42c1.68-6.89,2.52-13.55,3.45-20.37.18,6.79-1.3,12.94-2.8,19.72l1.1.34c1.05.33,3.17-17.75,3.57-23.83.64-9.66,1.38-19.3.35-28.95-.9-8.43-5.01-16.04-7.21-23.94l-3.37.65c.58-.58,1.04-.9,1-1.19l-.24-1.44c-.07-.98-.07-.96.03,0l1,1.69c.15.26,1.25-.3,1.16-.55-.43-1.04-1.24-3.21-1.42-4.48l2.62,5.01.48-.29c.05-.14.05-1.35-.12-1.8l-3.08-7.97c.64-.82,1.76-1.82,2.67-2.27,4.73-2.35,8.81-5.2,13.96-6.64l-13.44,7.16c-.78.41-1.94,1.08-2.11,1.73-.22.84,1.97,7.06,3.82,9.77-.05-3.55-3.49-8.09-1.1-9.26l9.53-4.68,8.88-3.9.51-.2ZM393.11,63.6l2.14-3.85-7.04.35-2.58,3.47,7.48.03ZM403.75,63.3l2.1-3.55h-9.53s-2.32,3.84-2.32,3.84l9.75-.29ZM413.15,63.13l2.6-3.25-8.69-.1-2.2,3.45,8.29-.1ZM32.51,73.18l4.66-7.17-3.46-5.07-15.21,1.66c-.96,1.35-2.24,3.44-2.77,4.98l3.56,6.34,13.21-.75ZM15.07,66.95l2.85-5.47c-3,1.2-4.21,3.24-5.62,5.6l2.77-.13ZM419.94,76.01l2.67-.43-4.52-8.07c-.92-1.64,2.18-5.94.79-5.84-.23.02-.99.17-1.12.36l-2.43,3.6-30.38.69c-.65.01-1.82,1.24-2,1.87l31.68-.21,5.31,8.03ZM149.24,102.74c6.81-7.56,13.45-14.21,21.23-20.13,3.61-2.75,7.43-4.13,11.96-4.71l59.08-7.58,2.29-7.69c-17.29,2.1-33.48,4.06-50.12,7.11-14.39,2.64-16.24,3.8-27.45,12.11-7.63,5.66-14.54,11.5-22.07,17.83l5.07,3.05ZM400.55,64.16h-15.75v.5h15.75v-.5ZM438.76,74.05c-2.33-3.83-3.83-6.24-6.87-9.11l2.9,9.11h3.97ZM39.38,65.78l-.42.02c-.77.38-1.46,1.18-2.09,2.13l-3.98,6.06-4.88.3-9.28.43-3.13-5.69c-.28-.51-.82-1.25-1.29-1.28-.38-.03-1.32.57-1.45.81l5.54,6.83c2.98.75,6.17-.06,9.08-.12l6.53-.12c2.57-3.08,4.79-6.05,7-9.31l-1.63-.06ZM48.84,79.05l.71-.37c.2-.11.03-1.21,0-1.51l-8.65-9.29-5.05,6.35,9.31,12.57c2.44-2.24,4-4.47,3.68-7.75ZM169.61,107.94l-2.2,4.28,3.67-3.04c-1.45,3.29-4.59,4.03-5.54,7.19l23.72-22.08,8.26-.81,7.52-.33,8.46-.34,10.51-.57c11.54-.62,14.16,1.47,27.99-4.12,1.36-.55,2.49-1.38,3.95-1.48l5.58-.38,6-.46,7-.54,6-.46,7.49-.57,5.49-.43,7.22-.54c-1.26-2.09-3.07-.84-4.68-.73l-7.51.49-5.5.45-6.99.58-5.01.43-6.5.55-5.5.46-6.53.55-45.45,4.1-19.47,2.16-9.81,9.83-.48-.44,9.74-9.62c1.33-.92,4.69-.94,6.3-1.12l16.7-1.79,27.96-2.55,11.83-1.11-8.47-14.6-1.55,5.25,2.35-.36,3.99,5.33c-22.23,2.42-43.61,5.12-65.31,9.14-4.92,3.64-8.77,7.39-12.93,11.78l5.13.64-3.12,4.92-.33.32ZM239.45,75.16l.45-2.95-21.37,2.88,1.39,2.77,19.52-2.7ZM356.55,79.05l7-.53,6.49-.5,6.57-.53c1.08-.09,2.73.02,3.47.55l-.82,8.86,4.21-.48-1.68-1.16,1.1-7.44,10.14-.83,7.03-.46,5.96-.35c3.91-.23,7.57-.53,10.43-3.42l-10.44.57-6,.43-8.47.57-7,.48-7,.5-7,.51-6.5.47-7.5.54-6.06.43-4.72.69-4.47,2.17,9.7-.64,5.55-.42ZM27.58,101.02l-.07-14.96.54.35-.02,16.66c.2.21.77.84.83.66l.31-1.05-.11-17.48-4.48-9.07-1.31.75c-.25.14-1.05-.64-1.34-.65l-3.81-.11-2.76-2.96c-1.85,3.33-3.16,6.41-3.99,10.03,1.39-1.26,2.88-2.36,4.4-1.16,4.58,3.59,6.98,14.71,8.27,21.69.25,1.35,1.25,2.52,2.32,3.52l2.75-2.36-2.32-1.48c.16-.05.79-1.62.79-2.37ZM413.43,95.45c4.97-.12,9.1-1.27,14.11-2.7l-9.77-19.3-5.48,2.96,13.52,15.97-12.38,3.07ZM447.77,143.37c1.62.02,2.85.02,3.09-.47l.92-1.89-.7-44.12-1.28-.31c-.15-.04-.1-.17.03-.26l1.22-.87-11.87-20.74-4.03.02,4.03,12.36,2.98,12.3,2.12-.79.31.35-2.44.92,3.15,23.45,2.46,20.07ZM200.19,80.53l18.73-2.56-1.47-2.77-18.88,2.58,1.61,2.75ZM303.16,83.09l7.91-.6,4.98-.43,8-.56,5.49-.46,6.11-.37c1.34-.08,3.69-1.21,3.07-2.29-2.25-3.93-5.75-3.23-9.2-2.92l-6.46.59-5.51.48-5.55.49-6.49.58c-.68.06-2.29,0-2.84.29-.51.26-2.27,3.24-1.9,4.32.18.53,1.72.94,2.39.89ZM381.59,87.7l17.98,7.44,17.29,8.27,16.97-4.46,6.99-2.16-1.73-7.15-4.65-14.52-3.35,3.67-3.24,14.74-13.7,3.17-26.47-8.68c-2.03-.67-3.9-1.48-6.07-.33ZM345.22,77.28l-7.73-1.73,1.92,2.18c.36.41-.13,1.62-.4,2.49l6.2-2.93ZM33.34,76.24l-5.97,3.5.69,1.17,5.97-3.5-.69-1.17ZM382.75,84.93l31.23,9.29,10.36-2.32-12.87-15.26-4.97.35-7.91.53-8.5.53-6.43.52-.91,6.36ZM182.16,82.97l17.06-2.39-1.76-2.7-17.8,2.58c.68,1.09,1.54,1.94,2.49,2.5ZM162.89,100.28c2.05.46,3.81.51,4.68.04,4.2-4.29,7.91-8.05,12.81-11.45,20.87-3.86,41.42-6.52,62.7-8.86-.07-.78-1.17-2.3-1.98-2.59l-31.5,3.76-28.72,4.24-3.18-3.03c-.59-.56-2.42-.26-3.17.39l2.41,4.24-14.06,13.27ZM288.82,85.05l-5.77.44-7,.53-6.5.49-6.53.5-6.54.5c-1.03.08-3.78.48-3.87,1.51l-.86,9.62,13.7-.72,104.64-10.05,8.27-.81.81-8.8-8.18.54-5.95.45-7.5.56-5.51.43-6.5.49-15.36,1.14-4.63.37-7.5.57-6.01.45-6,.45-10.97.85-6.25.48ZM427.45,90.84l2.84-12.88-8.41,1.99,5.57,10.89ZM158.4,83.03l-9.65,4.36-9.4,4.72,2.34,7.53c.65-.15,1.95-.57,2.39-.93l23.97-19.52-9.2,3.56-.45.28ZM30.01,85.55l3.54-.93-.03-3.91-4.42,2.25.91,2.59ZM24.57,106.84c-2.39-2.74-2.48-16.05-8.47-23.61-.35-.44-1.89-1.1-2.28-.74l-1.45,1.32c1.61.39,3.08.76,3.73,1.71,4.31,6.33,5.08,13.96,6.61,21.6l1.55-.02.31-.27ZM151.56,101.55l7.37.35,16.13-15.13-2.75-4.43c-.74.63-1.21,1.02-1.15.97,1.15.64,1.72,1.14,2.23,2.4.28.68-.62,1.64-1.37,2.37l-12.77,12.49c-2.01.27-4.5.14-6.63-.14l-1.06,1.11ZM21.12,108.44c1.63-1.83-1.52-13.58-3.56-18.8-.7-1.8-2.18-4.41-4.09-4.66-1.63-.2-2.94,2.52-2.78,3.62,2.13-1.29,4.12-.22,5.18,1.87,2.88,5.66,3.8,12.07,4.88,18.19l.37-.21ZM158.74,99.96l13.95-13.6c-.23-.72-.56-1.64-.89-1.53l-1.17.38-15.9,14.52,4,.23ZM30.27,94.77c1.45-3.04,1.91-4.78,2.76-7.75l-3.14.74.38,7.01ZM223.98,122.41c-.93.6-1.92,1.29-3.66.67l-46.36,49.56-11.82,2.38c6.8-.2,12.67-1.39,18.92-2.27l5.28-.74,7.78-1.1-5.57-.2c-2.17-.08-4.77,1.65-6.98-.53l18.6.12-10.61,1.91-6.56.87-30.34,4.33-1.21-.64c-.21-.11-.25.64-.33.86-4.34.69-8.7.58-12.65,1.99l-7.97,4,3.59,2.6,25.64.8,13.58.35,3.99,6.19,6.81-.25,21.67-26.36,4.88-7.19,16.04-25.45,5.26-7.44-2.99,5.46.37.33,5.22-7.06c6.08-7.09,13.48-12.48,19.91-18.85-4.67,2.98-8.21,6.48-12.11,9.6l-.55-.52,14.45-11.97,4.07-3.16,103.53-9.2,6.2-.55,10.46-.94c9.26,3.92,18.43,7.15,27.08,11.69l-27.08-10.87-2.49.11,20.54,8.7,8.59,4.41c1.97,1.01,3.59,1.48,5.42.41l-5.18-2.71c2.97.46,5.37,1.92,7.56,3.52l1.16,2.78-.59-.09-1.52-2.76-4.76.6,6.08,19.66,8.45,2.08-7.75-19.41c5.71,9.87,8.96,20.76,11.79,31.79l1.58,6.17,4.66-.34c6.24-.46,12.17.7,18.54-1.21l-14.53-.29-4.97.26-8.38-22.51-5.94-14.02c-.94-2.21-2.49-4.3-4.7-5.33-11.14-5.21-22.09-9.99-33.63-14.34-2.35-.89-5.53.03-7.81.25l-6.57.63-9.98.97-10.5,1.02-9.99.97-10.07,1-55.88,5.54c-5.39.53-10.77.54-15.87,1.79l-14.9,10.37-2.66,1.47-9.27,6.75c-1.28.93-2.9,1.47-2.93,3.36ZM251.01,98.62l.6-9.14-10.29,3.02-3.25,6.82,12.93-.71ZM10.54,112.89l1.2-9.99c.95,1.75.44,3.1.45,4.83l2.9-14.18c.22-1.06-.99-2.47-1.65-2.17l-1.05,10.38-.7-.09-.36-7.64c-1.81,5.03-2.27,9.86-2.58,14.96l1.58,4.16.22-.26ZM318.66,106.35l3.07-1.44,1.21,3.87-3.71.48-.32,1.58c-.17.85-2.65-.7-4.1,1.63l-3.31.37c1.95.92,4.05.31,5.37-1.3.72.09,2.31.3,2.51-.18l.74-1.75,3.56.62.12-2.26c.02-.37,2.39.53,2.98-.26l.81-1.08c.98.13,1.25.19-.12,1.33l2.77.02c-.16-1.79.28-2.58,1.38-3.15,1.25-.65,2.48.4,3.23,1.19.93-.5,3.33-.83,3.52.1.38,1.89.94,2.55,2.47,2.86,1.05.21,2.23-.61,2.4-1.63l.4-2.5s3.42-1.43,6.34-1.07c.27.03-.34,1.21-.61,1.27l-2.92.64c2.68.88,5.57-1.65,7.73.32.78-.97,2.37-1.38,3.86-.96l.34-1.91c.1-.53,2.71.78,3.45-1.34,1.65-.35,4.34-.07,6.29.16.56-.17,1.53-.85,2.05-.72,1.28.31,2.45,3.16,2.74,1.62l.25-1.33,2.83.49c.38-.42,1.28-1.34,1.75-1.57,1.1-.34,2.97-1.21,3.88-1.81,3.18,2.24,4.38-.34,7.16,2.37,1.45,1.42,5.03,3.55,6.03,3.72.57.1,1.77-.89,2.37-.95l6.59-.73-13.77-6.22-5.68.61-.4-.64,4.3-.28-1.09-.78c-2.41.34-4.63.51-6.73.32l5.33-.82c-2.53-1.58-6.01.73-9.72-.25l6.88-1.01-7.91.09c1.92-.89,4.44.53,5.26-1.81l-113.54,9.99-5.14.46-1.1.9,5.15.26c-2.25.45-5.1-.16-6.69,1.02l-3.05,2.26,10.24-.33-8.07.86c-1.49.16-2.96-.03-4.09,1.23l5.66-.38,5.39-.52c2.44-.23,4.66-.78,7.14-.12l-20.29,1.98c1.69,1.03,2.07,1.11,3.38,2.38-2.48.74-3.87.54-5.51-.08,0,.67.06,2.38-.5,2.46l-2.2.33,2.6.17c.4.03,1.51.41,1.35.77l-.51,1.1-3.72.63,4.88.27,1.41-2.09-1.88-.37c-.42-.08-.29-1.91.14-1.95l2-.21c.71-.08,1.81-.73,2.5-1.45l11.64-.59c.79-1.27,2.92-2.17,4.01-1.76.35.13.99,1.4.66,1.43l-1.54.13c-.3.02-1.18.28-1.49.38-.19.06.09.61.25.71l.9.56c.32.2,1.13.9,1.36.6l.94-1.2-.35,2.71c1.48.71,3.16,1.21,5.32,1.35l.38-3.51c1.34.59,2.87.46,3.03-1.05l-3.65.3c.77-1.27,2.15-1.04,3.52-.55.43-2.04,3.45-2.36,4.18-1.34.2.27-.43,1.71-.17,1.92l1.14.9.19-1.84c.12-1.14,2.13.34,5.38-1.32.35-.18,1.79-.86,1.84-.46l.26,1.81,3.83-1.05,4.44-1.5.28,2.26,1.24-1.65c.17-.22,3.24-.11,3.25.34l.05,1.89.79-1.53c.33-.65,3.74.51,3.7-.57l-.09-2.39,2.61-.05-.55,1.26c-.08.17.63.47.71.3l.47-.98c.27-.57,1.28-1.31,1.89-1.23.51.06,1.96.51,2.43.29ZM176.07,115.93l11.26-.53,9.26-.19,40.23-15.81,3.57-6.65-7.84.24-13.78.37-10.93.57-11.06.45-6.91.46-22.58,21.16,8.78-.09ZM18.62,104.09l-1.89-7.21c-1.17,4.21-2.02,7.16-2.37,11.87l4.26-4.66ZM422.82,115.04l20.14-3.54-1.97-14.04c-1.49.31-2.21,1.45-2.76,2.78l-.55-1.55c-.1-.28-.99.16-1.32.37l-18.95,4.88,5.4,11.08ZM123.89,161.51c1.08.15,2.63.33,2.58-.08l-.23-1.87c-.72-5.81-.6-11.55-1.79-17.29-1.76-8.46-4.21-16.39-6.94-24.56-1.53-4.59-3.64-8.86-5.98-12.97-1.73-3.04-4.52-3.6-8.11-3.13,1.45-1.14,2.82-1.02,5.09-.61-.98-.95-2.63-2-3.94-2.31-5.65-1.33-10.02,10.71-10.46,18.03,1.54-3.8,2.32-7.58,4.77-10.55l-.69,3.02c1.98-2.35,3.55-4.61,6.52-4.89,6.73-.63,11.44,11.06,13.52,18.2,3.72,12.8,5.06,25.78,5.67,39.01ZM161.24,123.17l12.36-.22,47.95-1.91,30.28-21.28-9.75-.08-25.05,9.93-15.11,5.92c-4.07,1.59-7.94,1.85-12.42,2.13l-5.93.36-19.8.48-2.39,4.25-.13.41ZM164.25,140.66c-.9.32-1.98.45-3.17.5l-8.02.34-6.89.28-.16,4.4,9.01-.18,5.53-.32c4.26-.25,8.25-.16,12.41-1.08l26.16-5.78-8.88.23c.86-.33,2.56-.39,3.78-.49l5.56-.48,6.35-.95,13.43-14.2-49.26,1.97-12.01.33c-2.49,3.4-4.51,7.15-7.59,9.78l7.05-10.3-4.57-7.98-8.47-15.92-2.06.17c1.57,5.43,3.55,9.93,3.73,15.42l-4.82-12.06c-.5-1.24-1.17-2.85-1.82-3.59l-.71.23,4.82,14.61c1.44,4.38,2.67,8.67,2.74,13.25l.14,10.47,1.81-1.74.49.4-2.64,3.18,8.38-.32,9.69-.15ZM265.98,101.5l5.64-.66-8.1.14c-1.45.03-2.89.47-3.98,1.41l6.45-.9ZM252.51,129.28c.75,3.33,3.79,4.29,4.06,7.55l-7.19-7.14.32-8.74-3.38-1.04c-1.14-.35-3.78-.28-5.02.06l-5.78,5.61c-4.64,6.19-8.38,12.29-12.67,19.19l26.22-3.16c5.62-.68,11.53-1.14,16.9-2.49l21.64-13.4c2.05-1.27,4.84-1.04,7.36-1.29l66.01-6.35c2.4-.23,4.82.23,6.72,1.43l13.32,8.45,7-.46,5.58-.42,8.46-.6,6-.42,6.47-.44-4.99-16.88c-.49-1.66-1.78-4.13-3.6-4.4-3.64-.53-7.87-.53-11,1.53,3.98,5.6,2.31,13.6-4.06,16.56-3.04,1.41-6.42,1.1-9.34-.79-2.05-1.32-3.94-3.97-4.48-6.95-1.06-5.87,2.21-11.29,7.79-12.75l-4.52-.61,7.8-.12c-3.67-1.05-6.96-.49-10.6-.06l-4.29,8.46,1.82-.83.02,7.89-.44-.23-.28-6.87c-1.17,1.07-1.09,1.22-1.76,2.56l.37-3.32-3.22-.64c-.69-.14-1.63.52-2.59,1.18-1.36.93-4.18.32-6.03.45-1.37.1-3.68,1.02-4.77.63-2.06-.74-2.98-.74-4.72.28-1.55.91-4.08.44-6.11-.2l-1.65,2.17-11.95.29c-.49.01-1.6-1.06-1.93-.75l-1.31,1.24-11.62.95c-2.08-1.01-4-.75-5.52.79l-14.66.74c-1.23,1.67-3.14,1.86-5.18,1.54-1.55-1.66-3.37-1.6-5.07-.05-1.9,1.74-7.03-.86-7.39.11l-.53,1.44-3.36.4c2.56,5.21,1.64,11.72-3.24,15.33-3.2,2.37-7.32,2.77-11.1.96-2.82-1.35-5.24-4.35-6.01-8.01-.82-3.88.43-7.71,2.81-10.5,2.67-3.11,6.32-3.46,10.26-3.87l-10.53.22c-1.76,2.84-3.64,5.25-4.76,8.44-.61,1.72-.68,5.55-.28,7.33ZM160.82,122.28l2.37-3.83-14.25-14.69c-.74-.76-1.8-1.27-3-1.58l11.44,17.45c-1.91-.94-2.48-2.47-3.87-3.91l4.61,8.82,4.03-.02c-.75-.28-2.21-.62-2.53-1.01l-2.72-3.41.47-.46,2.27,2.9c.09.11.55.37.66.3l.46-.32.07-.25ZM169.59,107.37l1.98-4.08-.84-.13-1,2.14-.55-1.46c-.07-.19-.89.08-1.13.07l-16.34-.45,11.02,11.65-11.25-10.21c4.11,4.76,8.18,8.73,12.4,12.86l9.9-.38,15.04-.44,7.94-.47c8.03-2.98,15.73-5.76,23.34-9.31-7.9,2.29-14.95,5.61-22.67,8.42l-4.88.41-13.29.38-11,.51c-2.21.1-4.78.88-5.62-1.36l4.46-4.84,2.2-3,.29-.32ZM362.84,108.55l.35-2.25,2.37.46c.31.06.75-.69.96-.98l3.59.65-.27-3.59c-1.15,1.29-1.63,1.77-2.61,1.88l-5.24.6.45,2.59c-1.23-.09-2.4-.04-3.74.91l4.13-.28ZM381.34,119.64c2.23,1.82,5.16,2.6,8.03,1.76,3.58-1.04,5.66-4.43,6.11-7.62.52-3.74-1.08-7.35-4.18-9.29-3.69-2.31-7.95-1.4-10.67,1.73-3.54,4.06-2.52,10.78.72,13.43ZM117.95,206.48c4.99-16.72,5.31-38.3,3.77-55.88-1.14-12.96-4.44-34.59-12.82-43.23-2.08-2.15-5.2-2.27-7.27-.02-6.16,6.7-8.53,22.21-9.32,32.21-1.69,21.27-.42,49.73,7.3,69.42,1.55,3.95,3.63,7.64,7.13,10.02,4.66,3.18,9.22-5.87,11.21-12.52ZM17.11,115.37l1.43-2.78c.92-1.78.96-3.78.34-5.45-.57.48-1.78,1.62-1.78,2.15v6.08ZM24.83,107.14l-.32.19-1.48.73c-.4.2-.18,1.66-.07,2.12l.34,1.44c.07.27.62.36.89.41l.33-.13,2.65-.48c-.03-1.06-.02-2.62-.39-3.12s-1.22-.82-1.96-1.16ZM15.67,113.88l-3.44-5.32c-.26,2.54,1.48,4.52,3.44,5.32ZM21.54,108.59l-.7.36c1.64,16.03,2.54,32.89-.82,49.13-.52,2.52-1.6,5.05-2.94,6.98l-.6.87c-.72,1.03,2.98.71,4.57-5.77,3.51-14.31,3.03-34.07,1.32-48.89-.13-1.12-.38-2.16-.82-2.66ZM10.49,113.43l1.56,4.67,4.93,1.44-5.25-5.6c2.69,1.38,4.47,3.37,6.19,5.69l1.27-5.71-.41-.31-1.11,3.38c-2.49-1.95-4.11-3.44-6.14-5.71l.56,3.27-1.38-1.29-.23.17ZM294.89,115.43c-1.05-2.24-4.66-1.22-4.39-2.49l.34-1.61-1.13-.3c-.31-.08-.38,1.42-.26,1.74l.96,2.56.92-1.21c.11-.15.86.08.78.25l-.56,1.25,3.33-.19ZM25.09,112.31l-.53.04c-.08-.03-1.11.48-1.1.79l.16,3.08,3.94-.17v-3.94s-2.47.19-2.47.19ZM441.57,115.06l2.88,10.74-1.38-13.53-19.53,3.51c1.53,1.79,3.05,1.63,4.98,1.33l13.06-2.05ZM251.31,121.23c2.61-2.84,4-5.84,5.51-8.8-2.6,2.65-4.69,5.74-5.51,8.8ZM13.47,120.45l-3.26-1.41-1.62-5.64-.31,10.16,2.05-3.36,3.14.25ZM18.76,129.47l1.97-2.36-.84-12.58c-1.84,5.91-2.71,9.71-1.13,14.94ZM263.46,117.75c3.38,1.62,3.37,5.58,2.49,8.44-.81,2.61-2.79,4.77-5.85,5.64,2.16,2.01,4.7,2.52,7.86,1.88,2.01-.4,4.16-2.64,5.2-4.89,1.9-4.11.56-8.22-2.97-10.81-2-1.46-4.47-2.27-6.71-1.17-.06.25-.14.86-.32.81l-1.08-.3c-5.03,2.62-6.27,9.41-2.66,13.73,3.08-.54,5.28-2.82,5.89-5,.94-3.33-.08-5.83-1.85-8.31ZM446.76,140.53l-3.08-13.49-2.66-11.08-14.89,2.37,8,22.78,5.38-.07,7.25-.52ZM24.99,126.56l2.95-.26.13-4.6-3.65-.16.37-.39h3.19s-.44-4.63-.44-4.63l-3.77.34.81,18.21,3.99.07-.38-3.43-3.4-.44,3.23-.74.07-3.61-3.11-.37ZM425.66,119.49c-.19-.57-1.04-1.45-1.73-1.83l4.84,12.53.44-.33-3.55-10.36ZM274.71,128.25c1.12-3.25.71-7.38-2.18-9.65,1.81,3.13,2.2,5.98,2.18,9.65ZM275.91,138.77l18.22-12.18,16.91-1.96,9.03-.94,32.98-3.09,6.93-.63,5.18-.48c-1.31-.8-2.71-.9-4.2-.52l-6.46.6-65.94,6.35-21.31,13.63,3.33,2.2,5.34-2.98ZM17.44,129.86c-.65.86-.99,1.7-1.14,2.54l-2.88,3.71,3.94-3.13c.24-.19,1.45.18,1.49-.12l.2-1.81c.32-.67.55-1.08-.83.03-1.95-5.93.34-11.31-4.05-11.34l1.83,1.73-2.55.46,2.7.28-.37,3.02-3.1,1.84-2.43,2.7c2.79-1.3,5.7-1.95,7.18.09ZM369.09,121.23c-1.11-.62-2.91-.97-4.52-.83l-14.03,1.27-10.49.95-11.01,1.02-10.02,1-24.37,2.56-13.8,9.34c1.76.37,3.48.01,4.63-.87l8.65-6.7,7.9-1.32,19.5-2.04,10.55-.92,36.65-3.16.35-.31ZM121.22,126.76l1.01,2.92,12.09-6.26.26-2.31-5.2,1.94-2.67,1.17-5.49,2.56ZM251.55,121.66h-1v7.5h1v-7.5ZM369.44,121.43l-.48.5,1.27,1.37-2.27-1.09-27.38,2.44-12.04,1.01-11.01,1-22.55,2.53-6.05,4.8,26.5-2.58,2.14,1.82,21.58-2.24c.65-1.73,1.63-1.92,3.1-2.07l23.25-2.29,15.03,17.94,3.09-12.13c-4.93-3.13-9.49-5.62-13.66-9.35l13,8.33c3.24.38,6.66.19,10.04-.18l8-.49,6.54-.46,6.99-.49,8.32-.59,4.01,14.12.9,6.33c.26-.53,1.04-2.66.78-3.6l-4.8-17.78-5.24.47-6.47.54-6,.48-6.98.52-6.64.44c-2.12.14-6.08,1.31-8.07.05l-14.91-9.37ZM12.05,125.96c2.07-.06,3.45-.85,3.06-3.08l-4.12-.37c-1.53,2.13-2.6,4.06-2.56,6.65,2.03-.28,2.92-1.35,3.62-3.2ZM394.29,129.79l6.75-.5,5.14-.39,13.61-1.24c-3.31-1.53-6.61-1.21-10.3-.92l-6.95.55-7,.52-6.99.51-6.16.5c1.49,1.13,3.15,1.6,5.12,1.46l6.77-.48ZM363.25,128.57l1.81-.13c.26-.02.27-.62.17-.94l-22.67,2.23-1.51.13c-.27.02-.28.61-.18.96l22.38-2.25ZM13.29,133.54l1.53-2.11c-1.57-1.79-4.38-1.49-6.27.12l.51,3.63c1.43-.31,3.61-.77,4.23-1.64ZM366.12,129.71l-87.09,8.76,2,19.84,87.09-8.76-2-19.84ZM377.58,147.97l34.1-3.08,11-1.39-3.02-13.35-5.11.37-6.5.46-8.96.59-5.59.42-8.96.2-3.42,13.87-5.25.31c.4.88,1.14,1.65,1.71,1.6ZM262.16,186.3l2.79-1.71,1.79-9.14,1.43-7.65,11.72-1.45,79.06-8.23,9.1-.93,16.91-1.73c1.42-.15,2.24-.29,3.2,1.08l37.1-3.62c.73-1.31,2.24-4.26,1.73-6.14l-4.65-16.82c-.68.02-1.82.09-1.75.41l.33,1.46,2.56,11.15c-1.29,1.97-3.77,2.11-5.9,2.28l-6.98.56-31.55,2.88c-2.44.22-3.83-1.5-9.24-.39l-.46,2.37-89.24,9.09-.68-1.92-15.45,1.64c-.9,1.2-1.98,1.62-3.38,1.77l-5.05.53-7.55.79-39.38,4.27-2.97,3.99,1.14,5.64,58.82-6.01-1.95,11.95-15.25,8.68c4.54-.89,9.7-2.6,13.16-4.5l.58-.32ZM379.79,145.17l-12.14-14.34,1.46,15.26,10.68-.92ZM286.07,136.36l30.07-3.02c-.57-1.06-1.36-1.11-2.4-1l-23.68,2.33c-1.55.08-3.25.37-3.99,1.7ZM15.99,136.9l2.5-2.74-.88-.53-4.14,3.71.45,12.3.23,8.52.88.02-.08-19.09c0-.64.39-1.67.69-2.12.03-.05.2-.05.36-.06ZM15.88,137.75c-.08.59.21,1.76.59,2.3l2.56,3.65c.56-2.79.18-5.31-.62-7.96l-2.02,1.56s-.5.4-.51.46ZM28.57,138.47l-.04-2.79-4.04-.09-.02,2.95,4.09-.07ZM20,147.15c.86-3.8.83-7.5-.31-10.91-.04,3.21.75,5.99-.03,8.41l-.55,1.72c-.09.27.57.6.89.77ZM12.63,156.24l.46-.9-.14-18.92c-2.07,3.66-.51,7.59-.46,11.16l.13,8.66ZM10.7,148.34c1.22-3.85.99-7.49.6-11.22-1.89,3.61-1.41,7.58-.6,11.22ZM64.26,150.52l6.77.49,6.04.44-.6-12.73-46.74,4.7,2.36,6.9,21.96-.07,10.22.28ZM80.11,138.66l-3.14-.02.25,4.12,2.9-4.1ZM90.63,169.27l-.72-10.44c-.05-1.5.58-4.46,0-5.97-2.02-5.14-4.48-9.56-7.48-14.48-3.74,2.02-5.47,5.76-4.76,9.88l2.99,17.28,9.98,3.73ZM172.51,172.76l31.85-34.1-28.96,6.26-2.89,27.84ZM219.59,150.88l49.47-6.33c3.96-.51,10.82-4.28,8.68-5.97-2.77,1.42-5.1,3.86-8.06,4.24l-48.11,6.26c-1.31.06-2.81.83-1.97,1.79ZM24.33,139.07l-.03,3.52,4.41.03.03-3.52-4.41-.03ZM16.12,145.71l-.39-5.61c-.26,5.76-.27,11.34,0,17.33,1.75-3.95.64-7.92.38-11.72ZM221.03,148.3l48.58-6.23-3.07-1.96-10.03,1.46-34.27,4.25c-.7.8-1.48,1.98-1.21,2.48ZM267.89,157.07l11.51-1.02-1.12-14.92c-2.27.85-3.55,2.62-4.6,4.66l-5.8,11.29ZM446.85,143.39c-.16-1.26-.2-1.72-.52-1.75l-1.32-.11-11.69.41c-.03-.25.09.8.13,1.19.03.31,1.23.5,1.57.49l11.82-.24ZM29.68,145.68l-1.1-2.54-4.4-.06-.19,3.02,5.7-.41ZM265.39,157.28l1.43-.08,6.81-13.1-3.95,1.21-4.29,11.96ZM142.54,177.35l21.43-3.85,7.38-1.12,3.23-27.25c-3.53.53-7.01,1.4-10.5,1.45l-18.02.23-.35,6.38-.4,5.2-2.76,18.97ZM262.47,160.13c.69-.93,1.65-2.06,1.89-2.73l4.38-12.12-50.38,6.49-8.97,14.1,53.08-5.74ZM20.16,148.58l-2.11-2.49.73,9.66,1.39-7.17ZM25.51,153.06l.3-.35,3.69-.22c-.07-1.9.43-2.61,1.53-3.16l-4.11-.36,3.69-.46-.86-2.29-5.68.43-1.38,10.07,6.3-.57.63-2.88-4.11-.2ZM427.15,158.79l19.03-7.95c1.85-1.32,3.16-2.65,4.6-4.72l-9.24.39-12.12.33-1.38,5.77c-.74,1.97-1.1,3.94-.89,6.17ZM78.17,168.27l-16.14-6.37.31-.47,17.09,6.74c.13,1.23.51,1.01.73.11l-1.38-8.64-42.76-8.64,4.66,2.38,3.11,1.45c.9.42,2.19,1.26,2.99,1.94l32.19,13.45c.32-.68-.1-1.69-.79-1.96ZM69.27,151.79l-5.75-.48c-7.16-.59-14.08-.39-21.09.13l35.64,5.1-.69-4.32-8.11-.44ZM90.89,178.89c.27-1.39.29-2.49-.12-2.57l-1.55-.28c-6.33-2.1-12.21-4.52-18.31-7.29-10.26-4.92-20.15-9.64-30.86-13.75l5.06,2.89-.45.53-14.33-6.82-.37.45,14.99,7.75,46.48,21.82c.17-.48.29-1.74-.11-1.88l-1.39-.49c-15.2-6.73-30.19-13.45-44.95-21.03,9.35,3.54,17.8,8.13,26.86,12.16l19.06,8.51ZM428.96,185.74c12.55-5.48,16.88-20.34,16.57-33.76l-7.34,3.13c-.29,11.25-2.07,21.94-9.22,30.63ZM263.62,189.34l3.16-1.52,2.29-13.18c.24-1.39.18-3.25,1.37-4.25l44.55-4.78,7.29-.76c.37.35,1.8,2.33,1.62,3.31l-2.28,12.58c2.03-2.68,2.04-5.83,2.71-8.83.56-2.51.67-4.84.39-7.33l61.1-6.71c.33,2.82.23,5.83-.12,8.78l-.93,7.72c2.1-1.84,1.73-4.39,1.87-6.72l.52-8.75,38.57-3.78-1.27,13.54-1.73,4.17c.95-.97,2.29-2.94,2.56-3.95l1.27-15.4-38.01,3.68c-2.07-.98-3.92-.99-6.38-.74l-89.53,9.28-8.59.93-8.08.86-7.12.9-3.17,15.97c-.22,1.12-2.48,2.29-3.28,2.34l-.42.48-11.26,4.45c4.76.29,8.66-.76,12.52-2.06l.39-.22ZM31.12,165.53c2.27-2.96,2.97-6.53,3.27-10.03l-4.02-2.11c-.66,4.71-1.77,8.57-3.81,12.77,1.05.26,3.85.29,4.56-.63ZM13.18,157.88c-.28,1.33,1.3,3.84,2.68,3.87,2.96-1.6,2.99-5.29,1.92-7.65-.38,1.82-.92,3.02-2,4.24l-1.11,1.25c-.17.19-.72-.33-.85-.56l-.65-1.15ZM77.4,157.08l-15.09-2.03-.24.37,16.11,3.25c.41-.17-.22-1.52-.78-1.6ZM16.81,162.97c-4.27-.85-4.11-4.81-5.71-7.29.13,4.38,3.13,9.92,4.12,8.91l1.58-1.62ZM421.13,187.49l4.62-.56c9.14-6.39,11.23-20.17,11.49-31.39l-5.9,2.45c-.78,10.89-2.88,21.91-10.22,29.5ZM37.12,165.67l2.68-7.44-4.53-2.22c-.42,4.05-1.37,6.88-3.31,10.14l5.16-.48ZM396.06,158.88l-8,.67-.4,6.59-.46,5.59c-.11,1.34-.82,2.89-2.06,3.42l-6.62,2.87,16.03-1.85c3.24-.37,6.03-.89,8.59-2.98l20.64-16.81-2.96.02-5.76,4.37,4.16-4.13-7.14.63-9.69,1,4.47,1.08-2.54,7.98,4.86-1.57c-1.38,1.73-3.7,2.25-5.96,2.19l2.98-8.36c-3.51-.32-6.78-1.01-10.13-.73ZM28.01,160.27l-5-.33,4.87-.51c.7-.07,1.18-2.31.8-2.62l-6.1.4-1.45,5.34h4.42c1.28,0,2.4-.97,2.46-2.28ZM420.85,171.24c1.77-.22,2.63-1.49,2.87-3.05l.92-11.23-19.79,16.23,16.01-1.96ZM415.09,188c1.73.14,4.34-.05,5.76-1.49,6.92-7.01,8.59-18.48,9.83-28.31l-3.82,1.6-.37,6.42c-.14,2.49-1.33,5.14-2.67,7.09l-2.19.91c-.52,5.34-2.69,9.94-6.54,13.79ZM45.61,161.15l-4.93-2.54-2.52,7.09c4.22-.03,5.76-.5,7.45-4.55ZM369.57,162.68l-4.16-1.89-26.34,2.91-7.55.83-5.87.65c.23,2.32.2,4.03-.28,6.21l-2.1,9.45-6.47,4,35.59-4.2,17.54-7.07,14.67-14.74-.73-.13-4.8,4.21,3.09-3.92-15.01,1.62,3.36,1.78-5.77,10.34,4.67-1.19,8.68-8.61.47.48-8.65,8.65-6.58,1.76,6.26-11.15ZM381.93,174.61c2.17-.71,2.56-2.36,2.74-4.43l.49-5.53.26-5.53-15.25,15.09-14.84,6.12c4.43.01,8.6.2,12.75-1.17l13.84-4.55ZM128.81,166.74c-.24-2.02-.41-3.47-1.68-4.71l-.03,7.05c.27.14,2.02.26,1.97-.16l-.26-2.17ZM101.14,217.39l-4.25-9.16c-2.66-8.13-4.54-16.12-5.62-25l-44.47-20.88-1.97,3.11,5.36.14c-10.03,1.96-19.48,1.86-30.14,2.51l81.09,49.27ZM126.64,169.15l-.35-6.54-2.34-.17.1,7.21,2.6-.5ZM25.62,164.51c.37,0,1.29-1.21,1.2-1.31l-5.8-.11-.45,1.33,5.05.09ZM312.06,178.17c-2.84,2.71-5.92,4.86-9.48,7.61,1.87.45,3.45.43,5.19.22l6.27-.76,6.74-5.36,2.01-10.37-2.29,1.17,1.37-1.73c.5-.64,1.05-1.28.99-1.81s-1.31-1.57-1.83-1.51l-9.95,1.11-6.1.74,8.52-.1-7.97,1.29-35.27,3.67-2.9,15.59c-.52.89-2.72,1.7-3.47,1.78l-.32.64,37.43-4.65c2.02-1.05,5.23-2.75,6.35-4.58l6.91-11.31c.11-.17.41-.76.29-.9l-.96-1.11,1.19-.14c.39-.05.84,1.08.59,1.5l-5.95,10.31,2.64-1.29ZM90.91,175.94l-.3-6.07-9.66-3.23c.15,2.65-.41,3.73-2.05,4.85l12.01,4.45ZM194.7,182.8l10.5-12.79-.52-.47-12.32,14.86c.82-.17,1.72-.91,2.35-1.6ZM126.55,176.56v-6.53s-2.5.13-2.5.13l-.16,6.53,2.66-.14ZM130.43,176.21l-1.09-6.18h-2.09s-.03,6.35-.03,6.35l3.21-.17ZM195.24,198.43c3.89-.09,6.17-1.5,9.01-2.77l3.3-16.8,48.97-5.81,6.96-.39-1.4,9.6.96-.13,1.96-10.85-37.92,3.9-20.7,2.14-1.49-5.4-18.83,21.99,2.96,2.41,17.14-17.91-2.98,16.8-7.93,3.22ZM421.36,171.89l-5.6.91c-1.18,5.98-3.37,10.84-7.31,15.68,7.73,2.19,11.72-8.45,12.91-16.59ZM201.14,198.21l41.38-5.16,19.59-19.83-54.03,6.32-3.14,16.39-3.79,2.27ZM406.3,189.21c2.19-2.07,3.86-4.22,5.18-6.65l3.58-9.76-9.67,1.16c-1.82.22-4.39,1.01-5.44,2.61-.34,5.25-1.6,9.59-5.08,13.64l11.43-1.01ZM261.35,182.98l1.19-9.17-17.47,17.88,16.28-8.7ZM396.3,186.91c1.76-3.3,2.64-7.04,2.97-10.63l-5.23.78-18.69,2.3c.88,4.77,3.99,9.48,9,11,4.44,1.35,9.7.78,11.96-3.46ZM116.84,216.51l2.34-.12c2.89-6.32,4.25-12.46,5.49-19.19l1.51-12.93-2.24-.42,2.33-1.08.28-5.5-2.78.23c-.49,12.42-2.72,33.69-11.01,41.9-.83.82-2.8,1.43-3.79,1.97.99.92,2.46,2.04,3.32,1.9,1.85-.29,3.69-2.16,3.5-2.33l-.72-.66c.89-.18,2.09-.42,2.35-.95l.89-1.8-1.46-.42c-.15-.04-.05-.44,0-.62ZM132.03,181.81l-1.64-4.73-3.31.05-.09,6.23c1.88-.16,3.71-.75,5.04-1.55ZM270.42,214.39l54.17-5.75c36.52-4.67,72.48-9.97,108.68-16.16l26.78-5.3c-9.19-1.78-17.75-1.99-26.66-2.38-1.75,1.09-3.86,3.16-5.83,3.37l-34.56,3.82-8.48.26-9.47.84-.02-.75,7.69-.73c-4.72-2.68-7.36-6.19-8.68-10.92l-68.46,7.56-4.66-.73-108.43,13.5c-1.04,6.87-4.58,11.93-9.6,17l7.12-.82,6.11-.37c-2.56,1.04-5.19.98-8.2,1.33l-56.84,6.55-6.61.76,13.63-.19,89.88-7.13,42.41-3.79ZM192.04,198.59l10.36-3.96,2.28-13.35-15.04,15.6c.16.51,1.72,1.97,2.4,1.71ZM134.52,205.99l1.32-6.54-5.47.53c-.78.08-1.82.05-2.9-.1l8.4-1.26,1.11-7.58c-2.86-.95-5.09,1.13-7.54.4l7.45-1.65.24-2.62c-5.09.33-6.1-3.07-8.8-3.58-.47-.09-1.51.71-1.58,1.39l-1.11,10.66c-.79,7.64-3.01,14.37-5.92,21.47,4.16.18,7.49-.22,11.31-.86l1.29-3.5c-3.6.61-5.91,1.05-8.83.82l9.42-1.72,1.25-5.32c-3.49.95-6.19,1.43-9.25.98l5.93-.98,3.67-.53ZM149.63,187.71c-1.59,12.47-4.93,26.62-13.1,34.38l3.42-6.57c3.39-9.05,4.94-18.17,6.07-28l-7.86-.39c-1.06,12.38-2.98,25.82-10.39,36.4l17.78-1.77c8.6-7.6,10.63-22.6,11.29-34.09l-7.21.03ZM148.69,187.69l-1.84.18-3.73,21.9c3.42-6.91,4.73-14.36,5.57-22.08ZM156.15,220.64c7.22-8.31,9.06-21.71,10.29-32.5l-8.8-.51c-.5,11.69-2.38,24.5-10.28,33.88l8.79-.87ZM172.49,188.23c-2.04-.53-3.67-.47-5.18-.29l7.82,4.27c-.36-1.29-1.56-3.71-2.64-3.99ZM167.76,219.28l4.44-8.07,4.5-17.01-9.51-5.12c-1.32,10.95-3,21.83-9.39,31.36l9.96-1.15ZM180.51,217.63c6-4.26,9.77-10.7,10.76-17.93l-5.96-5.44-7.83-.06c-1.23,6.04-2.47,11.56-4.62,17.27l-4.02,7.75,11.67-1.58ZM129.29,219.99l1.23-2.87c-3.97.74-7.39,1.13-11.36.71l-1.87,2.81c4.44.13,8-.04,12.01-.65ZM126.45,223.59l1.99-2.91c-4.17.94-7.65,1.19-11.34.49l-4.8,3.13,14.15-.71Z"/>
  <path d="M108.26,212.14c-5.45.56-9.01-9.62-10.69-16.07-2.67-10.27-3.63-20.62-4.22-31.21-.3-5.4-.46-10.57-.07-15.94.59-8.23,1.07-16.22,3.32-24.19,1.38-4.9,3.77-11.54,7.79-12.05,4.98-.63,8.73,9.13,10.34,15.35,5.44,20.89,6.6,51.24,1.26,72.07-1.26,4.92-3.86,11.64-7.73,12.04ZM103.07,131.91l.28-15.79,1.49-1.17c.24-.19.68.67.73.97l.32,1.79.11-4.08c-1.43-.07-2.9.26-3.77,1.11l-.41,10.76c-.09,2.23-.12,3.7.34,5.85.65,3.03.21,6.34.69,9.34l.23-8.78ZM110.51,118.6l-3.54-4.23.84,11.41,2.7-7.17ZM105.25,135.69l.74-3.59-1.21-16.02c-.59,3.29-.61,6.51-.81,10.12l-.27,4.91c-.08,1.39.91,3.08,1.54,4.58ZM98.39,139.12l3.39,2.18-.56-10.42-.09-13.01c-2.9,2.95-3.81,6.58-4.51,10.39l-1.33,7.26c2.36.44,2.92,1.39,3.1,3.6ZM110.87,142.28l.97-15.02c.05-.82-.44-2.13-1.03-3.1-1.96,4.85-3.04,9.5-3.84,14.86l3.91,3.26ZM116.28,138.58l-2.4-10.01-.62,11.81c1.27-.41,2.45-1.05,3.02-1.8ZM112.01,150.45v-7.72s4.7-2.47,4.7-2.47c-1.62.31-2.76.76-4.15,1.33l-.06-7.95-.4.28-.2,8.33-2.12,1.15c.98.66,1.83.99,1.8,1.5l-.12,2.23-5.72-2.76c1.76,1.96,3.38,3.01,5.44,4.2l.66,2.57.16-.67ZM96.1,141.67c-.04-1.3.38-2.63,1.02-4.14l-1.92-1.35-.68,7.29c.16.26,1.65.35,1.63-.01l-.06-1.79ZM108.94,144.62l.07-1.19-3.06-2.29c-.65-.49-1.37-1.62-1.87-2.43l.23,3.1,4.63,2.81ZM114.84,152.59c2.82-4.14,2.81-5.96,1.83-11.1l-3.66,1.62-.24,6.24c-.04,1.05.91,2.43,2.07,3.24ZM110.95,152.64l-.27-3.39-11.23-6.82,1.89,7.03,9.62,3.18ZM99.68,152.13l4.87.89c-4.97-2.61-5.88-3.76-7.17-8.76l-3.23.77-.09,13.17,5.62-6.06ZM112.34,151.19l-.35.5,1.65,2.37-7.49-1.84c2.01,1.23,4.22,1.91,6.86,2.65l-.17,2.29-10.57-2.33c-.86-.19-2.2-.14-2.82.33-.47.36-1.07,1.68-.75,2.29l1.89,3.56,11.67-.72,2.33-6.67-2.25-2.44ZM113.83,160.53l1.65,1.58c-.38-1.05-.98-2.7-.72-3.58l1.87-6.29-.58.15-3.31,8.76c.02.49.06.82-.16.9l-1.25.47,1.88.04c.45.01.46-1.05.62-2.03ZM118.41,164.71l-.57-12.45-2.53,7.38,3.1,5.07ZM104.63,163.55l5.48-.7c-1.53-.17-3.23-.09-4.96-.02l-5.85.25-2.58-4.46-2.63,3.14.27,7.35,3.66,2.14.82-3.82c.54-2.54,3.13-3.96,5.78-3.89ZM118.26,175.41c.23-2.04.74-4.8.07-5.94l-4.03-6.84c-.46,2.05-.84,4.32-.64,6.34l.68,6.8,3.92-.35ZM102.93,172.82l9.57-4.78.41-3.54-10.01,1.61c-2.68.43-3.54,5.93-2.3,6.6.43.23,1.81.37,2.33.11ZM102.4,174.62l-7.73-4.33c-.09.04-.18,1.09.16,1.28l1.17.64c2.02,1.11,3.76,2.32,6.4,2.4ZM101.42,177.99c.03-.59.95-2.14,1.02-2.2-.68-.1-2.27-.31-2.86-.63l-4.99-2.69,1.67,13.54,4.89-1.73.28-6.3ZM112.29,190.75c.16,1.94,1.45,3.76,2.45,5.55l.71-3.08-2.41-13.1-1.07-3.06-.32-4.18-7.57,4.45-.29,5.17,7.12-6.16c-.02,1.66.35,2.28.45,3.47l.92,10.95ZM104.5,183.89l-1.38.29-.25-7.11c-.84,3.05-.93,5.71-.77,9.2l2.4-2.38ZM118.22,178l-3.14.22,1.85,10.57c1.07-3.98,1.12-6.99,1.29-10.78ZM106.77,185.04c.68-1.25,1.08-2.11,1.46-1.97l1.7.63.61-4.88-2.66,2.87c-.72.78-1.18,2.36-1.1,3.35ZM97.36,190.78l3.69-5.33-4.42,2.6.74,2.73ZM102.64,205.82c1.25-3.6,2.6-7.3,2.35-11.14l-.58-9.16-1.33,1.28c-.41,6.4-.91,12.41-.44,19.02ZM109.87,208.3l.15-17.66c0-.78-.69-2.2-1.21-3-2.39,6.28-.5,13.59,1.06,20.66ZM100.4,201.67l.13-10.63-2.6,3.68,2.47,6.95ZM114.41,199.8l-2.37-4.5.11,9.92,2.26-5.42ZM107.57,207.93l-1.62-7.44-1.34,6.94,2.95.5ZM107.96,209.98c-1.26-1.74-2.77-1.89-3.94-1.03,1.03,1.33,2.48,2.49,3.75,2.43,1.42-.06,2.97-1.34,3.39-2.56l-3.2,1.16Z"/>
</svg>