<?xml version="1.0" encoding="UTF-8"?>
<svg id="Layer_1" xmlns="http://www.w3.org/2000/svg" version="1.1" viewBox="0 0 805.71 245.65">
  <!-- Generator: Adobe Illustrator 30.8.1, SVG Export Plug-In . SVG Version: 2.1.4 Build 1)  -->
  <path d="M459.12,17.59c2.3,0,4.63,0,6.99.04-3.07-.2-5.61-.26-6.99-.04Z"/>
  <path d="M365.52,18.69c-1.56.28-3.13.6-4.7.97,1.57-.35,3.13-.68,4.7-.97Z"/>
  <path d="M553.59,101.85c1.69,0,3.39-.01,5.09-.02-1.71-.13-3.4-.18-5.09.02Z"/>
  <path d="M52.54,147.63c-.1-.05-.2-.08-.29-.11-.02.04-.04.07-.05.11h.35Z"/>
  <path d="M804.05,197.67l1.18-17.58c-2.13-3.33-4.41-5.32-4.39-10.35l.08-20.65-6.12-4.26-2.53-27.26c-1.59-17.1-2.59-28.57-21.01-32.69l-70.88-15.86c-5.53-1.24-10.29-4.2-14.66-7.51l-49.31-37.38c-7.89-5.98-16-10.5-25.8-11.78l-34.62-4.53C533.88,2.32,492.36.8,449.82.14c-27.7-.43-54.24-.03-81.5,4.08-9.74,1.47-18.67,3.3-27.84,7.12-18.86,7.85-36.65,16.7-54.09,27.49l-51.25,31.72-12.87-4.16-126.82,10.3-71.06,6.53,1.8-8.51c2.84-1.66,4.42-5.14,2.53-8.05-.88-1.36-3.6-1.24-4.49-.14,1.06.26,2.41.36,3.5,1.13.83.58.99,1.28.84,2.18-.57,3.23-6.09,3.37-4.21,8.96-1.39-.32-2.15-.82-2.61-1.57l.11-.87c.04-1.13-.37-2.27-1.69-3.16l3.81-4.01c.41-.43-.32-1.53-.6-1.93-1.96,2.66-3.33,3.85-6.78,3.34-1.15-.17-1.49,2.93-.26,3.65.85.49,1.8,1.4,3.82.61.47,3.04.73,6.22-.92,9.25l-5.69,1.29c-3.2,16.86-3.09,33.77-3.3,50.84l-.3,24.37c-3.65,2.28-6.74,4.32-9.95,7.73l.88,42.1c5.62,1.66,11.39,3.55,17.42,3.61l34.17.34c.96-.18,1.22-3.33.9-4.18l8.34-.06c5.7,12.34,14.48,22.59,26.83,29.13,29.19,15.46,64.75,1.62,77.94-29.17l16.03-.06.53,5.81,133.81.09,18.23.67,218.01.08.37-6.86,10.3.26c5.52,12.57,14.62,22.57,26.93,29.13,30.07,16.03,66.18.81,78.56-30.94l11.02.02c2.8,0,4.91.91,7.8.84l35.72-.85,36.58-.74,26.4-.93c5.18-.18,10.09-.71,14.61-3.19,1.06-.58,3.81.77,4.3-1.72.22-1.1-1.74-2.57-1.64-4.03ZM797.04,148.54c-3.08.93-5.53.82-8.62.91-3.28.11-6.27-.84-8.46-3.23l12.66-.05c1.52.55,2.88.79,4.42,2.37ZM338.39,14.64c.29-.85,1.9-2.02,3.03-1.2.55.4.4,2.16.2,2.66-.25.66-1.18,1.6-2.69,1.46-.71-.08-.81-2.15-.54-2.92ZM150.21,81.35l-8.51-.08c-2.71-.02-5.48.79-8.48.8-4.45.02-8.46.46-12.81.75l-11.96.82-80.29,8.53c-.61-2.63-.51-4.71-.32-7.37l9.98-1.3,184.59-15.39c6.64,2.55,12,4.79,18.91,5.66-.85,2.64-2.71,2.66-5.17,2.76-5.13.21-9.79.96-14.53.82,2.19.61,4.43.87,7.2.87l9.76-.15c-1.51,2.68-4.41,3.41-7.52,3.25-7.59-.39-18.65.99-28.37,1.38l-18.11.72-18.58.92-19.71.79-19.55.84-14.58.79c-27.44,2.58-54.51,4.58-81.73,9.12-.91.15-1.8.55-2.27.49-.73-.1-.7-1.35-.47-1.8.38-.73.62-.9,1.84-1.06,29.48-3.78,58.56-6.68,88.28-8.94l11.94-.91c4.63-.35,8.98-.08,13.68-.68l7.11-.9-.35-.74ZM37.26,96.84c-3.94,2.28-6.16,4.57-9.73,1.27l9.73-1.27ZM15.47,86.89l10.57-1.86c.35,3.06.35,4.91-.11,7.23-4.19.64-7.74,1.18-11.73,1.13.13-2.53.53-4.27,1.27-6.5ZM11.93,136.17l.78-24.63,1.27-16.45c8.18-1.5,14.76-1.69,12.13,1.16-1.2,1.3-11.37,1.12-11.72,12.08.12.25.2.49.28.73.08.21.15.41.21.61.14.35.32.69.68,1.04.13-2.74.35-3.93.92-5.64,1.15-3.46,5.1-7.78,9.03-6.19l5.74,2.32c-2.05,1.38-2.9,4.11-4.26,5.77-1.73-1.05-3.67-2.71-5.56-2.41-1.57.25-3.3.69-4.15,2.35-1.08,3.45-1.11,7.67.17,10.67.11-3.14-.55-6.35.5-9.36.48-1.37,2.72-1.93,3.7-1.75-.11,11.55,2.46,21.51-4.7,28.59-.65-1.7,0-3.05.05-4.45-.87-3.99.43-8.12-1.27-9.27v12.81c.3.69.22,1.81.62,2.51l8.64-5.87.15,14.31c-1.4-.56-2.69-.85-3.6-.4-.77.39-.77,2.36-1.39,2.84-.81.63-2.56.24-2.59-.31-.18-3.13.58-6.29-1-8.89-.5-.3-1.01-1.18-1.9-.28,3.75,4.4.81,10.54,2.66,15.49.01-.96.19-2.72.32-3.52.09-.53,1.3-.95,2.78-.64.25,3.45.06,7.22-.28,10.73-1.36.32-2.67.16-3.07-.42-.35-.49-.41-1.86-.21-2.43-.08-.73.27-1.68-1.05-2.14.02,1.9.47,3.61-.96,4.68-.26-5.88,1.44-10.62.79-15.95-2.85.19-.67-3.22-2.21-8.97l-.39,24.75h-1.47s.35-23.49.35-23.49ZM25.11,108.59v17.87h-1.7v-17.87h1.7ZM31.84,149.51c.27,1.34.25,2.27,1.28,3.35.7-.94.73-1.88.88-3.38l23.9.02c-4.99,8.76-8.33,17.78-9.33,28.09-2.36,2.02-5.18-.09-7.31.04-4.7.29-8.56,1.34-13.38,0l8.58-17.17-14.63-.04.18-10.95,9.82.05ZM26.7,212.35c-.01.62-.33.91-.73,1.09-7.79-.82-15.76-1.84-23.5-4.73,5.37-2.02,10.06-.78,14.94-.9,2.24-.3,3.73-2.35,3.76-4.65l.15-12.62c.06-5.1-9.5-4.19-18.32-3.11l-.18,19.91c-.22,0-.52-.12-.68-.46l-.02-19.33c0-5.49.12-10.91-.34-17,.32-.66,1.54-.32,1.97-.31.48,0,.93,0,1.39,0,1.36-.24,2.73-1.03,3.84-1.03l-6.36-.56c9.93-12.14,19.32-4.97,18.49-4.61.42-.18,1.22-1.91,1.67-1.92l11.07-.2-6.49,12.33-.64,38.11ZM16.32,202.36l-.03,3.93-9.95-.04c2.75-2.85,6.04-4.59,9.98-3.89ZM4.61,205.69l-.37-12.79c4.1,1.13,7.79,4.28,5.62,8.27-1.02,1.86-3.64,2.95-5.25,4.52ZM16.32,194.02c-.34.59-7.27,1.26-9.8-1.74h9.36c.6,0,.61,1.46.44,1.74ZM5.61,190.8c-.8.06-1.07-.23-1.39-.46-.6-.45-.48-1.79.36-1.79l11.61.04c.56.38.56,1.02.42,1.45l-11,.76ZM17.61,188.4c3.3-.44,3.54,13.33.46,17.98l-.46-17.98ZM51.67,212.71l-24.03-.02.02-33.48,24.03.02-.02,33.48ZM114.14,242.54c-31.26,0-56.6-25.34-56.6-56.6s25.34-56.6,56.6-56.6,56.6,25.34,56.6,56.6-25.34,56.6-56.6,56.6ZM552.61,194.51l-.99,20.49-218.25-.15-17.36-.67-131.49-.02c.17-7.85-2.9-16.02-1.11-19.62l-.99-1.73-3.67-13.97,12.37,1.37,16.02,1.11c1.52-.24,3.37-.06,4.35-1.22-3.32.39-6.6-.48-10.21-.75-3.86-.29-7.33-.29-11.19-.74l-9.35-1.09c-.94-.11-2.22.03-2.78-.89-.25-.42-.38-1.19-.38-1.78,0-.46-.01-.93-.15-1.36-6.99-21.91-18.53-43.17-41.34-51.68-18.21-6.79-38.49-4.33-54.51,6.6-7.66,5.23-13.07,12.18-18.09,19.37-.07.23-.17.41-.31.54-.38.74-.66,1.58-1.47,2.03-5.01,8.28-8.85,17.5-9.68,27.52-.65.28-1.33.33-2.12.13,1.2-9.77,4.1-19.11,9.29-27.68.53-.88,1.86-.97,2.52-.91-.47-.8-1.61-1.57-2.57-1.6-1.73,2.24-6.27.36-8.53.12-4.98-.54-10.59-.03-16.77.09v-32.52c-.01-6.48,4.87-11.59,10.4-14.11,4.36-1.99,8.88-2.29,13.22-2.86-.39-.78-1.12-1.12-1.91-1.42-14.35,1.32-23.94,8.14-23.69,23.4l.45,27.22c-2,.38-3.05.3-4.79-.06l.42-35.62c.04-3.2,1.61-6.56,3.64-8.86,4.63-5.26,10.89-7.15,17.76-7.88l66.75-7.09c3.88-.41,7.36-.53,11.18-.69l14.86-.63,19.65-.81,19.42-.94,17.97-.79c9.85-.43,19.75-1.18,29.38-1.38,8.66-.17,16.75-1.58,25.83-.74-1.77,1.12-3.65,2.76-5.74,2.86l-10.83.82c2.56.31,5.29,1.04,8.82.43,1.33-.45,1.9,1.19.23,1.2-2.54,2.12-3.91,5.47-5.5,8.23l-.1.45c-.06.47-.02,1.14.11,1.84l-60.06.81-33.06.86-17.57.56c-.59.13-1.12.2-1.61.21-1.1.21-2.26.51-3.57.5l-5.99.02c.82.3,1.56.78,2.45.99l1.11.1,15.78-.66,24.53-.89,39.55-.82,38.35-.49v1.57s-38.32.12-38.32.12c-.91.29-1.75,1.09-1.75,2.55l.14,63.73c.01,4.68,4.42,8.92,8.24,8.86.28-.13.88-.15,1.33-.36.11-.08.22-.15.32-.22.14-.14.23-.33.23-.6v-72.16c0-.68.53-1,.85,72.23v-73.19h7.47v1.59l.2,71.9.19.46,9.23.03c.92,0,1.55.33,1.65.94l8.58-.12c-.9-2.03-2.51-1.55-4.29-1.7l-14.39-1.2-.02-70.16,19.73-1.63-.32,11.81c-.08,2.99.52,5.86.58,8.59.03-7.25,1.2-15,1.97-22.68l8.63-.02,15.32-.84c-8.05-.97-16.17.72-24.13-1.17,1.29-1.81,4.61.06,7.14-1.71-1.96-.12-3.73.31-6.38-.4,1.37-2.57,3.45-7.31,6.82-8.38l65.01-.64c1.23-.01,1.98-.39,2.55-.79l-27.21-.03c-.61,0-.96-.51-.89-.87l-1.69.05-34.45.12c1.98-1.39,4.29-2.88,6.68-3.09,10.16-.88,20.03-.46,30.2-.35,1.1.01,2.17,1.17,2.7,1.51,4.44,1.59,9.06.94,13.44.38,1.09-2.42,2.88-2.23,5.31-2.23l84.97.19,15.39.06c.56,0,.08,2.26-.55,2.3l-2.05.14h-65.49s0,.9,0,.9c.72,0,1.43.1,1.69.85l61.23-.15c1.76,0,4.24-1.61,4.84,1.4l-25.23.49-20.21,1.16c-1.25.07-1.5,4.51-.31,4.86,5.5,1.27,9.65-.53,15.3,2.45l.03-1.34,19.1-.44c.69-.02-.23,2.14-1.2,1.87.15.29.09.5-.01.68,3.39-2.01,7.74-3.2,11.1-1l.91,1.12c-.72-2.67,6.5-2.85,8.78-1.24,1.39.98,2.5,2.04,3.98,2.05l.04-1.15c-.77,0-2.19-.24-2.94-2.05l19.94-.12c-1.61,2.07-3.78,1.56-5.52,2.29.78,0,1.66.25,2.07.98l5.42-2.24,12.77-.62c.67-1.89.79-3.46.19-5.63-14.2-.9-28.56-1.66-42.68-1.84-.41-.77-.07-1.71.37-2,.72-.48,1.74.13,2.76.14l64.87.84,44.4.79,22.51.48c2,3.66,2.76,7.59,2.58,11.8l-40.6-.34-75.88-.68c-.67.04-.93-.21-.95-.64h-6.81c-1.08,1.09-3.35,1.05-4.86.54l-27.43.32c-.6,0-.94.49-.89.85l16.17.15v1.31s-11.95.22-11.95.22c-1.69.03-3.8-.51-5.07.86l16.45.34-1.72,16.14-.28,60.06.89,5.94-13.64.07-6.88-.05c-.91,0-1.54.32-1.63.91l15.34.08,7.71,1.71c-.76,1.74-4.24-.3-6.03,1.61,2.02.05,4.2-.31,5.98.8l1.55-.42c4.68-1.28,9.68.06,14.85.12l26.96.31,34.84.07c.61,0,.95.48.91.83l51.94.2c.49,0,1.2.5,1.55.65l11.23-5.4-.42,6.97-6.48.12c1.41,1.93,5.11-.15,6.72,1.69ZM210.66,101.9l-.08,72.9c-2.86.53-7.4-2.48-7.42-5.96l-.24-66.95h7.74ZM315.31,76.12c3.51-5.81,3.46-13.08.59-19.6-4.7-1.84-8.69-.71-13.53-.78,12.61-8.93,24.84-17.47,38.79-24.24,13.78-6.68,28.68-8.63,43.88-8.01,4.15.17,8.02.14,11.92-.97l19.48-.28-12.42,53.92-88.71-.04ZM413.5,77.1v2.55h-105.89v-2.55h105.89ZM314.58,58.24c2.36,3.57,2.62,11.37.17,15.49-3.45,2.36-11.02,2.53-14.72.65-5.45-2.76-5.4-13.08-.03-15.72,4.01-1.97,10.85-2.57,14.58-.42ZM412.97,88.55l41.33,1.7c.64.03.66,2.39-.13,2.36l-41.49-1.26c-.39-.66-.24-2.16.3-2.81ZM410.37,91.33l-41.83.56c-1.86.11-1.9-2.18-.02-2.3l29.99-1.06c5.38-.19,11.97-.56,12.57.28.34.47.09,2.5-.71,2.51ZM545.1,78.82l-.05,3.06-130.11-2,.05-3.06,130.11,2ZM435.37,75.98c.21-6.71.92-13.9,1.43-21.02l.85-11.91c.27-3.75.68-7.24.93-11.06l.58-8.87c4.95-1.39,9.83.14,14.77.23,6.48.12,12.42.46,18.76.84l12.85.76,11.04.88c6.02.48,12.85.55,18.58,2.23,7.74,15.66,13.14,32.04,18.01,49.32-2.19.84-4.02-.15-6.03-.17l-43.01-.52-48.76-.71ZM565.91,79.02c-6.21-.77-10.85-1.5-16.82-.76-5.82-16.54-12.22-32.47-19.2-47.96-.78-.18-1.35-.96-.49-1.62l1.72-.95h-1.84c-.71-.01-1.73.41-1.21,1.77,6.33,16.39,14.98,31.96,18.46,49.16l-22.7-54.29c8.51,1.04,19.62,2.47,22.89,8.62l13.85,26.07,9.98,19.45c-.89.49-3.16.37-3.49-.32l-4.84-10.26-1.22.79,4.91,10.3ZM547.86,82.63l-.05,3.42-133.8-2.12.05-3.42,133.8,2.12ZM552.1,122.17c1.13,8.01.95,15.56-1.58,23.44-5.39,12.83-8.72,25.98-9.64,39.58.03.24-.23.85-.93.85l-46.71-.02c-.63,0-.97-.52-.93-.87l-61.63-.37c-6.86-.04-13.17-.88-20.46-.16-1.41-2.97-1.56-6.23-1.23-9.65.32-3.3-.77-6.3-.74-9.45l.28-27.6.68-19.73,1.69-16.23c10.38.1,20.31-1,30.87.48l109.27.39c1.7,6.43.13,12.88,1.04,19.34ZM540.69,186.94l-.03,2.58-130.91-1.38.03-2.58,130.91,1.38ZM411.05,100.96l.02-2.12,139.99,1.24-.02,2.12-139.99-1.24ZM553.25,183.82l-11.37,5.01c1.29-3.67,7-7.87,11.22-7.99.56-.02.73,2.73.16,2.98ZM616.18,242.6c-31.29,0-56.65-25.36-56.65-56.65s25.36-56.65,56.65-56.65,56.65,25.36,56.65,56.65-25.36,56.65-56.65,56.65ZM783.36,204.91l-39.14,1.33-41.65.88-19.28.25-2.96-28.19c-.31-.12-.71-.36-.76-.61-.19-.98,1.81-.79,2.25-1.6.15-.27.1-1.03-.15-1.2-.16-.1-.58-.17-1.06-.1-.32.1-.62.19-.84.26-3.19-20.37-14.99-37.86-33.49-47.67-25.63-13.6-56.48-8.15-75.93,13.32-9.7,10.7-14.71,23.61-16.87,38.25-2.65-1.21-1.53-3.33-1.26-4.65l-1.33-1.06c-.38,1.6-.06,4.59-1.62,5.8l-6.88,5.35c.9-10.48,2.83-20.16,6.07-29.86l4.68-14c.94-2.81.86-6.35.79-9.25l-.51-20.94-.53-7.76c-.04-.56.45-1.15.71-1.6-.98.1-.96-.99-.16-.98l26.07.48,31.11.48c.96.01,2.08.05,2.55-.92l-15.74-.43-28.08-.83c-5.62-.17-10.77-.27-16.47-.37-.04-4.43-.93-7.88-2.11-11.81l18.14.73c1.92.08,3.46-.04,5.18-.65-3.67.25-7.2-.84-11.11-.97l-10.97-.38c-2-.07-3.39-1.4-3.14-3.12l38.23,2.25,16.29.73,13.22.54c5.21.21,10.08.57,15.35.91l13.6.88,15.29.86,11.11.8c5.03.36,9.69,1.04,14.41.7,1.89-.13,3.45.12,5.19-.66-3.03.61-6.24-.98-9.37-.95-4.26.03-7.92-.44-12-.73l-12.68-.89-14.49-.84-14.47-.86-14.47-.92-13.23-.55-17.12-.7-34.44-1.96c-1.25-.07-2.19-.66-2.32-2.06l18.48.17c3.65.03,7.06,1.08,11.17.22l-7.85-15.58c-6.16-12.23-11.96-24.3-19.25-35.96-4.9-7.84-26.29-9.5-38.48-10.35l-11.88-.83-11.11-.79c-5.62-.4-10.81-1.05-16.16-.64-1.63.13-3.82-.7-5.09.81,3.33.02,6.65.44,10.19.68l12.73.86,12,.79,11.01.83c10.74.81,31.04,2.67,34.98,8.7,7.19,11.01,12.68,22.52,18.5,34.22l7.93,15.94c-.38.16-.93.21-1.56.15l-23.68-44.59c-1.8-3.39-3.28-6.23-7.15-7.52-9.24-3.07-18.75-4.62-28.1-5.26-1.2.12-2.74.08-3.42,1.25l12.13,1.38c7.69,17.9,14.75,35.41,21.3,53.6l-9.03-.22c-4.33-17.97-10.72-34.72-18.5-51.27l-16.06-1.76c-3.54-.39-6.79-.51-10.26-.77l-11.08-.85c-4.65-.36-8.99-.71-13.62-.86l-16.63-.56-10.55-.23-1.15,11.57c-1.42,14.34-2.06,29-3.1,43.19l-10.31.31-1.67-2.29c-.41,2.66-1.92,2.41-6.08,1.68l9.87-53.14-1.23-.38-3.96,19.61-6.4,34.2-8.13-.14,12.78-55.17-21.57.46c-3.67.08-7.18,1.25-11.07.72-17.23-.7-34.19,2-49.38,10.09-12.62,6.72-23.65,14.45-35.2,22.64-9.94,7.05-19.61,13.53-29.04,21.22-.81.66-2.71.65-3.94.14l4.59-4.09-1.02-.78c-2.19,1.74-4.79,3.2-6.74,5.51l27.04.64.07-9.41c0-.56-.44-.9-.83-.87v9.38s-17.19-.25-17.19-.25l17.8-13.39c.53.75.22,1.35.21,1.65.12.32.59.72,1.01.91,0-.88.58-2.67,1.51-3.17-.79,4.69-.44,8.34,1.75,11.27,2.14,2.87,5.21,4,9.14,3.67l-.04,5.05c-4.1.27-7.89.38-11.95-.21-.49-1.48-.5-2.75-.49-4.17-.33.82-.92,2.5-1.73,2.87l-27.19-.42c-.08.55-.58.63-.94.63-.8,0-1.18-1.14-.88-1.83-1.23.43-2.69,1.24-4.32,1.28l-19.54.55c.23-1.81,2.02-2.11,2.56-2.78.23-.78.16-1.91.9-2.61,1.83-1.72,4.43-1.59,7-2.31,5.31-1.5,9.25-5.14,13.51-7.9l-1.18-.89-8.19,5.27c-4.73,3.04-10.57,3.66-15.35,1.49l48.82-30.17c16.04-9.91,32.64-18.09,49.7-25.61,1.02.45,1.28,2.82.33,3.23-8.27,3.59-15.88,7.12-23.38,12l1.17.99,22.22-11.17c12.55-6.31,25.83-8.16,39.82-9.72l7.69-.86c3.94-.44,7.45-.79,11.07-.76-1.25-1.42-3.44-.58-5.06-.71-6.31-.53-12.4.61-19,1.4-9.59,1.14-18.82,2.45-27.68,6.21-.47-1.02-.58-2.5-.27-3.35,6.48-2.92,13.17-4.28,20.2-5.46,28.81-4.86,56.98-5.57,86.3-5.04,32.99.6,64.92,1.09,97.63,4.82l59.51,6.78c10.77,1.23,20.31,5.58,28.58,12.22l-9.67,5.55c.74,1.16,1.72,1.91,2.59,2.6l.46-.24c.27-.22.43-.51.35-.64-.26-.34-.67-1.02-.53-1.41.2-.54,1.05-.84,1.65-1.13l6.89-3.32,45.81,34.42c.77.58,1.64,1.15,1.18,1.85-.22.34-.8.72-1.22.99-.07.34.11.74.63.8,3.42-2.12,6.93,3.48,15.88,5.5l74.21,16.76c3.31.75,5.74,2.22,7.98,3.94,2.56,1.97,5.25,4.24,5.85,7.89l3.08,18.97,1.11,10.7.9,8.67.13,4.98c.01.47.18,1.79-.86,1.82l-14.87.35c-2.07.05-3.32,1.41-3.98,2.89l1.04.93c-.01-1.22,2.08-2.09,3.06-2.35,1.4-.38,2.45,1.77,3.48,2.41,5.49,3.39,11.76,2.36,18.1,1.34,1.2,8.78.71,24.14-.52,24.71-.53.24-1.55.34-2.39.23l1.31,1.2c2.09-.16,4.12.66,5.11,3.27l-15.49.56c.31.73,1.01,1.01,1.77,1.26l15.25-.19.02,1.42-23.85.15c-2.78.02-5.51-.48-7.6.93-1.64,1.79-1.02,4.63-.21,6.68,2.21.25,4.56-.04,7.02-.85l23.75.06c-.12.87-.83,1.52-1.62,1.7l-29.1.02c.13,2.44,1.39,4.9,3.24,7.27l20.52.35c-.33,1.06-.61,2.15-.22,2.66l1.58,2.04c-4.47,1.41-9.08,1.26-13.96,1.42ZM796.43,200.48c2.49-1.76,5.09-1.2,7.41.74-2.43.97-5.03.87-7.41-.74Z"/>
  <path d="M114.95,101.2c1.52-.06,3.04-.12,4.57-.17-.35-.12-2.11-.03-4.57.17Z"/>
  <path d="M25.44,69.78c.44-.65.77-1.22,1.19-1.61-.6.22-1.1.3-1.47.19-.12.87-1.06,2.24-2.83,4.13l-.47,3.87c-.01.29-.04.58-.11.87.98-.75.24-2.34.99-3.44l2.69-3.99Z"/>
  <path d="M24.32,67.3c-.05-.23-.09-.48-.09-.78-.35.43-.64.69-.85.72.37-.02.68,0,.94.06Z"/>
  <path d="M499.15,10.11l13.6.85,11.07.83,10.24.84,8.52.77,46.05,5.57c7.51.91,13.46,3.52,19.36,8.07l60.45,46.63c5.34,4.12,11.84,5.25,18.48,6.35l85.14,14.16c4.47.74,8.42,2.3,10.32,5.97-.05-.84-.36-1.58-.84-2.24-1.11-1.06-2.29-2-3.63-2.73-1.33-.62-2.75-1.06-3.97-1.35-16.77-3.03-33.56-5.91-50.36-8.68-13.16-2.17-26.34-4.27-39.52-6.27-.09-.01-.17-.03-.26-.05-.02,0-.03,0-.05,0-.14-.02-.28-.06-.43-.08-.65-.11-1.29-.22-1.92-.36-.65-.14-1.29-.31-1.93-.49-.17-.05-.34-.08-.5-.13-.7-.2-1.39-.43-2.07-.67-.12-.04-.24-.07-.35-.12-.63-.23-1.25-.49-1.87-.75-.69-.29-1.38-.62-2.05-.95-.22-.11-.45-.21-.67-.32-.51-.27-1.01-.57-1.52-.86-.22-.13-.44-.25-.66-.38-.6-.37-1.19-.77-1.77-1.18-.1-.07-.2-.13-.29-.2-.76-.54-1.51-1.11-2.24-1.72l-20.86-16.13-37.82-29.23c-.26-.19-.54-.36-.8-.54-.43-.3-.87-.6-1.31-.87-.4-.25-.82-.48-1.23-.72-.34-.19-.67-.39-1.01-.58-.39-.21-.79-.4-1.19-.59-.39-.19-.77-.39-1.16-.56-.34-.15-.69-.29-1.03-.43-.47-.19-.93-.39-1.41-.57-.29-.11-.59-.21-.89-.31-.53-.18-1.06-.36-1.59-.53-.29-.09-.58-.16-.87-.24-.53-.15-1.06-.29-1.6-.42-.37-.09-.75-.16-1.13-.24-.43-.09-.85-.18-1.28-.25-.61-.1-1.23-.19-1.84-.27-.41-.05-.82-.12-1.23-.16-3.11-.47-6.22-.9-9.33-1.32-24.41-3.26-48.95-5.37-73.55-6.66-33.7-1.69-67.5-1.8-101.41-1.37-2.23-.41-5.06-.79-7.32-.49-.12.02-.2.37-.27.81l61.71.57,42.14.62Z"/>
  <path d="M783.09,99.49c.14.14.29.31.47.51-1.92-4.09-5.36-6.07-10.32-7.07-29.27-5.86-58.45-10.24-88-14.55-7.96-1.16-14.02-4.09-20.25-8.93l-55.94-43.47c-6.62-5.14-13.54-7.88-21.94-8.89l-31.78-3.81-23.14-2.3-10.93-.88-11.05-.85-14.48-.81-45.51-.71-23.42-.4.55.95c25.68-.1,51.36.35,76.97,1.69,24.57,1.23,49.09,3.32,73.55,6.66,3.41.46,6.81.93,10.21,1.43.12.01.23.04.35.05.62.08,1.23.17,1.84.27.43.07.86.16,1.28.25.38.08.75.15,1.13.24.54.13,1.07.27,1.6.42.29.08.58.16.87.24.54.16,1.07.34,1.59.53.3.1.59.2.89.31.47.18.94.37,1.41.57.35.14.69.28,1.03.43.39.18.78.37,1.16.56.4.19.8.38,1.19.59.34.18.67.38,1.01.58.41.24.83.46,1.23.72.44.28.88.58,1.31.87.25.17.51.33.75.5l.05.04s.07.04.1.07l37.72,29.17,21.14,16.34c.64.53,1.29,1.03,1.96,1.51.1.07.2.13.29.2.58.41,1.17.81,1.77,1.18.22.13.44.25.66.38.5.3,1,.59,1.52.86.22.11.44.21.67.32.67.34,1.36.66,2.05.95.62.26,1.24.52,1.87.75.12.04.24.07.35.12.68.24,1.37.47,2.07.67.17.05.34.08.5.13.64.18,1.28.34,1.93.49.64.14,1.28.25,1.92.36.16.03.32.06.48.09,13.28,2.02,26.54,4.14,39.79,6.32,16.75,2.76,33.47,5.63,50.17,8.64,1.58.24,2.94.73,4.16,1.4,1.46.68,2.81,1.58,3.63,2.73.53.5,1.04,1.04,1.55,1.58Z"/>
  <path d="M400.87,8.14l.39-.82-9.43-.05c-.91,0-1.54.33-1.6.93,3.4-.42,6.95-.44,10.63-.06Z"/>
  <path d="M430.86,17.41l-8.29,55.89.78,2.95c-.28-2.49.29-4.95.72-7.81l7.54-50.41c3.53-1.26,6.94.12,10.57.2l13.54.3c4.07.09,7.85.6,11.91.9l11.12.82,13.57.87c3.75.24,7.26.27,11.12.75l6.75.84-.43-.88c-26.32-2.61-52.63-4.09-78.92-4.44Z"/>
  <path d="M388.42,17.83c-43.02-1.43-82.29,26.52-114.85,52.68-.34.27-.51.75-.64,1.29,26.09-19.87,67.33-50.92,99.35-52.42l16.17-.76,23.9-.38c4.5-.07,8.65-1.4,12.94-.36-.99,1.71-.79,3.01-1.04,4.24.9-1.17,1.52-2.77,1.87-4.79-12.61.07-25.17.24-37.69.51Z"/>
  <path d="M469.43,14.82c-5.52.72-10.5-.35-15.92-.37l-75.13-.23c-2.45,0-5.35.52-7.77.87-17.47,2.5-33.31,8.95-48.53,17.76-21.92,12.67-41.73,27.26-61.53,43.22l-16.8.25c-.93.01-1.54-.44-1.68-1.01-.26.59-.39,1.38.08,1.69.78.52,17.98.31,18.73-.24,21.54-17.26,43.86-33.69,68.11-46.88,21.53-11.72,38.34-14.18,61.13-14.85.17,0,.35,0,.52-.01.14-.1.3-.17.49-.16l4.21.05c23.2-.56,46.78-.32,69.83.96,2.49-.71,4.72-.71,6.7,0-.16-.72-1.39-1.18-2.43-1.04Z"/>
  <path d="M426.57,18.08l-1.1,4.42,1.9-.6c.4-.85.68-1.53.87-2.06l-8.13,53.08,1.56,1.04,8.54-55.76c.14-.91-3.38-1.21-3.65-.11Z"/>
  <path d="M383.69,98.19c3.05-1.37-.28-2.66-2.13-2.37l2.91,1.53-23.67-.25-65.54-.85-45.38-.39.57.88,133.24,1.44Z"/>
  <path d="M466.11,17.63c5.07.33,11.6,1.02,16.86,1.39l11.92.83,12.74.94c2.15.16,4.44.58,6.01.68-1.02-.92-2.46-1.33-4.31-1.21-13.92-1.57-29.01-2.46-43.21-2.64Z"/>
  <path d="M466.77,16.67l-5.1-.03c1.31.56,4.39.89,5.1.03Z"/>
  <path d="M268.71,183.39l-4.43.22c-.66.19-1.38.29-2.16.32l16.24.79,20.29.89,24.83.8,29.62.91,31.57.83,18.29.44-.54-.87c-44.64-.78-89.21-2.22-133.71-4.33Z"/>
  <path d="M286.03,182.92c-3.58.05-7.26-.1-10.88-.39-2.92-.11-5.84-.2-8.76-.31l-.38.64c3.15-.91,6.71.33,10.21.44l17.51.54,24.5.91,28.23.81,31.32.89,31.21.53-8.08-.92c-38.33-.73-76.63-1.79-114.89-3.14Z"/>
  <path d="M365.94,101.37l26.82.41c-.18-.47-.37-.83-.56-.84-46.68-.93-93.83-1.48-140.65-1.36l56.6.9,57.78.88Z"/>
  <path d="M366.53,99.18c9.06.04,18.1.07,27.08.06l-20.87-.44-54.44-.79-75.56-.44c21.14.37,42.43.73,63.7,1.02,19.96.03,39.99.22,60.09.59Z"/>
  <path d="M348.82,99.66l48.12.51c.63,0,.92.36.89.75l.34-1.03c-10.57-.28-21.11-.52-31.64-.71-19.92-.1-39.99-.31-60.09-.59-13.22-.02-26.41.02-39.57.15l24.19.09,57.76.83Z"/>
  <path d="M303.39,180.92l-9.34.02c2.04,1.11,7.79,1.52,9.34-.02Z"/>
  <path d="M393.55,183.59l-30.24-.54-31.41-.84-14.9-.43.53.72s3.97.09,11.86.28c10.85.22,21.71.46,32.57.77,9.36.22,20.17.48,32.49.77,0-.41-.29-.73-.9-.74Z"/>
  <path d="M385.42,184.31c-7.81-.28-15.63-.52-23.45-.75-14.32-.34-25.17-.6-32.57-.77-12.72-.25-25.42-.46-38.09-.6-.15.02-.3.05-.45.06l19.88.76,29.61.91,31.55.84,14.05.44c-.17-.49-.34-.88-.53-.88Z"/>
  <path d="M365.52,18.69c3.14-.56,6.25-.92,9.3-1.06l16.18-.7,23.03-.2c-17.03-1.05-32.83-.98-48.51,1.96Z"/>
  <path d="M328.86,31.49c-7.51,3.93-15.34,8.57-23.08,13.59-11.48,7.64-22.57,16.07-32.94,24.23-.1.09-.21.18-.32.26-.36.3-.51.83-.62,1.43,23.45-18.71,57.7-44,88.9-51.35-10.54,2.38-21.08,6.14-31.95,11.83Z"/>
  <path d="M272.84,69.32c9.83-8.23,21.28-16.66,32.94-24.23,13.57-9.03,27.68-16.96,41.81-22.04,14.24-5.13,27.69-6.25,42.62-7.24-34.59-.13-53.79,9.21-82.87,27.84-15.54,9.96-29.68,21.02-44.03,32.15.79.57,1.52.72,1.87.73-.03-.51-.1-.81-.17-.99,2.56-2.05,5.18-4.12,7.84-6.22Z"/>
  <path d="M292.29,64.27c-2.11-.23-3.07,1.68-.82,2.61,0-.96-.09-1.97.82-2.61Z"/>
  <path d="M294.93,76.43c.23-.5-.8-9.26-1.06-10.85-.03-.16-.27-.28-.57-.4l-.08,12.43c.67-.25,1.42-.55,1.71-1.18Z"/>
  <path d="M13.44,134.91c.92-.43,1.09-1.52.5-3.25l.68-16.36c.87-1.54.95-3.42.26-5.63-.08-.2-.14-.41-.21-.61-.09-.24-.17-.48-.28-.73l-.46,14.77c-.13,4.03-1.48,8.1-.49,11.81Z"/>
  <polygon points="17.02 130.63 17.46 117.6 16.59 118.13 17.02 130.63"/>
  <path d="M16.58,138.35l-.21-1.68c-1.45-.1-1.38.46.21,1.68Z"/>
  <path d="M313.61,31.13s-.07.04-.1.06c0,0,0,0,0,0-16.78,11.18-34.05,22.39-51.09,33.19-.07.05.02.35.16.72l51.93-33.68c-.39-.24-.72-.41-.89-.3Z"/>
  <path d="M262.26,64.48c.05-.03.1-.07.15-.1,0,0,0,0,0,0,16.78-11.17,34.05-22.4,51.09-33.19.07-.05-.03-.37-.18-.76l-51.93,33.78c.37.22.7.37.87.26Z"/>
  <path d="M208.18,77.86c-5.67.16-10.71-.03-16.24.87l-11.94.16c-4.66.06-8.87,1.03-13.71.68-1.33-.1-2.82-.02-3.3.94.26,0,.52-.02.78-.03.53-.03,1.08-.06,1.64-.05,3.22-.09,6.44-.19,9.66-.31,9.18-.62,18.36-1.08,27.55-1.39,6.35-.4,12.69-.84,19.02-1.36-4.24-1.18-8.89.37-13.45.5Z"/>
  <path d="M175.07,80.11c-2.02.14-4.04.27-6.06.42l-.58.86c2.85.27,5.43-.63,8.24-.73l16.6-.56,16.89-.91,18.69-.96c-8.74.02-17.48.19-26.22.49-9.16.58-18.35,1.05-27.55,1.39Z"/>
  <path d="M560.76,66.63c-.02-.05-.05-.11-.07-.17-5.64-11.52-11.75-22.79-18.35-33.79-.04-.04-.06-.08-.11-.13-.19-.2-.41-.37-.62-.54-1.05-.79-2.68-1.56-4.39-2.16-1.89-.55-3.89-.84-5.62-1.09l-.02-.04c-.31.02-.59.05-.81.12-.95.32-1.52.61-.89,1.45,1.5-2.18,10.6,1.13,12,3.17,7.75,11.24,13.42,23.32,19.11,35.26.05-.75.03-1.47-.24-2.08Z"/>
  <path d="M537.22,29.85c1.63.48,3.16,1.16,4.39,2.16.24.18.45.36.62.54.02.02.04.03.06.05.01.02.03.05.04.07.07.08.15.17.21.25,6.42,9.72,13.37,22.84,18.14,33.54.26.53.53,1.04.78,1.57l.76-.11-18.81-35.2c-2.07-3.88-8.68-3.89-12.3-5.01l.47,1c1.38-.07,3.56.4,5.64,1.13Z"/>
  <path d="M4.91,170.27l-1.17-.03c.38.09.78.08,1.17.03Z"/>
  <path d="M25.96,170.26c-1.56,0-8.52,0-20.84-.02-.07.01-.15.02-.22.03l21.03.47.03,42.69c.21-26,.32-40.26.34-42.77-.1-.15-.21-.28-.34-.41Z"/>
  <path d="M24.92,169.17l-15.95.04c5.38.67,10.96.94,16.74.82.09.07.18.15.26.23.23,0,.34,0,.34,0,0,0,0,.14,0,.41.51.78.63,1.91.34,3.37l.7.21c.03-1.67.78-5.08-2.42-5.07Z"/>
  <path d="M16.48,105.08c.23.75.48,1.33.8,1.84.8-1.59.54-2.21-.8-1.84Z"/>
  <path d="M262.07,77.3l-1.52.27c-6.57,1.18-12.97.29-19.38.35.38.9,1,1.32,1.9,1.33,6.48.05,13.04-.13,19.4-.39.2-.46,0-1.64-.4-1.56Z"/>
  <path d="M307.22,84.07c12.19.3,25.38.39,37.02-.21l-37.59-.48c.18.38.37.69.57.69Z"/>
  <path d="M293.22,83c-1.49,1.37-3.61.76-5.13,1.81l5.04-.75.09-1.06Z"/>
  <path d="M291.49,78.08l-26.36-.12c-1.43,0-1.98,1.83-1.77,2.73l.94-.63,27.17-.61.02-1.36Z"/>
  <path d="M333.78,85.11c-3.44.09-6.9.15-10.39.19-1.87.09-3.72.21-5.5.36l28.05-.05c-3.95-.29-8.06-.46-12.16-.5Z"/>
  <path d="M323.38,85.3c3.39-.17,6.89-.23,10.39-.19,3.53-.09,7.04-.2,10.47-.35h-54.47c10.93.47,22.36.65,33.61.54Z"/>
  <path d="M772.14,190.24l.05.93c.71-.39.71-.7-.05-.93Z"/>
  <path d="M771.87,182.32c-.4-.02-.79-.04-1.15-.07,0,0-.01,0-.02,0-.33.07-.67.19-.97.36,1.02-.03,1.92.2,2.61.94.19-.67-.06-1.06-.48-1.24Z"/>
  <path d="M540.88,185.19l-48.56-.04c15.9.76,32.64.76,48.56.04Z"/>
  <path d="M17.34,153.56c-.02,1.66-.07,2.66-.46,3.72,2.68-.21,2.71-2.46.46-3.72Z"/>
  <path d="M453.23,190.27l34.83.02c-11.9-.28-23.82-.58-35.75-.9-.04.38.3.88.91.88Z"/>
  <path d="M23.56,74.34s0,.01,0,.02c.09-.09.17-.18.26-.28-.09.09-.17.17-.25.26Z"/>
  <path d="M27.73,67.66c-.46.05-.8.24-1.1.52.34-.13.7-.29,1.1-.52Z"/>
  <path d="M27.73,67.66c-.71,2.26-2.02,4.41-3.92,6.43,2.11-2.07,3.42-4.22,3.92-6.43Z"/>
  <path d="M23.56,74.36s-.02.02-.03.03c-.08,1.5-.67,2.44-1.77,2.83,1.07.35,1.67-.6,1.8-2.86Z"/>
  <path d="M150.21,80.51c.64.3,1.42.52,2.29.68,2.63-.14,5.44-.14,8.23-.09.85-.16,1.63-.36,2.27-.59h-12.79Z"/>
  <path d="M168.42,81.4c-2.4-.13-5.03-.24-7.69-.3-2.52.46-5.73.55-8.23.09-.63.03-1.26.07-1.87.12-.04,0-.06.35-.07.8l6.47.04c3.9.03,7.47-1.11,11.4-.75Z"/>
  <path d="M163.78,80.48c-.27.01-.53.03-.78.03,1.69.3,3.5.6,5.42.89-.91-.77-1.96-.95-3.01-.97-.55.02-1.09.04-1.64.05Z"/>
  <path d="M2.99,187.43l-.89.12c.44.68.73.65.89-.12Z"/>
  <path d="M15.08,114.52l-.28,17.13c-.02,1.27.7,1.91.96,2.52-.79-4.08-.69-9.16,0-12.81v-6.38c-.16-.33-.45-.45-.67-.45Z"/>
  <path d="M433.6,97.53l4.24-.06c-1.21-.51-3.6-.96-4.24.06Z"/>
  <path d="M435.77,96.48l-11.49-.12c3.15,1,8.33.98,11.49.12Z"/>
  <path d="M424.24,97.52h2.55c-.5-.83-2.46-.95-2.55,0Z"/>
  <path d="M143.33,80.46c-.91,0-1.54.32-1.63.82,2.94-.26,5.77-.51,8.51-.77l-6.88-.05Z"/>
  <path d="M150.21,81.35v-.85c-.73.32-.74.61,0,.85Z"/>
  <path d="M315.37,180.88l-11.97.05c4.55.24,9.09.53,13.61.85-.09-.57-.73-.9-1.64-.9Z"/>
  <path d="M305.04,181.82l11.97-.04c-4.55-.24-9.09-.53-13.61-.85.09.56.73.9,1.64.9Z"/>
  <path d="M420.37,7.74c2.16-.09,4.31-.23,6.42-.41h-25.53c6.25.5,12.74.67,19.1.41Z"/>
  <path d="M401.26,7.32c.09.57.73.89,1.65.89h22.22c.92,0,1.56-.32,1.65-.88-2.12.19-4.26.32-6.42.41-6.37.27-12.86.13-19.1-.42Z"/>
  <path d="M267.65,181.74c-.22-.1-.48-.2-.77-.28-.82-.19-1.9-.21-2.74-.09-.56.18-.9.56-.73,1.22.99-1.16,2.79-.88,4.24-.85Z"/>
  <path d="M749.5,95.23c8.6.77,17.17,1.85,25.57,3.28.18.08.36.16.55.24.07.01.13.02.2.03.86.38,1.68.82,2.48,1.31,1.68.95,3.1,2,3.83,3.02.41.41.81.82,1.2,1.27.03-.03.04-.07.07-.11.06-1.05.11-2.09.14-3.13-.26-.46-.64-.83-1.14-.99.29.56,1.1,1.47.73,3.27-3.41-4.71-8.84-6.47-14.83-7.05l-24.93-2.42-11.89-.71.52.65c5.86.32,11.7.77,17.52,1.35Z"/>
  <path d="M728.94,93.2c.84.02,1.68.03,2.52.03-.88-.05-1.71-.09-2.52-.03Z"/>
  <path d="M783.38,104.27c-.06.96-.12,1.92-.21,2.9.79.74,1.72.98,2.79.7-.06-.45-.04-1.25-.5-1.3l-1.3-.12c1.35-2.41.37-4.38-.61-6.45,0,.38-.03.77-.04,1.15.54.94.54,2.26-.14,3.13Z"/>
  <path d="M692.85,76.55c26.32,4.63,52.08,8.45,78.03,14.67,4.34,1.04,9.04,1.76,12.2,4.97,2.88,2.93,3.38,7.93,3.84,11.49,1.02-7.31-2.42-13.51-10.12-15.77-6.63-1.95-13.63-3.32-20.61-4.64-23.39-4.43-47.2-8.66-70.4-12.54-3.05-.59-8.34-1.76-9.51-4.64-.07-.05-.14-.09-.21-.15l.12-.07c-.07-.22-.12-.45-.14-.68l-2.11-.29-44.95-35.27-.12.06c-.13.11-.28.2-.46.24l48.97,38.46c4.14,3.25,10.35,3.27,15.46,4.16Z"/>
  <path d="M783.09,99.49c-.66-.68-.88-.65-.71.66l1.18-.15c-.16-.17-.32-.34-.47-.51Z"/>
  <path d="M683.02,64.44l-1.8-.99c-2.21,1.39-4.45,2.36-6.71,2.91l-43.61-34.17-1.68.85,45.48,35.64,8.3-4.24Z"/>
  <path d="M676.3,70.08c3.9,2.92,8.09,3.59,12.75,4.43l71.96,12.95c7.03,1.27,13.59,2.44,19.72,5.18-3.18-2.9-7.38-4.61-12.59-5.11-28.4-5.56-56.76-10.9-85.08-16.02-4.59-.66-4.3-2.14.87-4.43l-.28-1.83-7.45,4.61c.02.08.06.15.09.22Z"/>
  <path d="M787.86,104.95l2.97,24.1c.23-.21.41-.42.4-.62-.44-6.39-2.61-27.13-5.33-31.81-.65-1.12-1.96-2.86-3.29-3.66-.22.19-.86.11-1.87-.32,4.47,2,6.51,7.3,7.13,12.31Z"/>
  <path d="M782.61,92.96c.23-.2-.03-.72-.89-1.51l-.98,1.19c.58-.24,1.23-.07,1.87.32Z"/>
  <path d="M790.83,129.05l.3,11.01c1.43-2.58.54-8.08-.3-11.01Z"/>
  <path d="M791.76,129.01l-.93.04c.38.72.69.72.93-.04Z"/>
  <path d="M786.93,107.68l-.96.19c.6,1.41,1.04,1.29.96-.19Z"/>
  <path d="M789.11,132.52c-.07-2.32-.22-4.72-.43-7.14.41,2.46.89,4.84,1.45,7.04l-3.21-24.75c.08,2.32.23,4.78.45,7.27-.41-2.44-.87-4.82-1.41-7.08l2.47,19.41c.28,2.17,0,3.59.67,5.24Z"/>
  <path d="M770.7,116.58l.13,12.86c.39,4.3,1.26,8.51,3.17,8.96l1.07-.66-1.96-.62c-.49-.16-.98-1.23-.96-2.14l.57-20.93c.11-4.24,5.73-5.61,9.46-7.03-.37-.3-.75-.47-1.13-.57-.86.45-2.08.85-3.78,1.17-5.01,2.21-6.24,4.89-6.58,8.97Z"/>
  <path d="M775.29,138.34c3.6-.2,7.07.01,10.42.64.38-.04.75-.09,1.12-.14l-11.76-1.1c.27.26.33.46.21.6Z"/>
  <path d="M789.11,132.52c.83,2.03.13,5.1-.86,7.66.39,1.03,1.71.53,1.73-.35l.16-7.41c-.18,1.49-.52,1.54-1.02.1Z"/>
  <path d="M790.13,132.42l-1.02.1c.38.33.72.3,1.02-.1Z"/>
  <path d="M458.61,16.72v-.02c-6.7-.28-13.45-.5-20.21-.65-1.76-.03-3.52-.06-5.28-.09-6.26-.09-12.52-.12-18.74-.04-.03.21-.17.49-.36.81l36.53.1c3,0,5.88,1.2,8.57.76-.43-.36-.57-.65-.51-.87Z"/>
  <path d="M390.21,15.8c2.7-.22,23.48-1.12,24.15-.11.01.02.01.05.02.08,6.25.03,12.5.1,18.75.2,1.76.03,3.52.05,5.28.09,6.77.13,13.54.29,20.3.5.41-.49,2-.48,2.98.08.08-.28-.31-.83-.88-.84l-21.69-.39-43.77-.51c-1.57.04-3.13.07-4.7.12-.33.23-.51.63-.44.78Z"/>
  <path d="M458.61,16.72l.51.87c.5-1.08,1.6-.95,2.56-.95-.99-.03-1.99-.05-2.98-.08-.04.05-.07.1-.09.16Z"/>
  <path d="M414.39,15.93c0-.06,0-.11,0-.16-8.05-.04-16.11-.04-24.17.03l22.92.09c.6,0,.92.41.89.84.01-.45.03-.81.07-.81.1,0,.2,0,.3,0Z"/>
  <path d="M788.06,139.48c-.77-.19-1.56-.35-2.34-.5-3.9.46-7.99.67-12.01-.39-2.14-.57-2.8-2.76-2.82-4.8l-.05-4.35c-.32-3.55-.31-7.16-.29-8.72.02-1.53.05-2.9.15-4.14v-1.14c-.04-3.13,1.81-6.02,4.78-7.1,1.67-.61,3.63-2.42,5.59-1.9,1.8-.94,1.91-2.12,1.05-3.33-1.18-1.17-2.46-2.18-3.83-3.02-.85-.48-1.76-.93-2.68-1.34-8.65-1.47-17.36-2.64-26.11-3.51-7.76-.69-15.53-1.13-23.23-1.29l42.82,4.15c4.95.48,10.04,1.81,12.83,6.58-5.4.68-10.9,3.31-12.45,8.68-1.16,4-.5,8.79-.26,12.85l.48,7.98c.62,10.27,10.29,3.82,17.24,6.63.86.35,1.58,1.38,2.79,1.08.73-.18,1.39-.73,1.41-1.82-1.41,1.44-3.26,2.13-3.07-.58Z"/>
  <path d="M791.13,140.06c.02.82,1.15,1.92,1.66,2.59-.31-1.83-.86-2.69-1.66-2.59Z"/>
  <path d="M775.29,138.34c-.41.02-.82.04-1.24.08-.01,0-.03-.01-.04-.01l-.3.19c.9.03,1.42-.06,1.59-.25Z"/>
  <path d="M682.01,178.21l13.11,6.66c3.18,1.62,5.98.73,9.36.59l16.42-.67,17.71-.93,17-.84,14.13-.42c-.2-.46-.4-.82-.59-.81-23.21.7-46.37,2.03-69.44,3.42-5.84-1.76-11.51-4.26-17.03-7.52.61-1.91-3,.42-2.36,1.49-.18-.64.78-1.43,1.68-.97Z"/>
  <path d="M773.73,154.5c-.07,3.43-.16,6.84-.27,10.23.2,4.46.42,11.2,0,12.22,3.01.61,20.14-1.06,22.38-1.98-2.96-.41-5.47.51-8.29.68l-13.2.8-.23-27.81c-.81,1.28-.94,3.23-.39,5.86Z"/>
  <path d="M683.13,174.21c-.95-6.92-4.14-12.71-6.95-18.82-7.72-16.76-21.68-28.58-39.26-34.01-22.8-7.06-45-1.99-62.92,13.53-13.44,11.64-18.4,23.48-21.78,40.29l1.23-.98c14.06-72.32,112.07-72.33,127.86-.76-1.31.52-1.82,1.35-1.53,2.5.27-.14.56-.22.84-.26,1.11-.35,2.56-.88,2.52-1.48Z"/>
  <path d="M760.36,178.61l-11.08.8-13.56.91-11.9.83-12.06.75c-5.26.33-11.11,2.02-16.36.05-4.17-1.57-7.53-5.34-12.6-5.05l14.13,6.97c3.71,1.83,8.39-.18,12.35-.32l15.77-.56,17.07-.78,14.07-.55c5.2-.2,10.05-.53,15.33-.83l15.26-.85-1.23-1.44,10.99-.63.61-1.75-10.94.83-25.85,1.62Z"/>
  <path d="M769.74,182.61c.27-.21.63-.38.97-.36.43-.09.85-.06,1.16.07,4.68.24,11.81-.1,16.3-.4.14,0,.26-.3.37-.67l-17.89.54c-.59.02-.93.48-.9.82Z"/>
  <path d="M683.98,176.12c4.32,1.34,8.49,3.11,12.51,5.29l6.95.49,69.93-4.83s.07-.06.1-.14c-.27-.05-.44-.13-.46-.22.18-3.97.33-7.97.46-12-.09-1.93-.17-3.43-.2-3.86,0-.14-.43-.26-.97-.37l.52,15.91c-4.89-.12-9.34.65-14.06.96l-11.99.77-13.56.9-11.98.8-11.93.86c-4.01.29-8.63.62-12.59-.1l-11.64-5.25c-4.13-18.8-15.38-38.24-31.84-48.11-18.44-11.05-41.84-14.07-61.38-5.1-15.57,7.15-28.54,18.38-35.65,34.1-2.68,5.92-3.89,11.93-5.31,17.89l.97-.88c15.43-75.69,119.21-72.72,132.12,2.88Z"/>
  <path d="M773.08,147.7c-.25.55-.78.96-.78,1.74,1.21.12,1.54-.91.78-1.74Z"/>
  <path d="M572.23,89.15c5.08-.82,9.66.26,14.48.55l13.63.81,14.48.84,14.47.84,13.6.86,13.61.86,14.48.84,13.61.86,12.76.88,11.99.79,11.84.94,23.04,2.69c3.64.43,7,1.66,10.36.36l-17.17-2.85-17.93-1.92-12.69-.93-11.9-.85-11.97-.8-14.48-.87-14.48-.85-13.61-.86-13.62-.85-13.62-.85-13.6-.84c-8.93-.55-23.37-1.98-25.41-1.26,2.57.89-3.49,1.57-5.18.65.42.8,2.06,1.15,3.32.94Z"/>
  <path d="M610.6,102.61v-.77c-.72.33-.75.59,0,.77Z"/>
  <path d="M735.55,108.28c13.01,1.85,24.82,5.49,26.1,20.33-.97-.86-1.45-1.29-1.45-1.29-4.41-11.47-15.1-17.6-27.06-16.19,10.68.88,18.81,2.11,25.04,13.37l5.73,14.33c1.46-10.84-3.58-21.62-12.4-27.23-5.28-3.35-11.45-3.74-17.39-4.17l-10.33-.75-10.22-.88-10.18-.86-11.92-.84-11.14-.79c-4.81-.34-9.43-1.17-14.4-.69-4.1.39-7.91-.69-11.88-.72l-12.79-.11.54.65c31.37.87,62.62,2.81,93.75,5.82Z"/>
  <path d="M613.71,101.78c3.51.27,8.48.34,11.97.1.11,0,.18-.42.25-.96h-12.77c.17.47.34.84.55.86Z"/>
  <path d="M603.32,102.6c-14.93-.68-29.97-.8-44.64-.76,2.49.19,5.02.57,7.66.63l24.42.52c4.89.1,9.35.44,13.89.53-.43-.5-.87-.89-1.33-.91Z"/>
  <path d="M606.85,104.75l28.75.89,20.12.39-.55-.64s-33.83-.91-101.49-2.74l-.78.8,22.37.47,31.59.83Z"/>
  <path d="M710.35,91.86c2.99.22,5.98.45,8.97.71,2.59.28,5.16.47,7.72.57,1.17-.72,3.05-.45,4.41.09-1.5-1.82-4.68-.37-6.71-.77-4.36-.86-7.91-.71-12.02-1.1-7.59-.71-20.01-1.81-21.19-1.29l.62.71c6.1.12,12.16.48,18.19,1.06Z"/>
  <path d="M727.04,93.14c-.32.19-.59.45-.78.8.89-.47,1.77-.67,2.67-.74-.63-.01-1.26-.04-1.9-.06Z"/>
  <path d="M688.05,91.65h7.64c4.08,0,7.86.65,11.92.92l11.24.74c2.25.15,5.34,1.74,7.41.63-5.28-.88-10.58-1.57-15.91-2.08-6.06-.44-12.12-.79-18.17-1.05v-.02c-1.95-.04-3.89-.06-5.83-.05.12.53.67.91,1.7.91Z"/>
  <path d="M652.99,117.35c8.93,5.16,15.15,12.61,22.25,20.51-2.16-6.64-7.9-9.49-12.07-14.8-18.15-15.69-43.56-20.78-66.51-12.08-13.31,5.04-25.68,12.98-34.64,23.9,11.92-10.09,23.58-18.94,38.31-23.77,16.88-5.53,36.86-2.89,52.65,6.24Z"/>
  <path d="M732.67,110.54l-.02-.03c-16.2-1.45-32.46-2.73-48.8-3.84-6.31-.65-12.28-.57-17.91.24l12.74.16c4.36.05,8.4.5,12.84.82l12.71.92,11.09.8,9.38.82,8.44.7c-.43-.21-.59-.4-.47-.59Z"/>
  <path d="M732.67,110.54l.47.59.09-.94c-.3.11-.48.23-.56.35Z"/>
  <path d="M669.42,105.29c-1.28.49-2.06.81-3.51.8,1.19.64,3.28.65,3.51-.8Z"/>
  <path d="M639.6,100.88l-13.67.04c5.14.24,10.25.53,15.32.88-.1-.59-.74-.92-1.65-.92Z"/>
  <path d="M627.57,101.82h13.68c-5.12-.28-10.23-.57-15.32-.89.1.58.73.89,1.64.89Z"/>
  <path d="M772.3,149.44v11.05c.71-3.65.67-7.39,0-11.05Z"/>
  <path d="M772.3,149.44c.68,3.62.71,7.43,0,11.05,1.35-2.51,1.33-8.39,0-11.05Z"/>
  <path d="M655.71,106.03c.1.58.73.9,1.64.9l8.59-.02c-1.39-.1-2.78-.21-4.18-.32-2.06.06-4.2-.12-6.05-.56Z"/>
  <path d="M665.92,106.09l-10.2-.06c2.03.21,4.04.39,6.05.56,1.48-.04,2.91-.2,4.15-.5Z"/>
  <path d="M665.94,106.91l-.03-.82c-.72.34-.72.61.03.82Z"/>
  <path d="M604.66,103.51c2.18-.23,4.16-.53,5.94-.9-2-.03-4.38-.39-5.94.9Z"/>
  <path d="M668.9,104.62l.17.21c.23.01.45.02.68.04l.21-.28c21.02,1.29,41.94,2.85,62.77,4.7l.03.06c1.39.12,2.79.23,4.18.36l.44-.48-7.61-.87-11.09-.84-10.2-.87-11.04-.84c-4.39-.34-8.37-.51-12.82-.78l-11.04-.68c-3.23-.2-6.31-.59-9.42-.67l-23.31-.59-30.26-.47c12.39.27,24.78.69,37.19,1.21,7.03.2,14.07.46,21.11.8Z"/>
  <path d="M733.23,110.2c.98.57,3.05-.06,4.15.03-.85-.79-3.58-.99-4.15-.03Z"/>
  <path d="M647.79,103.82c-14.4-.41-28.78-.51-43.13-.31l21.65.44,28.14.8,14.98.55-.36-.46c-7.1-.38-14.19-.72-21.27-1.02Z"/>
  <path d="M676.93,106c5.64-.23,10.7.32,16.19.71l11.11.8,11.06.87,11.11.95c2.4.21,4.79-.32,6.83.87l-.47-.85c-21.04-1.85-42.04-3.34-63.01-4.48l-.32.42c2.07-.79,4.99.81,7.51.71Z"/>
  <path d="M737.38,110.23c7.74.68,15.58,3.56,19.63,10.25-.72-1.94-2.04-3.62-3.71-5.05,1.62,1.18,3.15,2.57,4.58,4.25-4.66-7.15-12.26-9.52-20.5-10.46,2.18.45,4.27.96,6.28,1.57-2.18-.5-4.34-.7-6.27-.57Z"/>
  <path d="M737.37,109.23v1c1.49-.37,1.47-.69,0-1Z"/>
  <path d="M757.01,120.48l4.02,6.64c.18-3.65-1.94-5.57-3.16-7.44.85,1.25.44,1.67-.87.79Z"/>
  <path d="M757.88,119.68l-.87.79c.7.25.98-.03.87-.79Z"/>
  <path d="M741.94,140.41l16.66.4c.73-2.92-.37-7.26-2.49-7.25l-16.46.11c-.45,2.07.44,6.16,2.29,6.74ZM741.07,134.85l14.26.04c1.55,0,2.33,3.35,2.07,4.29l-14.67-.2c-1.03-.01-1.92-2.73-1.66-4.12Z"/>
  <path d="M202.94,99.73l.03,1.2c1.6-.55,1.61-1.2-.03-1.2Z"/>
  <path d="M209.43,177.01c-.06.21-.15.36-.25.39-.08.18-.1.35,0,.47,4.06.2,8.06.32,12.04.41.97-.75,3.53-.43,4.71.1.05-.38-.28-.8-.87-.81l-15.31-.24c0-.21.11-.51.45-.66l20.87.03c-3.5-.52-7.06-.69-10.69-.49l-.2-.48h-.19s0-.46,0-.46l-.1-.24h0c-1.06,1.22-6.09,1.31-7.49,0-.03-.02-.06-.04-.09-.06-.07-.05-.52.18-1.06.53-.09.09-.2.16-.32.22-.56.39-1.14.87-1.5,1.29Z"/>
  <path d="M219.88,174.98l.02.05-.1-71.67v71.6h-7.47s.05.04.07.06c1.68,1.14,6.02,1.37,7.47-.04Z"/>
  <path d="M180.8,173.78c-5.24-22.89-18.96-42.6-37.67-52.56-1.6-.83-3.22-1.59-4.9-2.26-16.17-6.48-34-5.84-49.6,1.3,0,0-.01,0-.02,0-.77.35-1.52.74-2.28,1.12-3.75,1.95-7.12,4.24-10.23,6.83-1.4,1.2-2.86,2.53-4.31,3.94-3.75,3.74-7.17,7.96-10.51,12.61-.59,1.02-1.03,1.98-1.31,2.85-.06.18,2.25,1.6,3.19.72.09-.19.19-.37.31-.54-.73,0-1.43.16-2.7-.31,5.71-9.05,12.24-17.52,21.66-23.15,26.24-15.68,60.39-10.7,79.81,13.07,8.58,10.51,13.56,22.89,17.86,35.64-1.22.71-1.89.42-2.68.46.59,1.04,2.88,1.21,3.37.29Z"/>
  <path d="M212.02,179.44l.06-.07,8.03.57c.24-.06.5-.31.75-.63-3.12-.02-6.08-.39-9.49-.67l-11.77-.97-22.02-2.82c.1.36.22.69.46.89,1.47,1.23,22.01,2.87,33.98,3.7Z"/>
  <path d="M61.72,149.4c-.78.31-.79.62,0,.94-.04-.27-.04-.68,0-.94Z"/>
  <path d="M71.8,132.14c1.38-1.38,2.82-2.69,4.31-3.94,2.25-1.93,4.34-3.51,5.98-4.5,1.39-.84,2.81-1.6,4.25-2.33.74-.39,1.5-.76,2.28-1.12,0,0,.01,0,.02,0,2.53-1.18,5.22-2.22,8.14-3.11,17.14-5.19,33.01-3.03,46.35,4.07,19.24,10.01,32.9,31.18,37.74,51.94.06.25.02.45-.07.62.05.23.11.45.16.68.49,1.33,26.42,3.39,28.22,2.95,0,0,0,0,.01,0,.06-.12.14-.25.25-.39.07-.24.12-.56.16-.93-2.83,1.3-8.66.42-12.48-.12l-15.38-2.21c-3.48-12.48-8.71-24.3-16.66-34.97-20.11-27-58.59-33.17-86.18-13.8-8.59,6.03-14.54,14.32-19.77,22.83.71-1.04,1.43-2.05,2.15-3.05,2.18-3.81,6.29-8.51,10.51-12.61Z"/>
  <path d="M71.29,96.43c.96-.09,1.93-.17,2.89-.26,23.7-2.13,47.54-4,71.42-5.53,10.27-.67,20.55-1.29,30.85-1.85,15.2-1.1,30.29-1.66,45.27-1.7,5.02-.14,10.05-.27,15.06-.37l1.01-.81c-4.66-.56-9.85-.08-14.92.13l-21.93.91-17.98.78c-8.4.37-16.73.91-25.15,1.45l-13.62.88-13.62.86-13.55.89-11.92.82-10.96.9-38.6,3.55,2.26.58c4.49-.43,8.99-.84,13.49-1.25Z"/>
  <path d="M74.45,96.86l9.35-.84,9.36-.85,10.23-.84,11.93-.82,14.41-.88,13.62-.87,11.98-.8,13.55-.93c4.7-.32,9.05-.67,13.68-.83l15.86-.54,21.96-.9,26.47-.23c-8.34-.32-16.71-.47-25.12-.45-25.34.71-50.75,1.93-76.12,3.55-23.86,1.56-47.67,3.4-71.42,5.53-.96.09-1.93.17-2.89.26-4.52.41-9.05.83-13.56,1.26l-.27.83,6.73-.88c3.59-.47,6.77-.45,10.26-.77Z"/>
  <path d="M53.27,148.05c2.06.44,4.02.36,5.88-.25l-6.61-.17c.23.11.47.24.73.42Z"/>
  <path d="M52.24,147.51c6.78-14.15,17.36-24.82,30.97-32.85,25.31-14.93,61.36-6.91,81.15,14.61,1.14,1.24,1.46,3.78,3.9,2.9-13.12-17.44-34.5-26.71-56.27-26.29-7.01.13-12.9.43-19.44,2.97-18.62,7.24-33.47,21.12-41.94,39.07.41-.5.96-.63,1.63-.41Z"/>
  <path d="M125.23,99.87c.48-.03.85-.2,1.09-.49-1.47-.56-3.97-.38-5.02.68,1.13-.43,3.14-.82,3.93-.19Z"/>
  <path d="M148.1,97.14l-15.8.56c-5.35.19-10.31.43-15.32.82l1.73.74c40.76-1.99,81.56-2.78,122.38-2.35l.15-.69c.02-.18.05-.34.1-.45l-60.91.55-32.34.82Z"/>
  <path d="M56.51,107.65c-7.16,1.34-13.24,5.4-16.78,11.83-.38.09-.68.11-.92.08-.03.05-.06.09-.08.14,0-.05.03-.1.04-.15-1.61-.26.03-3.18.98-4.75,4.3-7.08,12.5-9.72,20.4-10.51l.72-.81c-4.52.43-9.16,1.19-13.47,3.52-7.29,3.94-12.9,11.75-10.57,20.39,5.92-14.92,11.88-18.59,27.05-20.11l26.9-2.7,11.79-.87,11.86-.96c3.22-.26,6.02-.53,8.66-.64-.41.03-.77-.02-1.11-.1l-3.54-.32c-20.72,1.43-41.36,3.41-61.92,5.95Z"/>
  <path d="M126.31,99.38c.51.8,1.43,1.17,2.75,1.12.55-.11,1.08-.2,1.61-.21-1.66.16-2.94-.37-4.36-.91Z"/>
  <path d="M141.41,98.87l-15.1.52c38.19-.71,76.54-1.15,115.05-1.32l-76.19-.07-23.76.87Z"/>
  <path d="M125.23,99.87c-.48.03-1.09-.06-1.81-.28l-2.12.47c1.44-.03,3.24-.37,4.21.94.14-.55.01-.9-.27-1.13Z"/>
  <path d="M121.29,100.07l-2.56.06c.62.64,2.4.76,2.56-.06Z"/>
  <path d="M38.76,119.55s.03,0,.05,0c4.36-7.92,11.85-12.17,20.83-13.12l29.35-3.1,11.88-.91c4.51-.35,10.17-.92,14.07-1.23-17.31.68-34.74,2.07-52.27,4.17l-.06-.75-7.1,1.18c-7.77,1.3-15.16,5.69-16.76,13.74Z"/>
  <path d="M63.07,103.93c17.04-1.91,35.77-3.92,52.92-4.52.07,0,.14,0,.21,0l.58-.05c-.12-.23-.06-.51.19-.84l-12.65.99-8.63.68-34.85,3.3c.33.03.61.09.85.17l1.37.27Z"/>
  <path d="M116.79,99.36s.04.05.06.08c.67.07,1.29.26,1.88.68l-1.74-1.6-.18.84h0Z"/>
  <path d="M62.61,104.63c0-.46-.32-.78-.91-.97l-.85-.17c.3.64,1,.92,1.75,1.14Z"/>
  <path d="M116.85,99.44c-.21-.02-.42-.03-.64-.03l-53.12,4.52h-.02c-.09,0-.18.02-.27.03-.09,0-.15.3-.2.67l10.93-1.01,22.26-1.98,11.88-.9c3.85-.29,7.46-.54,11.04-.62-1.02-.13-1.64-.36-1.88-.68Z"/>
  <path d="M46.37,119.84c-2.48.02-4.64,5.32-2.91,6.81,5.24.8,11.8,1.12,17.24-.04,2.05-.87,2.38-5.16,1.83-6.91l-16.16.14ZM59.86,125.31c-4.97.54-10.16.38-15.01.03-1.82-5.88,5.81-3.44,16.08-4.28.16,1.27-.27,3.15-1.06,4.24Z"/>
  <path d="M240.41,131.69c.17,9.15.39,18.34.66,27.57.24,6.68.54,13.38.91,20.12,16.19.89,32.66,1.58,49.42,2.08l2.65-.52c-5.02.39-9.96-.63-15.27-.79l-15.91-.46-20.03-1.09c-.02-8.66-1.01-17.65-1.2-26.06l-.7-30.27-.6.5c0,2.97.03,5.94.06,8.91Z"/>
  <path d="M223.08,178.32c.95.02,1.91.05,2.85.06-.9,0-1.91-.13-2.85-.06Z"/>
  <path d="M239.46,115.38l.37,34.06c.1,9.13,1.79,19.68,1.32,29.39-5.19-.52-10.26-.5-15.22-.45,5.33.4,10.68.89,16.07,1.49,0-.16-.02-.32-.02-.48-.09,0-.18,0-.27-.01-.24-6.72-.45-13.42-.64-20.1-.34-9.24-.56-18.43-.66-27.57-.06-2.94-.12-5.89-.16-8.83l.1-.08c0-3.03,0-6.06.01-9.09-.44.06-.92.73-.91,1.68Z"/>
  <path d="M259.93,183.82c.63,0,1.23-.03,1.82-.09l-1.82.09Z"/>
  <path d="M262.13,183.92l-2.21-.11c.78.1,1.52.13,2.21.11Z"/>
  <path d="M408.96,192.87l-162.91-.02-2.16-9.79,16.03.76c-1.34-.9-16.75-2.16-17.11-1.35,1.21,3.79,1.8,7.38,1.78,10.76l.83.45,164.41-.02c1.13-.53.11-3.5-.88-4.27.16.97.68,2.14,0,3.48Z"/>
  <path d="M241.78,182.95l-17.05-.77-17.59-.86,1.13,1.76,31.66,1.49c1.14,1.85,1.92,4.05,2.35,6.59l-59.07-.05-.79,1.7,62.11.05-2.75-9.91Z"/>
  <path d="M410.92,192.91l128.73-.12c.58,0,.59-2.3.35-2.29l-1.97,1.14-125.5-.43c-.25-1.29-.93-2.04-2.03-2.24-.1,1.09-.24,2.25.41,3.94Z"/>
  <path d="M266.01,182.86c-1.39.4-2.77.72-4.27.87l2.54-.12c.63-.18,1.2-.42,1.72-.75Z"/>
  <path d="M290.86,182.25l-2.84-.11c1.06.15,2,.18,2.84.11Z"/>
  <path d="M286.03,182.92c.53,0,1.06-.01,1.58-.03.15,0,.28-.33.42-.75l-20.37-.39c2.42.31,4.94.58,7.5.79,3.63.13,7.25.26,10.88.39Z"/>
  <path d="M263.4,182.59l2.61.27c-.43-1.01-1.64-.61-2.61-.27Z"/>
  <path d="M294.05,180.95c-1.68,1.29-3.96.94-6.03,1.19,1.09.01,2.19.03,3.29.04,1.15-.17,2.07-.58,2.74-1.23Z"/>
  <path d="M221.76,180.73l16.07.4c1.04.03,3.03,1.99,3.85-.93-4.13.13-7.5-.83-11.47-.85l-9.35-.05.27.71-1.02-.07s-.08.03-.12.02c-1.15-.06-4.12-.25-7.97-.52l-.53.66c3.31-.39,6.68.54,10.27.63Z"/>
  <path d="M541.56,191.14c.28,2.27,2.6,1.72,4.33,1.69-.79-1.33-2.24-1.89-4.33-1.69Z"/>
  <path d="M264.14,181.38c.74-.24,1.86-.15,2.74.09.3.07.57.16.77.28-.11-.56-.72-.85-1.64-.85l-15.35-.11c-2.7-.02-5.36-1.58-7.9-.23,2.62,2.38,5.94.82,8.7,1.18,4.38.57,8.05.78,11.96.86-1.14-.62-.44-1.05.73-1.22Z"/>
  <path d="M220.86,179.29c.6-.68,1.38-.91,2.22-.98-.62-.01-1.24-.03-1.86-.04-.3.23-.45.56-.36,1.02Z"/>
  <path d="M539.47,193.65h-129.63s-.05.04-.07.05h-164.29s-.04-.02-.04-.02h-61.75s-.27.87-.27.87l369.19-.03-9.88-.89c-1.52-1.1-2.61-1.09-3.26.03Z"/>
  <path d="M323.2,204.74l182.95.06c-1.36,1.32-3.87,2.43-6.27,2.43l-64.33.19-4.57.76h-102.95c.09.55.09,1.13-.01,1.68l76.18-.42,94.82-.5c4.1-.02,7.01-3.6,10.55-3.66l28.76-.55c1.12-.02,2.16.15,2.74-.97.34-.66.47-1.5-.2-2.44l-.85.88c-.74.75-1.14.74-2.64.75l-148.23.57-66.23.3c.09-.41.11-1.05.04-1.53l39.17-.09c.05-.34-.29-.86-.92-.86h-39.11c-.94,0-.9.79-.88,1.3.03.87.52,2.09,1.99,2.09Z"/>
  <path d="M362.44,201.1l-.33,1.11h177.89c-.99-1.15-.53-1.44.85-.89-.32-.44-.62-.86-1.73-.86h-25.38c-.16.14-.49.45-.81.58-.31.13-.83-.13-1.02-.54h-188.75c-.84,0-1.07.54-1.09.84,13.38-.59,26.83-.67,40.35-.25Z"/>
  <path d="M512.47,199.87c-.2.1-.38.31-.56.63.35-.21.51-.44.56-.63Z"/>
  <path d="M513.75,200.45c.18-.39.7-.93.61-1.31-.11-.48-.89-1.11-1.74-1.11l-94.68-.52-89.93-.46c.13.6.09,1.21,0,1.58l127.92.62,55.21.17c.5-.55,1.47-.15,1.34.44.39-.21.82,0,1.27.58Z"/>
  <path d="M362.05,202.92c9.85.02,19.76.03,29.69.03-9.71,0-19.4-.01-29.03-.03-.2,0-.4-.31-.59-.72-.06.4-.1.72-.06.72Z"/>
  <path d="M540.01,202.2c-48.96.53-99.03.76-148.27.76,49.3.01,99.48-.2,148.27-.76Z"/>
  <path d="M153.15,190.35c-1.52,15.04-11.06,28.63-25.76,34.11-11.18,4.17-23.13,3.02-32.5-3.58l-2.54-1.59c-2.72-.35-6.88-5.69-9.32-9.5-4.69-5.25-7.4-12.35-8.23-19.6l-1.06.95c2.48,20.58,20.83,37.98,41.25,37.08,25.31-1.12,43.33-24.18,38.17-48.07.66,3.66.32,6.89-.01,10.2Z"/>
  <path d="M74.8,190.19c-1.3-11.28,2.59-22.89,10.28-31.9,10.29-12.06,26.95-16.04,41.84-11.17,1.13.37,1.48,1.02,2.03,1.52,10.81,2.02,20.6,15.8,23.51,28.4.24,1.05.52,1.74,1.31,2.1-.48-9.62-5.65-18.45-13.17-25.33-11.39-10.41-27.8-12.86-42.26-6.76-17.25,7.28-26.85,25.41-24.59,44.08.07-1.19.42-1.51,1.06-.95Z"/>
  <path d="M78.56,171.37c2.04-4.34,3.81-9.29,7.83-11.68.09-4.7,15.98-14.35,30.56-13.55l12,2.5c-18.65-7.51-38.14-.43-48.27,16.9-4.7,8.04-5.37,15.82-5.87,24.65,2,6.72,4.1,13.54,8.23,19.6l-.9-3.34c-6.71-8.07-8.07-25.55-3.58-35.08Z"/>
  <path d="M151.87,190.29c.02,5.66-4.36,18.8-8.19,18.23l-.29,1.35-.8,1.7c-2.69,5.74-13.47,12.36-20.5,12.65-.08.43-.42.97-.82.94-4-.29-6.52,2.1-10.25.07l-1.64-.89c-.38-.21-1.17-.37-1.61-.24-1.14.33-2.71.75-4.22.16l-8.66-3.37c25.88,14.67,53.71-2.69,58.26-30.54-.24,1.63-.89,1.58-1.28-.06Z"/>
  <path d="M112.69,224.28h7.74c-.57-.59-2.46-1.27-2.47-2.56l-.11-18.7c0-1.37.87-2.44,2.17-3.34.83,1.01,1.89,1.76,2.97,2.45-.63-2.03-2.31-3.62-2.17-5.88-1.91.07-3.83.08-5.7,1.36,1.28.89,1.3,2.46.55,2.78-.46-.41-1.26-1.39-1.64-1.38-.41.01-.68,1.05-.86,1.44-.29.64.09,1.19,1.16,1.03,1.69-.25,2.68.96,2.68,2.42l-.44,19.14c-1.01.65-2.86.45-5.15-.19-.2-7.06-.97-14.1.16-20.82.34-2,.93-3.8,3.13-4.62-2.91-.51-5.34-.93-6.88-2.2-1,5.89-5.57,8.87-6.83,13.1l6.33-7.29c.67-.77,1.69-.71,2.16-.23.25.26.67.72.67,1.48l.1,16.13c.01,2.24-.16,4.2-.86,5.94,1.03-1.5,2.17-.85,1.64.89.13-.62.76-.95,1.67-.94Z"/>
  <path d="M126.37,221.86c-.89.87-2.32,1.66-4.28,2.35,8.1-2.37,15-5.96,20.5-12.65l-9.53,7.5c-2.12,1.7-4.3,2.56-6.7,2.79Z"/>
  <path d="M120.43,224.29c-1.19.3-2.42.51-3.67.67,1.51,0,3.02.06,4.52.19-.54-.12-.91-.22-.85-.86Z"/>
  <path d="M116.76,224.96c-1.9,0-3.81.08-5.73.27,1.98.07,3.88-.03,5.73-.27Z"/>
  <path d="M91.53,156.15c-1.29,2.58-3.48,3.65-5.27,5.25.11.13.58.51,1.29,1.04,2.18-2.23,4.04-4.37,6.43-6.17-2.43.4-3.39-.88.63-3.8.39-.28.8-.55,1.21-.82-1.93,1.07-3.65,2.41-4.27,4.04-2.08,0-3.8,1.33-5.17,3.99,1.74-1.03,2.49-3.11,5.14-3.54Z"/>
  <path d="M123.56,147.87c3.11.75,6.01,1.9,8.48,3.48-1.17-.9-2.21-1.8-3.09-2.7l-.51.56c-1.64-.54-3.26-.98-4.87-1.34Z"/>
  <path d="M103.02,172.4s.02-.05.02-.09l-7.73-4.37c3.81,2.59,7.44,4.86,7.71,4.46Z"/>
  <path d="M87.22,159.85h-.06c.06.16-.05.45-.34.85,1.87-2.33,2.01-2.62.4-.85Z"/>
  <path d="M107.88,223.41c.11-.52.29-.83.48-.95-.06-.24-.09-.49-.11-.76-.95-.17-1.86-.37-2.75-.61,1.3.72,2.26,1.51,2.38,2.31Z"/>
  <path d="M102.93,208.55l-1.94-.24-4.28,5.04c.26.71.42,1.42.48,2.13l5.74-6.93Z"/>
  <path d="M97.4,218.46c.16-.11,1.29.1,2.75.52-1.01-.54-1.99-1.16-2.97-1.88-.09.75-.28,1.51-.58,2.26.23-.36.48-.69.81-.9Z"/>
  <path d="M108.36,222.47c.17.75.51,1.37,1.03,1.87-.12-1.46-.61-2.12-1.03-1.87Z"/>
  <path d="M108.47,202.49l.08,16.49c-.27,1.03-.36,1.94-.3,2.73.11.02.22.04.33.06v-20.04s-5.65,6.81-5.65,6.81h.09s5.45-6.06,5.45-6.06Z"/>
  <path d="M126.37,221.86c3.33-2.94,7.74-2.46,6.92-7.1l-4.21-4.99c-2.67-1.78-5.14-4.59-6.09-7.63-.9.17-1.62.3-2.17.4l11.19,14c-3.41,3.02-7.13,3.8-11.82,5.47.6.56.75,1.17.24,2.28l.85.86c-.92-1.06-.48-1.52.82-.94.29-1.56,2.74-2.2,4.28-2.35Z"/>
  <path d="M119.56,202.78l.02,18.76c.09.06.17.12.25.18l-.12-18.97c-.09.02-.15.03-.15.03Z"/>
  <path d="M142.04,210.71c-.12-.14-.22-.39-.3-.81l-5.07,5.16c-.9.91-1.86.84-2.63.35.24.28.37.58.4.88,2.65-.84,5.05-2.52,7.21-5.06l.96.35c-.53-.31-.66-.6-.56-.86Z"/>
  <path d="M126.37,221.86c1.88-.49,3.47-1.21,4.79-2.15,0,0,0,0,0,0l-4.79,2.15Z"/>
  <path d="M131.17,219.71c2.29-1.25,3.37-2.4,3.26-3.43-.07.02-.14.05-.21.07-.76,1.33-1.79,2.45-3.06,3.36Z"/>
  <path d="M119.71,202.75c.19-.03.55-.1,1.11-.21l-1.12-1.4v1.61Z"/>
  <path d="M119.83,222.14c.12-.04.24-.08.36-.13-.11-.1-.23-.2-.36-.3v.42Z"/>
  <path d="M115.32,203.8l-2.62,1.01c.66.72,1.53.38,2.62-1.01Z"/>
  <path d="M131.43,209.86l-7.69-9.97c.1.86-.1,1.69-.75,2.25,2.74,1.78,4.12,5.29,6.09,7.63.62-.67,1.52-.49,2.35.09Z"/>
  <path d="M134.42,213.73l-1.02-1.32c.33.87.37,1.75-.11,2.34.54-.2,1.07-.45,1.58-.74-.16-.03-.31-.12-.45-.29Z"/>
  <path d="M128.36,194.41l15.88,1.88c-.74-.25-.73-.54,0-.88-5.47-.44-10.99-.96-16.55-1.56.37.24.59.42.68.56Z"/>
  <path d="M123.2,196.03s.02.06.02.09c.03,0,.06.02.09.03-.04-.04-.08-.08-.12-.12Z"/>
  <path d="M133.29,214.76c.21.25.46.47.74.65-.19-.22-.43-.44-.74-.65Z"/>
  <path d="M123.42,199.48l.31.4c-.02-.17-.05-.34-.09-.52-.07.04-.14.08-.22.11Z"/>
  <path d="M131.43,209.86l1.97,2.55c-.38-.99-1.14-1.97-1.97-2.55Z"/>
  <path d="M135.88,213.76c.34-.17.79-.62.94-1.12-.62.53-1.28.99-1.97,1.37.38.08.78-.14,1.02-.26Z"/>
  <path d="M123.16,198.18c-.27-.47-.6-.89-.99-1.22-.02,0-.04-.01-.06-.02-.27,1,.89,2,1.31,2.54-.22-.55-.3-.98-.26-1.3Z"/>
  <path d="M125.45,198.03c-1.29-.8-2.19-.71-2.29.15.21.38.37.78.48,1.19.71-.35,1.21-.84,1.81-1.34Z"/>
  <path d="M100.99,208.31l-1.27-1.5c.27-.4.53-.82.8-1.22-1.86,2.39-4.04,4.96-5.9,7.26.75-.09,1.45.07,2.09.51-1.79-1.91,2.05-6.26,4.28-5.04Z"/>
  <path d="M104.35,197.46c.28.17.41.44.43.79.39-.76.77-1.53,1.14-2.3l.71-.28c-.04-.24.04-.66.27-1.23-.9.97-1.83,1.95-2.78,2.93.08.02.16.03.23.08Z"/>
  <path d="M91.37,211.77l8.97-10.78-2.02-.48c-.35,2.3-2.38,3.89-4.45,5.06-.93,2.28-3.37,4.04-5.15,6.1.87-.69,1.75-.65,2.65.1Z"/>
  <path d="M104.78,198.25c-1.28,2.51-2.7,4.95-4.26,7.33,2.44-3.12,4.33-5.91,4.26-7.33Z"/>
  <path d="M97.4,198.28l-6.37,8.37c1-.78,2.08-1.27,2.85-1.08.89-2.18,2.26-3.88,4.45-5.06-.88-.53-1.18-1.28-.93-2.23Z"/>
  <path d="M88.7,209.52v.18s2.32-3.05,2.32-3.05c-.99.78-1.89,1.85-2.32,2.87Z"/>
  <path d="M92.39,155.13c3.06-.29,4.16-2.73,6.54-2.37,1.35,9.11,7.79,19.38,5.37,20.98-.51.34-1.45.55-2.29.04l-15.91-9.63c-.76-.46.03-2.21.15-2.75-10.81,9.67-11.56,29.59-4.11,44.12,3.23,3.87,6.78,7.52,10.67,10.95.65-.43,1.53.02,2.64,1.35-.31-.49-.51-.99-.33-1.37.46-.97.87-2.27,1.58-3.11-1.28.57-2.11,1.54-3.48,2.72-2.04-1.32-3.02-3.27-4.5-4.4-4.62-3.51-7.12-8.92-8.93-15.2l19.31-3.72c1.19-.23,2.32.65,2.43,1.44.28,2.09-2.83,3.8-3.21,6.32,3.17-1.78,4.28-6.32,8.57-6.07-3.02-2.57-4.35-6.19-3.42-10.41.71-3.24,2.67-7.07,6.77-8.65-2.07-.78-3.58-2.27-4.35-4.71l-5.92-18.66c-.21-1.21,4.41-2.6,4.82-1.45l5.39,15.08c1.1,3.09,2.24,6.05,1.09,9.32,4.89-1.33,9.49.43,12.07,4.85,2.85,4.88,1.24,10.54-1.11,14.91,2.45-.67,3.79,1.67,5.64,2.88-4.45-8.66,4.81-3.26,16.37-2.19,1.46.13,3.03.69,4.51,1.33-1.4,3.14-2.53,5.38-2.89,7.99,5.41-9.49,7.04-21.26,2.94-31.57-.41,5.17,2.26,9.47,1.36,14.78l-19.57-3.42c-.7-.12-1.48-1.14-1.64-1.57-.18-.47.31-1.47,1.01-1.89l14.45-8.55c.64-.38,1.4-1.38,1.96-.95l2.22,1.69c-.54-4.9-3.84-7.83-5.18-11.98-2.97-1.89-5.38-4.92-7.56-7.69-.66.82-1.14,1.22-1.45,1.22,3.37,2.54,6.02,5.59,8.53,8.67l-16.52,10.24c-.76.47-1.83.55-2.16.37-.49-.27-.82-1.65-.51-2.55l6.62-19.31c1.33.7,2.55,1.48,3.69,2.32-.12-.31-.12-.88.01-1.74-11.98-8.05-31.8-6.99-41.69,2.31ZM78.22,182.97c.82-4.12.53-8.1,2.88-11.88l17.03,9.97c.79.46,1.07,1.43,1.1,1.98.05.98-.79,1.68-2.08,1.84-13.69,1.65-20.6,6.47-18.93-1.91ZM98.88,191.29l-18.41,3.95c-1.27-1.65-1.69-3.39-1.54-5.81l17.62-3.48c2.32-.46,4.49.05,5.98,2.21-.76.63-1.89,2.75-3.65,3.13ZM104.07,180.26c-.49.57-2.08,1.32-3.52.5l-18.64-10.67c.49-2.59,1.69-4.12,3.12-5.13,7.85,5.29,22.51,11.21,19.04,15.3ZM148.96,189.57c1.21,1.2.11,4.88-.8,5.53l-20.3-4.4c-1.13-.25-2.22-1.83-2.16-2.6.39-4.51,14.14-1.21,23.26,1.48ZM143.43,164.37c1.38,1.83,2.13,3.41,2.73,5.68-6.58,4.06-19.18,11.99-21.46,10.42-5.09-3.5,11.69-10.27,18.73-16.1ZM128.61,152.25c-1.46,6.55-4.03,13.44-6.79,20.04-1.34,1.68-2.36,2.67-3.26,2.32-1.4-.55-2.25-2.35-1.68-3.99l6.89-19.88c.44-1.26,4.51.1,4.85,1.5ZM114.74,170.43c-2.74.78-5.94-13.11-8.95-20.99,5.91-1.36,11.44-1.34,17.23-.02-3.61,7.24-6.34,20.45-8.29,21.01Z"/>
  <path d="M123.56,147.87c-9.28-2.23-20.45-.82-27.74,3.79,1.25-.7,2.59-1.28,3.76-1.76,8.09-3.31,15.88-3.83,23.98-2.03Z"/>
  <path d="M86.85,163.16l8.46,4.78c-2.97-2.02-6.06-4.22-7.75-5.5-.23.24-.46.48-.71.72Z"/>
  <path d="M103.04,172.32l.47.26-5.73-18.6c-1.45.67-2.67,1.44-3.79,2.29,1.02-.17,2.31-.64,3.6-1.41.51.74,5.7,16.03,5.46,17.45Z"/>
  <path d="M97.19,215.48l-.84,1.01c.27.22.55.41.83.61.06-.54.06-1.08.01-1.63Z"/>
  <path d="M128.36,194.41l-.17-.02.17.22c.05-.05.06-.11,0-.2Z"/>
  <path d="M125.09,197.6c-.47-.55-1.16-1.26-1.78-1.45.54.56,1.16,1.06,1.78,1.45Z"/>
  <path d="M91.37,211.77l-.33.4c.49,1.14,1.53,2.11,2.47,2.06.35-.45.73-.92,1.11-1.39-.58.07-1.19.29-1.83.67-.48-.78-.95-1.34-1.42-1.73Z"/>
  <path d="M104.11,197.38c-.42-.12-.86.11-1.38.74l-2.39,2.88.18.04c1.23-1.22,2.43-2.44,3.59-3.66Z"/>
  <path d="M88.56,209.89c-.21.67-.2,1.3.16,1.78l-.02-1.97-.14.19Z"/>
  <path d="M88.7,209.45c-1.97-1.41-6.87-9.32-6.54-11.1.17-.93,16.47-4.12,17.55-3.42-1.3,1.32-2.06,2.43-2.31,3.36l3.07-4.04-19.08,3.36c1.58,4.72,3.16,8.65,7.1,12.38l.07-.09c.04-.12.09-.25.14-.37v-.07Z"/>
  <path d="M128.95,148.64c1.64,1.48,4.07,1.89,5.13,4.18.21.46,1.32.55,1.77.77,3.07,1.44,6.46,4.46,7.56,7.69,3.4,2.17,8.42,13.62,8.44,18.79l.03,10.22,1.28.06c-.88-2.85-.74-7.29.01-10.2.61-.12.62-.7.6-1l-1.15.47c-2.79-13.45-10.74-25.6-23.67-30.98Z"/>
  <path d="M134.08,152.82c-.64-.53-1.32-1.02-2.03-1.48.64.49,1.31.98,2.03,1.48Z"/>
  <path d="M107.78,224.09l-4.46-2.23c-3.04-.18-4.41-1.64-6.73-2.5-4.63-1.72-12.21-9.49-14.44-13.84-1.64-2.41-2.9-5.18-3.81-8.13.92,3.12,2.19,6.17,3.8,9.06.83.96,1.99,2.61.9,3.34,3.37,2.82,6.49,6.06,9.32,9.5.98-1.18,3.04.15,2.54,1.59l.73-.82c3.89,1.93,7.94,3.27,12.15,4.03Z"/>
  <path d="M83.04,209.79c2.79,3.5,5.9,6.67,9.32,9.5-3.42-2.85-6.53-6.02-9.32-9.5Z"/>
  <path d="M107.88,223.41c-.04.2-.08.42-.1.68.11-.23.14-.45.1-.68Z"/>
  <path d="M105.5,221.1c-1.59-.88-3.69-1.64-5.35-2.11,1.71.92,3.47,1.61,5.35,2.11Z"/>
  <path d="M96.59,219.36c-.4-.6-.78-1.11-1.13-1.54.36.57.86,1.14,1.13,1.54Z"/>
  <path d="M143.41,161.28c-2.24-2.81-4.76-5.42-7.56-7.69,2.79,2.28,5.29,4.9,7.56,7.69Z"/>
  <path d="M86.26,161.4c.29-.47.11-1.3.13-1.71-1.43,1.53-2.69,3.16-3.8,4.86,1.08-1.43,2.31-2.57,3.67-3.15Z"/>
  <path d="M86.39,159.69l.77.15c-.07-.18-.32-.23-.77-.15Z"/>
  <path d="M86.26,161.4c.24-.27.42-.49.56-.7-.17.22-.36.45-.56.7Z"/>
  <path d="M82.59,164.55c-2.22,2.93-3.81,7.06-4.66,10.08-1.94,6.98-1.87,15.43.4,22.76-3.27-11.11-2.04-23.17,4.26-32.84Z"/>
  <path d="M145.86,204.74l-.74-.68,2.37-5.73c-.47-1.15-1.55-2.12-3.24-2.91v.88s2.83,1.7,2.83,1.7c-1.27,4.04-3.75,7.34-5.61,10.57l.27,1.34,1.67-.03c-1.36-.71-1.26-1.36.29-1.35-.79-1.34.72-3.54,2.17-3.77Z"/>
  <path d="M142.04,210.71c.3.34.75-.09,1.36-.84-.69.21-1.23.5-1.36.84Z"/>
  <path d="M141.73,209.89l-1.15-.02c.01.26.39.27,1.15.02Z"/>
  <path d="M141.08,209.54c.23-.15.34-.56.38-.98-.43.46-.69.8-.81,1.05.19,0,.36-.02.43-.07Z"/>
  <path d="M148.03,202.08c1.86-3.55,3.14-7.47,3.84-11.79-.03-2.85-.18-5.69-.52-8.49.44,6.45-.8,13.12-3.32,20.28Z"/>
  <path d="M145.86,204.74c-.19,1.4-1.4,2.65-2.17,3.77,1.06-1.24,2.03-2.54,2.9-3.91-.2.08-.43.13-.73.14Z"/>
  <path d="M143.41,161.28c1.72,2.34,3.14,4.68,4.28,7.02-1.13-2.42-2.53-4.77-4.28-7.02Z"/>
  <path d="M147.56,203.38c.16-.44.32-.87.47-1.3-.45.86-.93,1.71-1.45,2.52.5-.2.76-.63.98-1.22Z"/>
  <path d="M151.35,181.8c-.32-4.58-1.49-9.05-3.66-13.5,2,4.3,3.1,8.84,3.66,13.5Z"/>
  <path d="M134.4,154.81c-.11-.08-.22-.17-.34-.26.07.18.18.26.34.26Z"/>
  <path d="M130.5,190.06c.05-.37-.42-1.18-.64-1.28-.27-.13-.08-1.09.25-1.18.35-.09,1.05.82,1.42.7-.37-.62.23-.89,1.81-.8-1.85-.37-4.86-1.19-6.19.79.43,1.17,2.48,2.21,3.35,1.78Z"/>
  <path d="M114.91,196.45c.26-.31.54-.6.83-.85-.56.09-1.11.13-1.65.12.35.22.63.46.82.73Z"/>
  <path d="M121.52,192.16c-.79,1.05-1.8,1.94-3.06,2.58.76.14,1.55.6,2.36,1.52.72-.02,1.11-.99,1.41-1.54-.65-.69-.88-1.55-.71-2.56Z"/>
  <path d="M112.98,199.44c-.01.11-.03.21-.04.31.06-.13.12-.26.18-.39-.05.02-.09.05-.14.07Z"/>
  <path d="M112.56,202.2l-.12-.72c-.23.36-.51.55-.87.55-.03,1,.85,2.05,1.12,2.78.07-.39-.07-1.59.02-2.14.07-.42,1.12-.61,1.71-.08.32.28.9.55.89,1.21,2.36,5.44-.45,14.56,1.24,19.25l.02-14.47c.54-4.99-.8-7.12-4.02-6.38Z"/>
  <path d="M110.14,194.75c-1.08-.55-2.04-1.32-2.85-2.23l-.4,1.93.92.76c.64-.31,1.46-.45,2.33-.46Z"/>
  <path d="M122.13,196.92c-.4-.34-.85-.58-1.31-.66.49.39.93.6,1.3.68,0,0,0-.02,0-.03Z"/>
  <path d="M123.22,196.13c-.27-.06-.53,0-.75.21-.18.19-.29.38-.35.58.02.01.03.03.05.04.73.15,1.16-.23,1.04-.83Z"/>
  <path d="M107.82,195.2l-1.2.47c.07.43.51.32,1.2-.47Z"/>
  <path d="M122.22,194.72c.26.46.59.9.97,1.31-.1-.38-.4-.84-.97-1.31Z"/>
  <path d="M115.11,221.63c.14-.09.31-.18.52-.28.25-5.88.15-11.73-.31-17.55l-.2,17.81s0,.01,0,.02Z"/>
  <path d="M111.64,204.01l.6,18.32c.89-.03,1.66,0,2.34.11-.05-.13-.03-.26.08-.41-.73.22-2.07-.03-2.06-1.07l.1-16.14c-.55.19-.9-.08-1.06-.8Z"/>
  <path d="M111.64,204.01l-.07-1.98c-.06.86-.04,1.51.07,1.98Z"/>
  <path d="M116.56,223.04c-.51-.3-1.18-.49-1.98-.61.14.37.89.61,1.98.61Z"/>
  <path d="M114.65,222.02c.26-.08.44-.21.45-.4-.22.14-.36.27-.45.4Z"/>
  <path d="M115.74,195.61c.26-.04.52-.09.78-.15.7-.17,1.34-.41,1.93-.71-.98-.19-1.89.17-2.71.86Z"/>
  <path d="M114.09,195.73c-.99-.61-2.52-.98-3.95-.98,1.19.61,2.52.96,3.95.98Z"/>
  <path d="M122.46,189.84c-.52.85-.82,1.62-.95,2.32,1.16-1.54,1.84-3.39,2.11-5.15.54-3.51-1.44-7.59-4.74-9.76-3.72-2.46-8.9-.86-11.67,1.98-2.88,2.95-3.15,7.71-1.53,10.94.43.85.97,1.64,1.6,2.34v-.02c-10.56-17.4,19.77-24.16,15.17-2.66Z"/>
  <path d="M117.29,191.05c2.93-1.77,4-5.12,2.19-7.97-1.68-2.63-4.9-4.39-8.37-2.38-3.1,1.8-3.46,6.44-1.67,9,1.7,2.43,5.14,2.98,7.85,1.35ZM109.74,186.42c-.16-2.5.93-4.97,4.21-5.22,2.43-.18,4.66,1.91,4.8,3.65.24,3.01-1.19,5.51-3.82,5.81-2.72.31-5.02-1.33-5.2-4.24Z"/>
  <path d="M617.82,143.89c-8.49-.23-17.46,1.99-24.48,6.92-20.8,14.62-23.76,45.13-7.54,63.33.82-.52,1.07-1.29,1.16-2.07-2.43-1.8-3.26-4.86-4.54-7.24-.81-.02-1.36-.4-1.9-1.47-6.76-13.55-4.62-29.17,3.67-41.17l1.9-1.43c-.13-1.21.18-2.04,1.3-3.19,11.19-11.5,29.41-16.3,43.46-9.08,6.02,1.05,12.16,6.37,15.46,11.89,6.16,5.14,10.36,20.43,9.06,29.51-1.19,8.27-3.6,17.09-9.81,22.48-.26,4-13.23,12.52-23.03,13.86l.83,1.07c6.73-1.12,12.84-3.63,18.53-8.52,15.82-13.6,19.56-37.62,8.66-55.47-7.26-11.88-18.82-19.03-32.73-19.42Z"/>
  <path d="M622.52,226.23c-1.51.21-2.84,1.18-4.32-.1-1.08.3-2.8.94-4.2.81-5.83-.54-14.92-2.73-16.96-5.94-2.35-.68-4.15-1.7-6.01-3.48l-1.09.68c9,8.79,20.98,11.17,33.4,9.1-1.37-.03-1.64-.38-.83-1.07Z"/>
  <path d="M591.04,217.52l.76-.88.03-.86c-1.86-.8-2.99-2.76-4.03-4.39l-.84.68c2.18,1.28,1.41,3.32-1.16,2.07l4.15,4.06c-.73-1.48-.17-1.8,1.09-.68Z"/>
  <path d="M645.55,212.36c12.09-14.99,12.34-36.73.76-51.98,18.11,29.85-.67,49.51-.76,51.98Z"/>
  <path d="M586.09,160.76c.54-1.03,1.4-2.3,2.42-3.49-.97,1.03-1.81,2.17-2.42,3.49Z"/>
  <path d="M596.1,151.7c-1.23.74-2.49,1.51-3.7,2.33.7-.33,1.4-.51,2.06-.43.9-.33,1.7-1.51,2.92-1.31,0-1.57.64-1.73,1.32-.3.51-3.58,14.63-6.6,18.7-5.88l13.46,2.39c-12.64-4.61-23.32-3.66-34.75,3.2Z"/>
  <path d="M618.2,226.13c1.58-.07,3.02-.04,4.32.1,8.48-2.65,17.51-6.13,23.03-13.86-5.27,4.57-10.47,9.95-17.54,11.46l-9.81,2.3Z"/>
  <path d="M630.85,148.5c6.04,3.11,10.59,7.82,15.46,11.89-4.28-4.94-9.2-9.66-15.46-11.89Z"/>
  <path d="M597.05,220.99c5.28,2.82,10.93,4.8,16.96,5.94-1.55-.63-2.95-1.26-4.17-1.89-4.64-.31-8.54-2.83-12.78-4.05Z"/>
  <path d="M591.8,216.64c1.21,1.1.79,1.56-.76.88,2.07.76,4.08,1.92,6.01,3.48-1.26-1.94-3.53-3.02-5.25-4.36Z"/>
  <path d="M597.99,220.17c2.38.64,9.27,2.96,11.31,3.93.12.06.22.17.3.32.03-.03.05-.06.08-.09l.29-1.32c-1.79.83-3.05-.48-4.57-1.07l-6.75-2.64c-3.27-1.28-4.33-2.43-6.82-3.51.58.27.56.56-.03.86,1.7.53,6.56,2.62,5.25,4.36.37-.51.71-.89.94-.83Z"/>
  <path d="M583.44,204.81c.26.31,3.76,5.8,3.91,6.13.03.06.03.14.03.21.13.07.27.14.42.24l1.06-.9c-2.95-2.26-4.46-5.91-6.19-9.22-.46-.78-.77-1.51-.96-2.2-3.28-8.18-3.71-17.73-.09-25.77.29-1.92.73-2.91,1.6-4.42,1.04-1.81,1.22-4.43,3.23-5.84.53.89.98,1.63,1.48,2.12.19.12.37.25.57.43l1.67.89c2.32.2,4.18,1.71,6.34,2.99l7.52,4.46c.74.44,1.93.36,2.47-.09.39-.33.59-1.08.28-2.02l-6.04-18.49c-.23-.7-.82-1.14-1.23-1.46.07.62-.65.79-.81.11-.35.13-.97.36-1.32.3.27.25.7.77.77,1.08l-5.92,3.99c-.12-1.88,1.7-2.44,2.24-3.76-1.18.43-2.17.77-3.29,1.93l-5.07,5.23c1.69,2.06-.09,2.33-1.9,1.43.08,1.63-.59,3.54-1.59,5.09-6.32,9.72-5.89,26.93-.18,37.55.48-.13.88-.19,1.02-.03ZM599.5,153.98l6.13,19.12-16.92-9.6c2.91-4.09,6.34-7.02,10.78-9.52Z"/>
  <path d="M587.38,211.15c-1.13-.6-1.47-.15-.42.92.23-.35.4-.67.42-.92Z"/>
  <path d="M588.51,157.27c1.14-1.22,2.47-2.28,3.88-3.24-1.35.64-2.72,1.88-3.88,3.24Z"/>
  <path d="M578.78,197.19c.1.33.22.65.33.98-.12-.32-.23-.65-.33-.98Z"/>
  <path d="M584.19,162.19c-4.02,7.05-6.71,15.22-6.96,23.29.27-8.05,2.99-16.17,6.96-23.29Z"/>
  <path d="M582.42,204.83c-1.35-2.05-2.41-4.18-3.21-6.37.8,2.2,1.86,4.33,3.21,6.37Z"/>
  <path d="M579.11,198.17c.04.1.07.2.1.3-.04-.1-.07-.2-.1-.3Z"/>
  <path d="M578.78,197.19c-1.2-3.78-1.67-7.73-1.54-11.71-.13,3.97.33,7.91,1.54,11.71Z"/>
  <path d="M596.14,153.73c-.56.29-1.2.33-1.69-.13.22.92.98.7,1.69.13Z"/>
  <path d="M596.14,153.73c.57-.3,1.07-.87,1.23-1.44-.24.46-.72,1.04-1.23,1.44Z"/>
  <path d="M588.88,208.53c.2.66.2,1.31-.02,1.97.36-.39.66-.65.92-.81-.31-.39-.61-.78-.9-1.16Z"/>
  <path d="M598.21,199.37l-7.88,10.17c.45.08.64.79.57,2.08.37-2.47,2.61-3.91,4.53-5.15.55-1.58,2.24-2.94,3.39-4.15-.75-.84-.95-1.82-.6-2.95Z"/>
  <path d="M591.89,196.05l8.54-1.36c-1.44.16-5.04.74-8.54,1.36Z"/>
  <path d="M583.64,199.32c-.14.77-.45,1.43-.97,1.96.88.08,1.67.47,2.37,1.14-.49-.97-.96-2-1.4-3.11Z"/>
  <path d="M587.2,206.1c-.59-1.66-1.31-2.87-2.16-3.68,1.12,2.22,2.37,4.16,3.84,6.11-.25-.81-.8-1.62-1.68-2.43Z"/>
  <path d="M604.6,179.16c-1.09-.19-2.13-.46-3.13-.8,1.91.84,2.95,1.1,3.13.8Z"/>
  <path d="M584.25,169.03c-2.46,2.49,6.85,3.45,10.94,8.46l1.72-1.16c-3.35-1.82-6.47-4.08-9.93-5.81-.66-.16-1.79-.72-1.64-1.16.2-.61.55-1.35.81-1.73.38-.56,1.93-.59,2.71.08.22.15.44.29.66.44l.66-1.67c-1.46,1.76-2.11,1.34-1.67-.89-2.31-.46-3.78,1.28-4.25,3.43Z"/>
  <path d="M584.25,169.03l-1.03-.14c.11.19.19.36.28.53.17-.19.41-.33.75-.39Z"/>
  <path d="M583.24,171.91c2.74-.27,7.66,4.91,11.95,5.58-3.61-2.32-7.36-4.37-11.24-6.17-.09.31-.34.5-.71.59Z"/>
  <path d="M581.87,172.81c.28-.46.63-.72,1.03-.84-.18.01-.38.01-.6,0l-.43.85Z"/>
  <path d="M583.49,169.42c-.3.35-.39.87-.47,1.46.31.14.62.3.93.44.12-.43-.04-1.07-.46-1.9Z"/>
  <path d="M584.25,169.03c-.1-.75.03-1.61.34-2.36-.49.57-.95,1.29-1.37,2.22.53-1.13.83-1.1,1.03.14Z"/>
  <path d="M584.59,166.67c1.12-1.29,2.42-1.66,3.91-1.08-.2-.11-.39-.25-.57-.43-1.5-.93-2.75.08-3.34,1.5Z"/>
  <path d="M638.34,191.55l11.23,2.24c.36-1.26.21-1.94.21-2.66-1.04,1.31-1.61,1.21-1.24-.01-.07.15-.15.3-.25.43-.56.72-16.03-2.4-17.23-4.7,1.46,2.88,3.84,4,7.28,4.69Z"/>
  <path d="M624.83,197.07c.35.08.69.18,1.01.31-.53-.38-.89-.51-1.01-.31Z"/>
  <path d="M644.32,207.24c.44-.22,1.12-.24,1.97.05l-1.19-1.21c-.26.39-.51.78-.78,1.16Z"/>
  <path d="M643.79,207.98c-.54.76-1.11,1.52-1.7,2.3l-4.95-6.43c.71,3.89-1.54,3.06-3.65,1.54l5.39,7.03c-.28,1.21-1.96,1.97-2.25,1.63l-1.35-1.6c-2.67-3.17-5.31-6.12-7.63-9.47l-.97,1.82,6.97,8.39,3.26,2.99,7.72-6.48c-.65-.65-.9-1.25-.86-1.71Z"/>
  <path d="M626.17,220.76c-.66.18-1.33.35-2.03.51.77.23,1.37.66,1.8,1.31-.22-.89-.09-1.51.23-1.82Z"/>
  <path d="M636.03,216.83c-1.48-1.14-2.34-2.25-2.37-3.64-.52.51-1.1.58-1.78.52-.55-.05-7.13-7.58-5.19-8.91-1.04.34-2.17.03-3.37-.91l10.65,12.76c-2.09,1.99-4.43,3.09-7.06,3.89.51.07,1.1.5,1.57,1.32l7.48-4.7c-.03-.12,0-.24.06-.34Z"/>
  <path d="M638.29,215.99c-.08.06-.15.12-.23.17.02,0,.04,0,.07,0,0,0,.07-.07.17-.16Z"/>
  <path d="M636.16,217.52l-7.67,4.34,7.77-4.21s-.07-.09-.1-.13Z"/>
  <path d="M636.95,216.34c-.57-.55-1.66-1.6-3.28-3.15.88,1.19,1.69,2.36,2.45,3.54.16-.15.43-.28.83-.38Z"/>
  <path d="M634.5,153.43c-.24.38-.6.67-1.09.87,1.13.68,2.16,1.38,3.14,2.12l.35-1.81c-1.72,1.33-2.89.51-2.4-1.18Z"/>
  <path d="M639.62,165.38l-11.47,6.43c2.31-.99,7.93-4.21,11.47-6.43Z"/>
  <path d="M627.87,168.29l2.5-7.53c-.9,2.52-1.85,5.33-2.5,7.53Z"/>
  <path d="M599.44,217.43c.01.26-.01.51-.07.74.37-.04,1.1.11,2.01.37-.64-.36-1.28-.73-1.93-1.11Z"/>
  <path d="M607.97,221.33c1.01.59,1.77,1.18,2,1.68.03-.42.04-.84.06-1.26-.71-.1-1.4-.24-2.07-.42Z"/>
  <path d="M610.29,202.11l-.09.11.18,8.42c.02-2.84,0-5.68-.09-8.53Z"/>
  <path d="M607.97,221.33c-1.89-1.11-4.65-2.23-6.59-2.79,2.14,1.2,4.25,2.19,6.59,2.79Z"/>
  <path d="M600.99,202.36l.87-1.04c-.38.42-.69.78-.87,1.04Z"/>
  <path d="M606.69,198.61c.14-.21.25-.37.3-.47,1.05-1.9.17-1.58-1.22-.5.4.17.77.55.92.97Z"/>
  <path d="M595.43,206.47c-.76,2.16-2.31,4.03-4.53,5.15.65.02,1.26.22,1.85.6.16-.47.7-.87,1.04-1.27l6.91-8.25-1.89-.38c1.47,2-1.12,4.4-3.39,4.15Z"/>
  <path d="M593.32,178.75l2.57,1.55c-.67-.9-.91-1.84-.7-2.81-.39.91-1.02,1.32-1.87,1.26Z"/>
  <path d="M583.12,174.68c.09-.31.19-.64.28-.96-.59-.16-1.18-.31-1.79-.41l1.57.97c-.03.13-.05.27-.07.4Z"/>
  <path d="M581.62,173.31l.25-.5c-.09.15-.18.31-.25.5Z"/>
  <path d="M583.24,171.91c-.12.01-.23.03-.33.06.13,0,.23-.04.33-.06Z"/>
  <path d="M593.32,178.75l-9.67-5.84c-.09.28-.16.54-.24.81,2.53.7,4.95,1.98,7.27,3.85,1.05.75,1.93,1.13,2.65,1.18Z"/>
  <path d="M598.69,151.99l.81-.11c5.88-4.37,16.98-5.23,23.96-3.58,3.86.91,8.25,1.6,11.33,4.4l2.11,1.91c9.16,5.74,15.46,16.35,15.3,27.16l-2.36-7.74-.69,1.3c.96,2.93,2.14,7.84,1.48,11.59l-12.25-2.6.31.88,2.68,1.57-9.53-.85c-1.63-.14-3.18.08-4.02,1.22.99.48,2.41-.22,3.24-.28l17.7,3.64c.65-.58.34-1.78-.21-1.82-.77-.06-1.94.26-3.1-.56,1.95-.87,3.85-.09,6.5.29.35-2.33-.28-4.48,1-6.67.35,8.5-1.02,20-6.67,25.57l-1.65,2.41c-1.26,4.44-9.56,10.33-16.15,12.17l-2.55.71c-1.01,1.08-2.71,1.51-4.45,1.53l-11.81.21.15.72c1.59.11,3.59-.1,4.17,1.89.43-1.76,3.24-2.26,4.2-.81l.15-1.02c9.87-1.02,19.48-5.21,26.04-12.93l1.16.18-.7-.84c11.03-14.62,11.63-34.16,1.31-49.65l.15-1.49-1.31.07-9.52-8.16c-2-1.09-3.54-2.36-4.63-3.79l-.39.78c-10.53-2.95-22.63-4.3-31.77,2.71Z"/>
  <path d="M609.83,225.04c-.06-.24-.14-.46-.24-.63-.36.36-.31.58.24.63Z"/>
  <path d="M643.79,207.98c.18-.25.36-.5.53-.74-.31.16-.5.41-.53.74Z"/>
  <path d="M644.64,209.7c-3.69,3.65-5.8,5.74-6.36,6.29,2.4-1.8,4.63-3.86,6.36-6.29Z"/>
  <path d="M638.06,216.16c-.44.04-.81.11-1.11.18.17.16.29.28.37.36.25-.18.49-.36.74-.54Z"/>
  <path d="M636.12,216.73s-.06.07-.09.1c.07.06.14.11.22.17l-.27.17c.02.11.09.23.19.35l1.27-.72s-.05-.04-.11-.11c-.28.2-.55.39-.83.58-.12-.18-.25-.37-.37-.55Z"/>
  <path d="M626.17,220.76c.25-.07.5-.14.75-.22-.29-.04-.55.03-.75.22Z"/>
  <path d="M608.53,149.53c-.68.64-.65,1.92-.26,3.02l5.33,15.14c.43,1.23,2.89,3.3,3.47,1.87l7.83-19.4c.11-.25-.83-.86-1.44-1.86l-12.73.38c-.89,0-1.83.49-2.2.85ZM623.36,150.61l-7.68,18.34-6.45-18.05c4.93-2.22,9.72-1.91,14.13-.3Z"/>
  <path d="M615.07,148.02c3.45-.05,6.93.18,8.39.28-2.84-.38-5.64-.46-8.39-.28Z"/>
  <path d="M625.94,222.58c-1.34.37-2.84.34-4.84.79,1.03.65,2.64.39,4.84-.79Z"/>
  <path d="M645.41,162.91l-8.51-8.3,8.43,8.7c.02-.14.04-.27.08-.4Z"/>
  <path d="M581.71,199.08c.3.74.61,1.48.96,2.2-.63-1.2-.8-2.81-.98-4.57-.22.71-.21,1.5.03,2.37Z"/>
  <path d="M596.46,217.7l2.19,1.59c-.4-.85-.97-1.51-2.38-2.34l12.41-15.79c.55-.7,1.71-.88,2.24-.62.46.23,1.1.78,1.1,1.79v20.14c0,.63-1.05.83-1.67.7.35.17.54.34.58.5.83-.38,1.72-.68,2.65-.9-.08-.08-.14-.17-.18-.27l-.16-21.84c-.01-1.54,1.08-2.4,2.02-2.73,1.31-.46,2.98.32,2.6,1.68l-2.53-.28c-.82-.09-.99,1.64-.16,1.85.52.13,1.4-.19,3.33-.7.92,7.36.76,14.51.24,21.83.5.02,1,.06,1.52.11.02.05.06.08.08.13l-.39-20.34c-.02-1.03.9-1.56,1.36-1.79,1.09-.55,3.05,1.6,5.36,4.38-1.15-4.37-5.66-6.22-2.9-9.97,6.12.72,7.43,8.33,12.65,10.7l-7.78-10.35c-.4-.53-.27-1.46-.08-1.81.18-.32.81-.85,1.63-.7l20.02,3.68c-.25-.35-.3-.74-.03-1.1,2.07-2.72,2.73-6.26.72-5.91.04.03.08.05.12.09.73.63.63,3.43.02,4.31-.41.6-1.86,1.2-3.05.97l-17.89-3.4c-.99-.19-2.19-.97-2.59-1.51-.44-.58-.21-2.14.26-2.65-.89-2.77,1.61-3.27,7.49-1.51,2.05.46,3.17.32,3.38-.43-2.74,0-5.76-.13-8.89-2.1,5.5-5.69,14.78-8.21,18.25-12,.55-.6,1.27.04,1.35.45l.45,2.48c.82,0,.79-.97-.09-2.91-.46-.22-.95-.61-1.44-1.11,0,.02.01.04.02.07l-18.22,10.31c-1.94,1.1-3.8.36-4.38-.74-.91-1.71.18-3.19,1.72-4.09l18.03-10.55c-.12-.47-.17-.91-.17-1.32l-11.39,6.52c-2.94,1.68-5.59,4.59-9.55,3.39l6.93-19.75c.49-1.39,2.64-1.51,3.51-1.16-.54-.28-1.13-.52-1.75-.55-1.01-.05-2-.16-2.96-.34.26,1.16-.03,2.62-.48,3.88-2.74,7.57-6,20.49-9.49,18.72-.85-.43-1.92-1.7-1.62-2.9.17-.68.35-1.36.54-2.04-.28.55-.48.9-.58.98-1.37,1.13-1.93,1.48-3.7.8-.54-.21-1.23-1.1-1.98-2.41l.46,1.35c.63,1.85.02,3.98-1.22,4.1-1.67.16-3.04-1.47-4.27-4.02.46,2.04.68,3.54.5,3.91-.39.78-1.43,1.65-2.3,1.65l-15.77-9.37,1.18,1.38c6.8,3.5,17.07,9.1,14.64,12.26-2.22,2.88-6.49-1.93-10.79-2.64,2.13,2.61,10.64,6.02,4.7,7.23l-19.13,3.9c-1.12-2.14-.82-4.2-.46-6.53l1.33-8.78c-1.77,5.13-2.32,10.25-1.64,15.37.32.5.6,1.04.86,1.61.16-.45.39-.78.7-.84l11.97-2.65c5.11-1.13,10.4-1.44,11.18.55,1.63,4.17-13.23,6.46-22.59,7.22.06.34.13.66.18,1.01-.16.21-.29.43-.4.66l20.94-3.64c1.16,4.35-3.41,6.07-4,9.71l3.37-3.57c1.28-1.35,2.78-4.06,5.11-4.06,1.12.03,1.9,3.38,1.05,4.47l-13.09,16.72c-2.23-.02-4.09-2.6-4.35-4.26-.66-.35-1.41-.64-2.04-1.12.37.69.44,1.14.29,1.34,1.29.82,2.15,2.62,2.68,3.95,3.11-.07,4.65.57,4.63,1.92ZM605.44,187.84c-.84-7.23,3.8-13.64,11.27-13.31,4.01.18,8.41,3.7,9.64,7.87,2.08,7.08-1.83,12.94-7.87,14.43-6.08,1.5-12.28-2.46-13.04-9Z"/>
  <path d="M649.77,191.13c-.03-.64.02-.98.11-1.32,0-.03.02-.05.03-.08-.34.19-.72.43-1.15.76.02.6.6.78,1.01.64Z"/>
  <path d="M651.04,197.01c-.15-.09-.29-.18-.42-.28l-4.33,10.56c1.04-1.64,5.04-9.07,4.74-10.28Z"/>
  <path d="M589.15,211.83c-.41-.26-.86-.42-1.35-.44.71.55,1.18.66,1.35.44Z"/>
  <path d="M581.69,196.71c.05-.16.11-.31.19-.46l-.23.04c.01.14.03.28.04.42Z"/>
  <path d="M589.78,209.69c.08.1.14.19.22.28l.33-.43c-.15-.03-.33.01-.55.14Z"/>
  <path d="M583.69,197.66c.38-.19,4.22-.92,8.2-1.61l-8.94,1.42c.22.64.45,1.26.69,1.85.09-.51.13-1.05.05-1.66Z"/>
  <path d="M600.83,195.63c-1.41,1.39-2.28,2.63-2.62,3.74l3.82-4.94-1.6.25c.29-.03.5-.05.6-.04.3.02,0,.7-.2.99Z"/>
  <path d="M603.32,177.27c1.01,1.02,1.43,1.64,1.28,1.89.16.03.31.06.47.09-4.21-5.93-10.35-7.65-15.56-11.1l-.05.13c4.75,2.78,9.37,5.78,13.86,8.99Z"/>
  <path d="M597.07,176.22l-.16.11c1.46.79,2.97,1.5,4.56,2.04-1.15-.51-2.62-1.22-4.4-2.15Z"/>
  <path d="M630.51,194.45l17.86,3.28-3.37,8.24.11.11c1.84-2.79,3.24-5.59,3.87-8.78l-19.37-3.23,7.53,9.79c-.02-.1-.03-.19-.05-.3l-6.59-9.11Z"/>
  <path d="M631.79,204.01c.51.45,1.1.94,1.7,1.38l-2.82-3.67c-1.36-1.78-2.77-3.51-4.84-4.34,1.54,1.11,4.41,4.23,5.95,6.63Z"/>
  <path d="M624.83,197.07c-.23-.05-.45-.11-.69-.14,1.04,2.21,2.23,4.19,3.52,6.05l.11-.2c-2.43-3.68-3.16-5.33-2.94-5.71Z"/>
  <path d="M621.22,221.91c1.01-.21,1.99-.42,2.93-.63-.6-.18-1.3-.25-2.1-.18l-.42-18.88c.59.7,1.15,1.24,1.71,1.67l-1.93-2.31c.12,7.49.54,13.32-.18,20.32Z"/>
  <path d="M642.7,163.24c-.12.23-1.35,1.07-3.08,2.14l3.99-2.23c-2.66-2.89-4.72-4.95-7.05-6.72l-.04.23,6.19,6.58Z"/>
  <path d="M627.13,172.1c-.25-.12.1-1.68.74-3.81l-1.5,4.51,1.77-.99c-.54.23-.9.34-1.01.29Z"/>
  <path d="M633.42,154.31c-.25-.15-.48-.3-.74-.45l-2.3,6.9c1.14-3.19,2.18-5.89,2.41-6.25.23-.05.44-.13.63-.21Z"/>
  <path d="M609.97,223.01c.07.08.22.14.39.17-.12-.06-.24-.11-.39-.17Z"/>
  <path d="M599.13,218.26c-.23.29-.37.65-.47,1.03.37-.32.61-.7.72-1.12-.12.01-.2.04-.25.09Z"/>
  <path d="M610.2,202.23v-.63s-12.4,14.85-12.4,14.85c.56.33,1.11.66,1.65.98-.02-.41-.13-.85-.34-1.32l11.09-13.87Z"/>
  <path d="M610.62,221.84l-.24-11.19c-.02,3.71-.14,7.41-.34,11.1.2.03.38.07.58.09Z"/>
  <path d="M600.99,202.36l-.29.34.08.02c.02-.08.1-.21.21-.36Z"/>
  <path d="M605.78,197.64c-.33-.14-.67-.15-.9.07l-3.01,3.6c1.06-1.16,2.69-2.71,3.92-3.67Z"/>
  <path d="M592.77,212.79c.19.42.87,1.13,1.3,1.3.54.21,1.48-.34,2.15-1.2l10.35-13.39c.21-.27.22-.59.12-.89-1.93,2.83-11.36,14.97-12.22,15.34-.54-.77-1.12-1.34-1.72-1.73-.06.18-.07.37.02.57Z"/>
  <path d="M599.51,183.06l-17.7,3.58c.07-4.01.52-8,1.31-11.96-1.22,4.29-1.84,7.94-1.78,12.42l19.06-4.08-4.52-2.73c.71.96,1.91,1.88,3.62,2.76Z"/>
  <path d="M610.94,223.68c-.43.2-.85.41-1.26.65.9-.12,1.34-.36,1.26-.65Z"/>
  <path d="M601.6,152.19c.1-.1.19-.21.3-.31-.14-.24-.26-.4-.35-.42l-2.05.42c.58.3,1.31.38,2.1.31Z"/>
  <path d="M648.76,190.49c-.1.24-.18.44-.23.63.09-.2.17-.41.23-.63Z"/>
  <path d="M650.62,196.73l.12-.29-.5-.09c.1.13.22.26.38.38Z"/>
  <path d="M621.1,223.37c-.3-.19-.54-.47-.74-.82l.02.99c.25-.07.49-.12.72-.18Z"/>
  <path d="M634.8,152.7c-.13.26-.23.5-.29.73.13-.22.24-.45.29-.73Z"/>
  <path d="M645.33,163.31c-.02.12-.02.26-.02.39l.26-.15-.24-.24Z"/>
  <path d="M608.17,149.08c2.27-.56,4.57-.9,6.91-1.06-3.82.06-7.6.46-8.58,1.76-.06.07-.09.2-.11.35l.08.24c.7-.43,1.29-.89,1.7-1.3Z"/>
  <path d="M626.13,150.44c.11-.07.22-.13.35-.17,0-.11,0-.21-.02-.25l-2.99-1.71c.79.91,1.69,1.59,2.67,2.14Z"/>
  <path d="M634.73,184.28c1.23.06,2.32.28,3.28.64-.01-.15.1-.34.36-.6-2.06-.44-4.01-.49-6.34-1.83,0,1.17,1.29,1.54,2.69,1.79Z"/>
  <path d="M632.18,181.72c-.1.28-.13.52-.14.74l16.11-9.25c.71-.41.83,1.6,1,2.13-.1-.81.13-1.24.69-1.3-.54-.63-1.31-1.09-2.31-1.38-.89,0-15.05,8.22-15.35,9.06Z"/>
  <path d="M632.01,182.47s.02.01.03.02c0-.01,0-.02,0-.03l-.03.02Z"/>
  <path d="M638.69,185.2c-.21-.1-.44-.19-.67-.28.02.18.23.27.67.28Z"/>
  <path d="M647.6,194.06c-3.39-.45-9.76-1.9-13.6-3.07,4.46,1.75,9.95,2.77,13.6,3.07Z"/>
  <path d="M629.94,188.94c.18.12.36.24.55.36-.11-.16-.2-.34-.24-.51-.1.07-.2.12-.31.16Z"/>
  <path d="M650.63,192.88c.38-.77.13-1.64-.86-1.75.85.15,1.06.97.86,1.75Z"/>
  <path d="M630.25,188.79c.47-.32.82-.97.82-1.93-.71.58-.98,1.29-.82,1.93Z"/>
  <path d="M648.11,194.1c-.16-.01-.34-.03-.52-.04,1.18.16,2.01.19,2.22.05.4-.27.68-.74.81-1.23-.34.69-1.19,1.31-2.52,1.22Z"/>
  <path d="M631.12,189.89c.46.29,1.51.68,2.88,1.1-1.28-.5-2.48-1.06-3.51-1.69.15.22.36.42.63.59Z"/>
  <path d="M629.94,188.94c-.84-.56-1.57-1.16-2.12-1.8.33,1.51,1.32,2.07,2.12,1.8Z"/>
  <path d="M649.91,189.73c.4-.22.74-.35,1.03-.4-.34-.21-.83-.19-1.03.4Z"/>
  <path d="M618.72,222.92c.01-.2.03-.4.04-.6-1.87-.08-3.59.08-5.17.46.86.95,3.96.92,5.13.14Z"/>
  <path d="M581.57,194.62c.17-.01.35-.03.53-.04-.28-1.59-.69-3.03-1.26-4.28-.48,1.38-.25,3.99.73,4.32Z"/>
  <path d="M645.48,165.02c.43,1.72,1.6,3.71,2.83,4.99-.58-2.16-1.29-3.47-2.83-4.99h0Z"/>
  <path d="M626.47,150.26c0,.09-.02.21-.05.35,1.13.59,2.37.97,3.66,1.21-.05-.24-.13-.47-.23-.68-.39-.76-2.24-1.29-3.38-.87Z"/>
  <path d="M626.13,150.44c-.18.12-.34.28-.43.48-2.89,5.98-4.96,12.2-6.66,18.56,1.82-3.61,6.83-15.95,7.39-18.87-.1-.05-.2-.11-.3-.17Z"/>
  <path d="M601.6,152.19c-.06.06-.12.12-.17.18,2.26,5.43,4.04,13.23,6.31,17.92-1.27-5.64-4.34-15.52-5.7-18.16-.15.02-.29.05-.43.06Z"/>
  <path d="M606.37,150.43c0-.11,0-.21.02-.29v-.03c-1.93.07-3.42.77-4.49,1.77.04.07.09.15.14.25,1.46-.23,3.06-.92,4.34-1.69Z"/>
  <path d="M606.37,150.43c0,2.89,3.6,13.56,6.4,18.43l-6.3-18.49s-.07.04-.1.06Z"/>
  <path d="M618.85,190.98c2.93-1.77,4-5.12,2.19-7.97-1.68-2.63-4.9-4.39-8.37-2.38-3.1,1.8-3.46,6.44-1.67,9,1.7,2.43,5.14,2.98,7.85,1.35ZM611.3,186.35c-.16-2.5.93-4.97,4.21-5.22,2.43-.18,4.66,1.91,4.8,3.65.24,3.01-1.19,5.51-3.82,5.81-2.72.31-5.02-1.33-5.2-4.24Z"/>
</svg>